<?xml version="1.0" encoding="UTF-8"?>
<svg version="1.1" xmlns="http://www.w3.org/2000/svg" width="1200" height="706">
<path d="M0 0 C0.81210937 0.70382813 1.62421875 1.40765625 2.4609375 2.1328125 C5.01519431 4.3808808 7.51461209 6.67604967 10 9 C10.93585938 9.87011719 11.87171875 10.74023438 12.8359375 11.63671875 C24.85797207 23.0800251 34.9096399 36.52190113 43 51 C43.3928418 51.69818848 43.78568359 52.39637695 44.19042969 53.11572266 C60.94245731 83.16249934 71.03179376 117.57002263 71.203125 152.1328125 C71.21013931 153.07934189 71.21715363 154.02587128 71.22438049 155.00108337 C71.24180879 158.04243769 71.2482334 161.08359757 71.25 164.125 C71.25067474 165.16155731 71.25134949 166.19811462 71.25204468 167.26608276 C71.23670956 182.05787954 70.99308686 196.46172866 68 211 C67.83371094 211.85062012 67.66742187 212.70124023 67.49609375 213.57763672 C61.85750709 241.77579095 51.01920959 268.7366211 34 292 C33.40662842 292.83241211 33.40662842 292.83241211 32.80126953 293.68164062 C17.58195192 314.89607281 -2.38900649 332.11304069 -25 345 C-25.61891113 345.35658691 -26.23782227 345.71317383 -26.87548828 346.08056641 C-78.9722627 375.83725335 -143.93870545 380.37381905 -201.20068359 364.78515625 C-234.54630369 355.43232926 -262.98752229 338.80396854 -288 315 C-288.70511719 314.34773438 -289.41023437 313.69546875 -290.13671875 313.0234375 C-325.241971 279.55595564 -343.61579832 227.69191894 -345.12451172 180.06982422 C-345.21985429 175.50496912 -345.2465909 170.9407623 -345.25 166.375 C-345.25067474 165.55908386 -345.25134949 164.74316772 -345.25204468 163.90252686 C-345.23356339 149.7603683 -344.43303979 135.95645267 -342 122 C-341.83371094 121.04029297 -341.66742187 120.08058594 -341.49609375 119.09179688 C-334.35606485 79.55719238 -316.44339234 44.04831277 -289.3125 14.5625 C-288.54703857 13.72972534 -288.54703857 13.72972534 -287.76611328 12.88012695 C-255.36144252 -21.61132589 -208.4380204 -40.93189117 -162 -46 C-160.56914063 -46.16628906 -160.56914063 -46.16628906 -159.109375 -46.3359375 C-103.63370904 -51.70923499 -42.34880158 -37.65870629 0 0 Z M-199.88671875 61.16015625 C-228.56584933 95.15244179 -232.53659282 144.33050412 -229.25 186.9375 C-226.95180158 213.51556328 -220.62120661 242.81034051 -202 263 C-200.76636719 264.37091797 -200.76636719 264.37091797 -199.5078125 265.76953125 C-182.9795808 283.27987527 -161.52637342 290.1526928 -138.01171875 290.9609375 C-116.1191013 291.35875425 -94.29443489 285.58650671 -78.17358398 270.17797852 C-76.77069441 268.79710056 -75.38492526 267.39889425 -74 266 C-72.90558594 264.93845703 -72.90558594 264.93845703 -71.7890625 263.85546875 C-46.32672763 237.53767994 -43.21598014 193.6322421 -43.67485046 159.20974731 C-44.38890008 121.77894472 -52.25999167 83.51742079 -79.11328125 55.8203125 C-95.79011299 40.14957847 -117.58369168 33.16313685 -140.1796875 33.71484375 C-162.99107924 35.41753454 -184.42669169 43.74983597 -199.88671875 61.16015625 Z " fill="#003668" transform="translate(969,193)"/>
<path d="M0 0 C0 28.05 0 56.1 0 85 C-7.26 85.144375 -14.52 85.28875 -22 85.4375 C-24.27648437 85.50122803 -26.55296875 85.56495605 -28.8984375 85.63061523 C-30.72392905 85.65107932 -32.54945279 85.66891219 -34.375 85.68359375 C-35.30570313 85.71940552 -36.23640625 85.75521729 -37.1953125 85.79211426 C-42.51437111 85.79704453 -45.41915645 85.14869905 -49.47924805 81.59179688 C-50.65871776 80.40032907 -51.83293831 79.20362426 -53 78 C-78.88718466 59.15741249 -113.05832784 53.10080694 -144.41015625 57.6484375 C-167.42021302 61.90811834 -187.91423513 74.96831346 -201.75 93.8125 C-202.86432779 95.5218572 -203.94574662 97.25295155 -205 99 C-205.96679688 100.59328125 -205.96679688 100.59328125 -206.953125 102.21875 C-221.29000048 126.89973607 -225.2294746 155.41612324 -225.1875 183.5 C-225.18609512 184.7080278 -225.18609512 184.7080278 -225.18466187 185.94046021 C-225.09470202 221.55170584 -218.59048152 257.71183326 -192.88671875 284.17578125 C-172.33650399 303.52378966 -145.85395978 307.64165237 -118.76074219 307.09326172 C-89.33628834 306.09926266 -59.14282775 296.14282775 -38 275 C-34.91475061 274.82446581 -31.92035798 274.76877203 -28.8359375 274.8046875 C-27.47512558 274.80893234 -27.47512558 274.80893234 -26.08682251 274.81326294 C-23.18274877 274.82447847 -20.27898088 274.84958537 -17.375 274.875 C-15.40885861 274.88502803 -13.4427124 274.89415419 -11.4765625 274.90234375 C-6.65092341 274.92442228 -1.8255136 274.95896135 3 275 C3.3484266 285.14377017 3.61448778 295.28610631 3.77718258 305.43465328 C3.8552986 310.14812759 3.96109237 314.85749435 4.1315918 319.56860352 C4.29529489 324.12071603 4.38439101 328.66889675 4.42315865 333.22372627 C4.45075688 334.95576499 4.50466731 336.68760111 4.58595085 338.41795158 C5.18033391 351.60252762 5.18033391 351.60252762 1.54551315 355.59933853 C-2.04172111 358.44676093 -5.97325503 360.41648275 -10.16969204 362.20887756 C-12.71325111 363.30829181 -15.11824865 364.63806401 -17.546875 365.96875 C-38.58422886 376.39472941 -60.88417426 383.83990093 -84 388 C-84.8751123 388.16226074 -85.75022461 388.32452148 -86.65185547 388.49169922 C-147.03268338 399.12004113 -215.13846581 388.94425851 -266 354 C-269.47608861 351.47474988 -272.77320929 348.83496613 -276 346 C-276.825 345.28328125 -277.65 344.5665625 -278.5 343.828125 C-281.03467206 341.58710397 -283.52335846 339.30487447 -286 337 C-286.71671875 336.34902344 -287.4334375 335.69804687 -288.171875 335.02734375 C-326.16126132 299.04834466 -340.55179195 243.31022297 -342.07080078 192.63818359 C-342.93809301 155.76733155 -337.49737579 118.30742004 -321 85 C-320.64212402 84.26265625 -320.28424805 83.5253125 -319.91552734 82.765625 C-311.74727597 66.06270894 -301.80480281 51.47755953 -289 38 C-287.82666277 36.63068782 -286.65946034 35.25608213 -285.5 33.875 C-272.17485391 18.67263933 -254.69301627 7.43072857 -237 -2 C-235.88165771 -2.59723877 -235.88165771 -2.59723877 -234.74072266 -3.20654297 C-208.87717951 -16.76656724 -179.98773962 -24.25143814 -151 -27 C-149.96488281 -27.11085937 -148.92976562 -27.22171875 -147.86328125 -27.3359375 C-97.8381711 -31.88926856 -44.19521938 -24.55289966 0 0 Z " fill="#003668" transform="translate(582,174)"/>
<path d="M0 0 C37.87589594 -0.16121214 37.87589594 -0.16121214 53.73828125 -0.1953125 C64.69424929 -0.21905423 75.65009435 -0.24697641 86.60595703 -0.30175781 C94.58479224 -0.34163448 102.56352776 -0.36743493 110.54245985 -0.37635398 C114.76704524 -0.38156734 118.99134543 -0.39381444 123.21583939 -0.42292023 C127.19344382 -0.45010255 131.170646 -0.45843939 135.1483345 -0.45243073 C136.60681343 -0.45352971 138.06530602 -0.46146713 139.52370453 -0.4768219 C141.5183586 -0.49678969 143.51322928 -0.48953918 145.50796509 -0.48101807 C146.6233346 -0.48470524 147.73870411 -0.48839241 148.8878727 -0.49219131 C153.83423654 0.29008945 156.9433732 2.79242651 160.1875 6.5 C165.8827192 17.49766466 166.15072367 30.06906045 166.12457275 42.18347168 C166.1259829 43.3974776 166.12739305 44.61148353 166.12884593 45.86227751 C166.13122877 48.51703662 166.13180749 51.17172316 166.12928963 53.82647514 C166.12521223 58.14690176 166.12800796 62.46730892 166.13163757 66.78773499 C166.13572098 72.24821022 166.13796705 77.70868109 166.13805357 83.16915786 C166.13825666 93.89725628 166.15073673 104.6253097 166.16766357 115.35339355 C166.17026924 117.04405545 166.17286805 118.73471736 166.1754601 120.42537928 C166.1793983 122.98718599 166.18334487 125.54899269 166.18732132 128.11079934 C166.20225438 137.75924858 166.21588641 147.40769918 166.22802734 157.05615234 C166.22969769 158.37853748 166.22969769 158.37853748 166.23140177 159.72763747 C166.24898732 174.02245404 166.25184495 188.3172423 166.25017694 202.61206788 C166.24889775 217.29804952 166.26663432 231.98392586 166.30119491 246.66986704 C166.32183665 255.72360503 166.32718864 264.77709078 166.3128666 273.83084214 C166.30440508 280.03414814 166.31414531 286.23725797 166.3381761 292.44052255 C166.35147653 296.01834797 166.35668409 299.59570278 166.34005547 303.17352486 C166.32221602 307.05478299 166.34303491 310.93529414 166.36749268 314.81652832 C166.3561373 315.94338027 166.34478192 317.07023223 166.33308244 318.23123121 C166.42823605 325.99051989 168.12835002 330.82259844 173.40719724 336.51832628 C183.89865248 346.21546131 203.47841618 342.61594721 215 343 C215 364.45 215 385.9 215 408 C145.04 408 75.08 408 3 408 C3 386.55 3 365.1 3 343 C19.5 342.8125 19.5 342.8125 24.65820312 342.79223633 C35.77437316 342.69796288 35.77437316 342.69796288 45 337 C48.33819229 332.72026629 50.11850625 329.28877178 50.1398077 323.86376858 C50.14549894 323.0174973 50.15119018 322.17122601 50.15705389 321.29931015 C50.15823376 320.36936943 50.15941364 319.43942872 50.16062927 318.48130798 C50.16571709 317.49349714 50.17080491 316.5056863 50.17604691 315.4879418 C50.19180142 312.16245417 50.20030442 308.83698831 50.20874023 305.51147461 C50.21827634 303.13319764 50.22816739 300.75492207 50.23838806 298.37664795 C50.26709054 291.22763358 50.28685994 284.07860907 50.30378041 276.92955884 C50.3085766 274.90956506 50.31355979 272.88957182 50.31858563 270.8695786 C50.34956121 258.32037329 50.37624127 245.77116333 50.39300442 233.2219305 C50.3969538 230.31535267 50.40095681 227.40877493 50.4050293 224.50219727 C50.40603766 223.77979748 50.40704602 223.0573977 50.40808494 222.31310702 C50.42508055 210.61876862 50.46617723 198.92464225 50.51705229 187.23040729 C50.56887956 175.21823286 50.59795349 163.20616733 50.6052013 151.19388205 C50.60985748 144.45184006 50.62454398 137.71014512 50.6649456 130.96821404 C50.70182486 124.622557 50.71021677 118.27749161 50.69693947 111.93174744 C50.6969934 109.60577591 50.70728083 107.27977809 50.7286911 104.95390511 C50.75641755 101.77108536 50.7468425 98.59041663 50.72825623 95.40757751 C50.74505115 94.49325185 50.76184608 93.57892619 50.77914995 92.63689369 C50.66663759 84.89432558 47.68249658 78.84289273 42.32157034 73.24846405 C35.94656991 67.77421094 25.33976047 69.21651802 17.5 69.1875 C11.725 69.125625 5.95 69.06375 0 69 C0 46.23 0 23.46 0 0 Z " fill="#003668" transform="translate(0,152)"/>
<path d="M0 0 C1.00329346 0.00829834 2.00658691 0.01659668 3.0402832 0.02514648 C21.12232326 0.43454567 34.9432271 7.76199116 47.6875 20.4375 C48.23921875 20.95441406 48.7909375 21.47132813 49.359375 22.00390625 C53.14855275 25.90512958 55.49044781 30.57052922 57.9375 35.375 C58.2792627 36.04345947 58.62102539 36.71191895 58.97314453 37.40063477 C65.5366773 50.80731269 65.86109761 67.77389544 62.125 82.125 C56.21603292 99.3335708 44.60835896 111.92956736 28.5 120.04296875 C11.54736443 127.41650029 -7.98662741 128.09063508 -25.3125 121.4375 C-41.82835341 114.42731078 -53.19937876 102.63840325 -60.125 86.125 C-66.54488613 68.20016943 -64.95469363 50.48905974 -57.125 33.3125 C-49.12201591 18.34934489 -35.94550556 7.89923622 -19.92163086 2.6550293 C-13.19575235 0.63624767 -7.00635612 -0.07547775 0 0 Z " fill="#003668" transform="translate(1136.3125,439.5625)"/>
<path d="M0 0 C0.87398438 0.36222656 1.74796875 0.72445313 2.6484375 1.09765625 C18.71400241 8.38895109 28.77796167 21.8016087 35 38 C40.40941156 52.63415688 37.23851876 70.2962034 31 84 C23.56330252 98.6479795 11.12275311 108.58892675 -4.375 114 C-11.11600593 116.09956163 -17.7833117 116.45464308 -24.8125 116.5 C-26.22571533 116.50966797 -26.22571533 116.50966797 -27.66748047 116.51953125 C-44.93109906 116.20526268 -61.03076715 108.31191027 -73 96 C-84.75990581 81.94190053 -88.0942826 65.86151591 -87 48 C-84.79265121 31.54521807 -75.88693616 18.37771538 -63.4921875 7.875 C-45.91344198 -5.23840502 -20.24451875 -8.89708677 0 0 Z " fill="#003668" transform="translate(132,4)"/>
<path d="M0 0 C0.495 1.485 0.495 1.485 1 3 C1.556875 2.72285156 2.11375 2.44570313 2.6875 2.16015625 C9.28668269 -0.97222608 14.537803 -3.07838923 21.8125 -0.8125 C26.03737982 1.58988265 27.48297475 3.44892425 29 8 C29.08494728 10.65894107 29.11594796 13.29085377 29.09765625 15.94921875 C29.0962413 16.72183548 29.09482635 17.49445221 29.09336853 18.29048157 C29.08777466 20.75619389 29.07522333 23.22181515 29.0625 25.6875 C29.05748421 27.36002473 29.05292144 29.03255088 29.04882812 30.70507812 C29.03780724 34.80342046 29.02054684 38.90169479 29 43 C25.7 43 22.4 43 19 43 C18.505 25.675 18.505 25.675 18 8 C9.60909992 8.40736224 9.60909992 8.40736224 5 11 C4.67 21.56 4.34 32.12 4 43 C0.37 43 -3.26 43 -7 43 C-7.02505615 41.97527588 -7.0501123 40.95055176 -7.07592773 39.89477539 C-7.16984484 36.10590324 -7.27010317 32.31722119 -7.37231445 28.52856445 C-7.41572297 26.88635697 -7.45739358 25.24410261 -7.49731445 23.60180664 C-7.5548744 21.24611255 -7.61860892 18.89065572 -7.68359375 16.53515625 C-7.70030624 15.79660904 -7.71701874 15.05806183 -7.73423767 14.2971344 C-7.53548013 10.85699373 -7.53548013 10.85699373 -9 8 C-14.86892751 8.39372451 -14.86892751 8.39372451 -20 11 C-20.33814748 13.47491114 -20.48872339 15.71351688 -20.51171875 18.1953125 C-20.52966995 18.90275604 -20.54762115 19.61019958 -20.56611633 20.33908081 C-20.62034442 22.60099303 -20.65415316 24.86269284 -20.6875 27.125 C-20.72066226 28.65758173 -20.7551509 30.19013538 -20.79101562 31.72265625 C-20.87607727 35.48161779 -20.94282753 39.240515 -21 43 C-24.63 43 -28.26 43 -32 43 C-32 28.48 -32 13.96 -32 -1 C-24 -1 -24 -1 -21.5 0.5 C-21.005 0.995 -20.51 1.49 -20 2 C-19.113125 1.525625 -18.22625 1.05125 -17.3125 0.5625 C-11.30730571 -2.27013882 -6.24070876 -2.52722917 0 0 Z " fill="#013667" transform="translate(199,660)"/>
<path d="M0 0 C0.62648438 0.2784375 1.25296875 0.556875 1.8984375 0.84375 C3.91644645 -0.11939063 5.91393594 -1.12583573 7.8984375 -2.15625 C12.94865207 -3.44910493 17.13674993 -3.53709378 21.8984375 -1.15625 C24.91031586 1.69914492 26.1478953 3.81964592 26.35253906 7.8996582 C26.3519106 9.48142395 26.32959537 11.06328479 26.2890625 12.64453125 C26.28340271 13.48090622 26.27774292 14.31728119 26.27191162 15.17900085 C26.24960018 17.83867711 26.19941538 20.49698405 26.1484375 23.15625 C26.12836565 24.96417319 26.11011608 26.77211759 26.09375 28.58007812 C26.04975277 33.00182611 25.98076296 37.42255625 25.8984375 41.84375 C22.5984375 41.84375 19.2984375 41.84375 15.8984375 41.84375 C15.4034375 24.51875 15.4034375 24.51875 14.8984375 6.84375 C6.50753742 7.25111224 6.50753742 7.25111224 1.8984375 9.84375 C1.5684375 20.40375 1.2384375 30.96375 0.8984375 41.84375 C-2.4015625 41.84375 -5.7015625 41.84375 -9.1015625 41.84375 C-9.12138184 40.92561523 -9.14120117 40.00748047 -9.16162109 39.06152344 C-9.23983205 35.64703175 -9.32652834 32.23297298 -9.41894531 28.81884766 C-9.45716916 27.34269464 -9.49203353 25.86645057 -9.5234375 24.39013672 C-9.56923236 22.26496906 -9.62720087 20.14042458 -9.6875 18.015625 C-9.73463135 16.0989502 -9.73463135 16.0989502 -9.78271484 14.14355469 C-10.07502635 11.11837676 -10.50737739 9.38325891 -12.1015625 6.84375 C-13.3596875 6.9675 -14.6178125 7.09125 -15.9140625 7.21875 C-16.62175781 7.28835938 -17.32945312 7.35796875 -18.05859375 7.4296875 C-20.40144392 7.77040391 -20.40144392 7.77040391 -23.1015625 9.84375 C-23.43970998 12.31866114 -23.59028589 14.55726688 -23.61328125 17.0390625 C-23.63123245 17.74650604 -23.64918365 18.45394958 -23.66767883 19.18283081 C-23.72190692 21.44474303 -23.75571566 23.70644284 -23.7890625 25.96875 C-23.82222476 27.50133173 -23.8567134 29.03388538 -23.89257812 30.56640625 C-23.97763977 34.32536779 -24.04439003 38.084265 -24.1015625 41.84375 C-27.4015625 41.84375 -30.7015625 41.84375 -34.1015625 41.84375 C-34.1015625 27.32375 -34.1015625 12.80375 -34.1015625 -2.15625 C-26.1015625 -2.15625 -26.1015625 -2.15625 -24.1015625 -0.65625 C-23.6065625 0.08625 -23.6065625 0.08625 -23.1015625 0.84375 C-21.8021875 0.1321875 -21.8021875 0.1321875 -20.4765625 -0.59375 C-13.57845371 -3.78731889 -6.73878948 -3.70758677 0 0 Z " fill="#013666" transform="translate(626.1015625,661.15625)"/>
<path d="M0 0 C0 0.66 0 1.32 0 2 C0.56847656 1.72285156 1.13695312 1.44570313 1.72265625 1.16015625 C7.8589684 -1.718481 12.81183802 -3.48632979 19.6875 -2.4375 C23.89607071 -0.61113913 24.87339258 0.959903 27 5 C27.50974061 7.90956616 27.46877673 10.73321492 27.390625 13.6796875 C27.38496521 14.49245148 27.37930542 15.30521545 27.37347412 16.14260864 C27.35120838 18.72068945 27.30103315 21.29734431 27.25 23.875 C27.2299222 25.63018816 27.21167367 27.38539826 27.1953125 29.140625 C27.15137612 33.42762689 27.08241911 37.71357227 27 42 C23.7 42 20.4 42 17 42 C16.505 24.675 16.505 24.675 16 7 C7.60909992 7.40736224 7.60909992 7.40736224 3 10 C2.67 20.56 2.34 31.12 2 42 C-1.3 42 -4.6 42 -8 42 C-8.01981934 41.11739502 -8.03963867 40.23479004 -8.06005859 39.32543945 C-8.13837866 36.03578043 -8.22507855 32.74656036 -8.31738281 29.45727539 C-8.35555149 28.0364627 -8.39042513 26.61555737 -8.421875 25.19458008 C-8.46779065 23.14631145 -8.52573805 21.09867392 -8.5859375 19.05078125 C-8.6173584 17.82012939 -8.6487793 16.58947754 -8.68115234 15.3215332 C-8.98595035 12.14635945 -9.64442201 9.86573943 -11 7 C-12.258125 7.12375 -13.51625 7.2475 -14.8125 7.375 C-15.52019531 7.44460938 -16.22789062 7.51421875 -16.95703125 7.5859375 C-19.29988142 7.92665391 -19.29988142 7.92665391 -22 10 C-22.33814748 12.47491114 -22.48872339 14.71351688 -22.51171875 17.1953125 C-22.52966995 17.90275604 -22.54762115 18.61019958 -22.56611633 19.33908081 C-22.62034442 21.60099303 -22.65415316 23.86269284 -22.6875 26.125 C-22.72066226 27.65758173 -22.7551509 29.19013538 -22.79101562 30.72265625 C-22.87607727 34.48161779 -22.94282753 38.240515 -23 42 C-26.3 42 -29.6 42 -33 42 C-33 27.48 -33 12.96 -33 -2 C-25 -2 -25 -2 -23 -1 C-23 -0.01 -23 0.98 -23 2 C-22.48050781 1.72285156 -21.96101562 1.44570313 -21.42578125 1.16015625 C-14.14115268 -2.62354177 -7.49045517 -4.99363678 0 0 Z " fill="#013666" transform="translate(557,661)"/>
<path d="M0 0 C6.29660734 4.81104413 9.88804355 12.0505642 11.0546875 19.81640625 C11.86502962 29.83276623 10.63843096 38.20187483 5.1796875 46.75390625 C-0.74443758 52.50379236 -6.53794497 54.87846376 -14.6953125 55.19140625 C-21.71316939 55.03487413 -27.58808997 53.67954698 -33.015625 49.05078125 C-40.43424294 41.16655967 -42.13024515 32.48085589 -41.9453125 21.81640625 C-40.75734995 12.30117226 -37.47273424 5.47687489 -30.0078125 -0.55859375 C-20.23899238 -5.74204933 -9.51018117 -5.78631505 0 0 Z M-24.9453125 7.81640625 C-31.1215356 15.66187884 -30.6179119 24.26738943 -29.9453125 33.81640625 C-28.74320816 38.54239361 -26.7757749 41.06144043 -23.1953125 44.31640625 C-18.92032468 46.28947755 -16.63277032 46.3372349 -11.9453125 45.81640625 C-7.56334622 43.98209479 -4.43527076 40.83305425 -1.9453125 36.81640625 C1.03627557 29.5314952 1.02817429 21.84047307 -1.6328125 14.50390625 C-3.38351276 10.50585318 -5.10092423 8.08360959 -8.9453125 5.81640625 C-14.89209711 3.83414471 -19.72450336 4.33586682 -24.9453125 7.81640625 Z " fill="#013666" transform="translate(1037.9453125,649.18359375)"/>
<path d="M0 0 C1 1 1 1 1.09765625 3.06640625 C1.08605469 3.89011719 1.07445312 4.71382812 1.0625 5.5625 C1.05347656 6.38878906 1.04445313 7.21507812 1.03515625 8.06640625 C1.02355469 8.70449219 1.01195312 9.34257813 1 10 C-3.53770004 10.30938864 -5.56167472 9.96407351 -9 7 C-14.01027625 5.32990792 -18.33043317 5.42207302 -23.25 7.125 C-27.13903295 9.77661338 -29.26147627 12.7844288 -30.75 17.25 C-31.54477686 25.99254544 -31.47964958 33.97383949 -26.3125 41.4375 C-22.42275552 44.06570573 -18.49314343 45.25744416 -13.84375 44.77734375 C-10.79178569 44.09976212 -8.3675786 43.28108952 -5.875 41.375 C-3.24777166 39.44836589 -1.16893853 39.78393601 2 40 C2.29350411 43.05244276 2.4102615 45.95459734 2 49 C-1.98545778 53.71008647 -7.138479 54.75599433 -13.0234375 55.2578125 C-21.27178395 55.54621622 -27.63438538 54.77727983 -34 49.26953125 C-41.15023651 41.80647189 -42.48778938 34.11635577 -42.42431641 24.0300293 C-42.15835538 16.45192513 -40.43955748 10.11721234 -35.75 4.125 C-24.22734974 -4.77886611 -13.46668099 -6.89959582 0 0 Z " fill="#013666" transform="translate(470,649)"/>
<path d="M0 0 C4.33507485 4.12360779 5.42073023 8.25879146 5.80004883 14.08813477 C5.89396753 18.37259051 5.82475761 22.65327785 5.75 26.9375 C5.7349286 28.44269497 5.72124453 29.94790451 5.70898438 31.453125 C5.67616687 35.11488941 5.62451989 38.77610021 5.5625 42.4375 C4.10457116 42.49149736 2.64607288 42.53029177 1.1875 42.5625 C0.37539063 42.58570313 -0.43671875 42.60890625 -1.2734375 42.6328125 C-3.4375 42.4375 -3.4375 42.4375 -5.4375 40.4375 C-6.035625 40.9325 -6.63375 41.4275 -7.25 41.9375 C-11.96283296 44.15530375 -16.31460376 44.10701214 -21.4375 43.4375 C-25.32674158 41.6317807 -26.94915031 40.17002453 -29.3125 36.625 C-31.0597346 31.67450198 -31.07472803 28.09429288 -29.1875 23.1875 C-26.75558538 19.36591988 -24.70287638 17.85929213 -20.4375 16.4375 C-17.86484182 16.36720879 -15.32108569 16.34379168 -12.75 16.375 C-12.04810547 16.37951172 -11.34621094 16.38402344 -10.62304688 16.38867188 C-8.89449462 16.40043073 -7.16598635 16.41836546 -5.4375 16.4375 C-5.70143501 13.00519552 -5.70143501 13.00519552 -6.4375 9.4375 C-9.8516235 7.16141767 -10.59460661 7.27261023 -14.5 7.75 C-15.81677734 7.89888672 -15.81677734 7.89888672 -17.16015625 8.05078125 C-19.46057196 8.32771864 -19.46057196 8.32771864 -21.4375 9.4375 C-23.43710012 9.477492 -25.43797242 9.48096799 -27.4375 9.4375 C-27.4375 6.7975 -27.4375 4.1575 -27.4375 1.4375 C-18.51022522 -2.75285347 -9.22920305 -4.19509229 0 0 Z M-19.30078125 24.76171875 C-21.07071345 27.37100024 -20.82028316 29.3752347 -20.4375 32.4375 C-19.4375 34.4375 -19.4375 34.4375 -17.4375 35.4375 C-13.28693961 36.1753774 -11.68961249 35.59156874 -8.0625 33.375 C-5.07633051 30.61483854 -5.07633051 30.61483854 -5.0625 26.625 C-5.18625 25.573125 -5.31 24.52125 -5.4375 23.4375 C-7.37431161 23.35642417 -9.3120934 23.29827525 -11.25 23.25 C-12.32894531 23.21519531 -13.40789062 23.18039062 -14.51953125 23.14453125 C-17.41817151 23.19241538 -17.41817151 23.19241538 -19.30078125 24.76171875 Z " fill="#013666" transform="translate(263.4375,660.5625)"/>
<path d="M0 0 C5.03596112 4.21615349 7.38868116 7.75590582 8.6875 14.25 C8.6875 17.22 8.6875 20.19 8.6875 23.25 C-0.5525 23.25 -9.7925 23.25 -19.3125 23.25 C-16.62932217 31.85646694 -16.62932217 31.85646694 -13.3125 33.25 C-7.38782635 33.7952797 -3.31210146 33.67829814 1.6875 30.25 C4.5 30.0625 4.5 30.0625 6.6875 30.25 C6.6875 32.89 6.6875 35.53 6.6875 38.25 C-0.90613559 42.85968664 -8.59659397 43.35632361 -17.3125 42.25 C-23.09841469 40.2084235 -26.39126466 36.62507303 -29.3125 31.25 C-31.57918899 24.44993303 -31.69285141 14.01918424 -28.625 7.5 C-21.8474048 -2.02526893 -10.56298143 -5.58044302 0 0 Z M-16.75 7.875 C-18.79180303 10.62957216 -18.79180303 10.62957216 -19.3125 16.25 C-13.7025 16.25 -8.0925 16.25 -2.3125 16.25 C-2.79791667 9.91875 -2.79791667 9.91875 -4.375 7.3125 C-8.57403037 5.00980593 -12.90603953 5.31235969 -16.75 7.875 Z " fill="#013666" transform="translate(888.3125,660.75)"/>
<path d="M0 0 C5.03596112 4.21615349 7.38868116 7.75590582 8.6875 14.25 C8.6875 17.22 8.6875 20.19 8.6875 23.25 C-0.5525 23.25 -9.7925 23.25 -19.3125 23.25 C-16.62932217 31.85646694 -16.62932217 31.85646694 -13.3125 33.25 C-7.38782635 33.7952797 -3.31210146 33.67829814 1.6875 30.25 C4.5 30.0625 4.5 30.0625 6.6875 30.25 C6.6875 32.89 6.6875 35.53 6.6875 38.25 C-0.90613559 42.85968664 -8.59659397 43.35632361 -17.3125 42.25 C-23.09841469 40.2084235 -26.39126466 36.62507303 -29.3125 31.25 C-31.56414566 24.49506302 -31.69847369 14.05920672 -28.6875 7.5625 C-25.69650092 2.82500845 -21.89857057 -0.49362281 -16.5 -2.125 C-10.55773293 -3.30663628 -5.36505078 -2.83436645 0 0 Z M-16.75 7.875 C-18.79180303 10.62957216 -18.79180303 10.62957216 -19.3125 16.25 C-13.7025 16.25 -8.0925 16.25 -2.3125 16.25 C-2.79791667 9.91875 -2.79791667 9.91875 -4.375 7.3125 C-8.57403037 5.00980593 -12.90603953 5.31235969 -16.75 7.875 Z " fill="#013666" transform="translate(1190.3125,660.75)"/>
<path d="M0 0 C3.06898826 3.82000956 2.42072826 8.36597679 2.390625 12.99609375 C2.38921005 13.81310257 2.3877951 14.63011139 2.38633728 15.47187805 C2.38074169 18.08024768 2.36819004 20.68853134 2.35546875 23.296875 C2.35045318 25.06575397 2.34589037 26.83463428 2.34179688 28.60351562 C2.33077371 32.93883519 2.31351213 37.27409052 2.29296875 41.609375 C-1.00703125 41.609375 -4.30703125 41.609375 -7.70703125 41.609375 C-8.03703125 30.059375 -8.36703125 18.509375 -8.70703125 6.609375 C-17.95054118 6.93446719 -17.95054118 6.93446719 -22.70703125 9.609375 C-23.03703125 20.169375 -23.36703125 30.729375 -23.70703125 41.609375 C-27.33703125 41.609375 -30.96703125 41.609375 -34.70703125 41.609375 C-34.70703125 27.089375 -34.70703125 12.569375 -34.70703125 -2.390625 C-26.70703125 -2.390625 -26.70703125 -2.390625 -24.70703125 -1.390625 C-24.70703125 -0.400625 -24.70703125 0.589375 -24.70703125 1.609375 C-24.19914063 1.33222656 -23.69125 1.05507813 -23.16796875 0.76953125 C-15.99034916 -3.00745584 -7.05407901 -5.74657238 0 0 Z " fill="#013666" transform="translate(849.70703125,661.390625)"/>
<path d="M0 0 C2.99717517 2.85532783 4.25416819 4.98363929 4.45410156 9.0559082 C4.4534731 10.63767395 4.43115787 12.21953479 4.390625 13.80078125 C4.38496521 14.63715622 4.37930542 15.47353119 4.37347412 16.33525085 C4.35116268 18.99492711 4.30097788 21.65323405 4.25 24.3125 C4.22992815 26.12042319 4.21167858 27.92836759 4.1953125 29.73632812 C4.15131527 34.15807611 4.08232546 38.57880625 4 43 C0.7 43 -2.6 43 -6 43 C-6.33 31.45 -6.66 19.9 -7 8 C-16.24350993 8.32509219 -16.24350993 8.32509219 -21 11 C-21.33 21.56 -21.66 32.12 -22 43 C-25.63 43 -29.26 43 -33 43 C-33 28.48 -33 13.96 -33 -1 C-25 -1 -25 -1 -22.5 0.5 C-22.005 0.995 -21.51 1.49 -21 2 C-19.700625 1.2884375 -19.700625 1.2884375 -18.375 0.5625 C-12.24674504 -2.27465508 -6.26897591 -2.80394195 0 0 Z " fill="#013766" transform="translate(400,660)"/>
<path d="M0 0 C5.38481594 5.37378148 6.63007166 10.38584491 6.875 17.875 C6.68443825 23.92724126 6.10833904 29.05244955 1.8828125 33.625 C-4.33326058 39.17411245 -8.8842132 40.34273361 -17.234375 40.18359375 C-22.57004614 39.67938559 -26.25208287 38.15173658 -30.0234375 34.33203125 C-34.58203154 28.57450063 -35.77224678 22.56516675 -35.375 15.375 C-34.60278411 8.90095751 -32.75976094 4.02177289 -28 -0.5 C-19.15195685 -6.25122805 -8.56346607 -6.92029177 0 0 Z M-22.5 7.875 C-25.12121096 13.07329378 -25.05794781 18.17534848 -24.5 23.875 C-22.95726494 27.57756414 -21.09082033 30.03106524 -17.5 31.875 C-13.41343322 32.47479221 -13.41343322 32.47479221 -9.5 31.875 C-6.72459018 29.77303521 -5.03774989 27.15732667 -3.6875 23.9375 C-3.12580124 17.75881365 -3.21944429 12.28974622 -6.5 6.875 C-12.69585921 2.65654267 -16.77651631 3.27132833 -22.5 7.875 Z " fill="#013667" transform="translate(802.5,663.125)"/>
<path d="M0 0 C4.99891003 5.54986516 4.77160584 13.11868057 4.44921875 20.20703125 C3.65353046 26.92540801 0.79614941 30.55767703 -4.125 34.9375 C-9.89929703 39.07993048 -16.14202498 38.4487317 -23 38 C-28.43322039 36.32064097 -31.8597776 32.63466559 -35 28 C-38.32242994 21.29844336 -38.1755547 13.14451378 -36.16015625 6.0390625 C-33.4856781 0.04174787 -30.05167023 -3.44244889 -24 -6 C-14.94657333 -8.69676539 -6.87498838 -6.22873948 0 0 Z M-23 5 C-26.30738668 8.66174953 -26.88487105 11.47454137 -27.25 16.3125 C-26.91089282 21.31433093 -25.64452417 25.17927681 -22.25 28.9375 C-18.95390952 30.49398717 -16.59996843 30.44210139 -13 30 C-10.08912289 28.25347373 -8.46563394 26.75388353 -6.6875 23.875 C-5.34811722 18.27394475 -5.30217762 13.02001216 -7.1875 7.5625 C-9.22308776 4.68460007 -10.78218584 3.4126989 -14 2 C-18.35272557 2 -19.56040113 2.5305444 -23 5 Z " fill="#013667" transform="translate(127,665)"/>
<path d="M0 0 C4.94612624 6.33872489 5.73879509 12.8475244 5.4140625 20.7265625 C4.48211376 28.09423274 1.34219969 32.24590804 -4.31640625 36.87109375 C-9.42160806 40.29430332 -16.13478777 39.38377315 -22 39 C-27.43322039 37.32064097 -30.8597776 33.63466559 -34 29 C-37.35619674 22.36751597 -37.05300734 13.60779051 -35.41796875 6.453125 C-33.01250991 0.78546855 -28.3657162 -2.28890129 -23 -5 C-14.96201551 -7.51187015 -6.15585309 -5.78114899 0 0 Z M-23 6 C-26.10773909 11.17956515 -26.80639314 16.01743469 -26 22 C-24.48440089 26.09211759 -22.99531618 29.05633267 -19 31 C-14.91307243 31.60256571 -14.91307243 31.60256571 -11 31 C-7.90626145 28.58870378 -6.23900485 25.71701454 -5 22 C-4.33558463 15.29196025 -5.29645002 10.73347379 -9.3125 5.1875 C-14.10248119 1.8167725 -18.46488735 2.775031 -23 6 Z " fill="#013666" transform="translate(512,664)"/>
<path d="M0 0 C5.56778136 5.22887293 7.1115807 11.35469088 7.359375 18.8125 C7.07463835 25.7211103 5.91698019 30.46102758 1.078125 35.46484375 C-4.71569785 40.68173932 -9.33829 40.97922699 -17.03515625 40.90234375 C-22.28586051 40.54625407 -24.99148639 38.73007276 -28.890625 35.375 C-33.3489578 30.19369431 -34.74062331 25.5739856 -34.640625 18.8125 C-34.63377686 18.10577148 -34.62692871 17.39904297 -34.61987305 16.67089844 C-34.40135095 9.57670539 -32.92166619 5.27011413 -27.703125 0.3125 C-19.00904815 -5.33864995 -8.74652091 -6.15755072 0 0 Z M-21.203125 7.6875 C-24.24147391 12.9260326 -25.01324731 17.67726828 -24.203125 23.6875 C-22.68752589 27.77961759 -21.19844118 30.74383267 -17.203125 32.6875 C-12.16411488 33.3273743 -10.33290913 33.55286657 -6.265625 30.4375 C-2.70768274 25.69357699 -2.5120808 20.47144528 -3.203125 14.6875 C-4.44924152 10.89749795 -5.69230106 7.60171174 -9.19140625 5.484375 C-13.90531128 3.61711942 -17.33592723 4.53268077 -21.203125 7.6875 Z " fill="#013666" transform="translate(354.203125,662.3125)"/>
<path d="M0 0 C3.68417634 3.59207194 4.94872517 6.39504284 5.11352539 11.5534668 C5.1133674 13.01872699 5.10773819 14.48399324 5.09765625 15.94921875 C5.0962413 16.72183548 5.09482635 17.49445221 5.09336853 18.29048157 C5.08777466 20.75619389 5.07522333 23.22181515 5.0625 25.6875 C5.05748421 27.36002473 5.05292144 29.03255088 5.04882812 30.70507812 C5.03780724 34.80342046 5.02054684 38.90169479 5 43 C3.35425434 43.02688151 1.70838587 43.04634123 0.0625 43.0625 C-0.85402344 43.07410156 -1.77054688 43.08570313 -2.71484375 43.09765625 C-5 43 -5 43 -6 42 C-6.1474969 39.56554087 -6.23488535 37.15571433 -6.28125 34.71875 C-6.29965942 33.99006714 -6.31806885 33.26138428 -6.33703613 32.51062012 C-6.41596504 29.38044372 -6.4835375 26.25004361 -6.55224609 23.11962891 C-6.60387154 20.8400575 -6.66116261 18.56067728 -6.71875 16.28125 C-6.73232544 15.56771362 -6.74590088 14.85417725 -6.7598877 14.11901855 C-6.55927238 10.77300001 -6.55927238 10.77300001 -8 8 C-13.05217134 8.42101428 -16.18702766 9.07481106 -21 11 C-21.33 21.56 -21.66 32.12 -22 43 C-25.3 43 -28.6 43 -32 43 C-32 28.48 -32 13.96 -32 -1 C-29.69 -1 -27.38 -1 -25 -1 C-24.34 0.32 -23.68 1.64 -23 3 C-22.40832031 2.72285156 -21.81664062 2.44570313 -21.20703125 2.16015625 C-13.59896526 -1.32739113 -8.12841526 -3.11462641 0 0 Z " fill="#013666" transform="translate(56,660)"/>
<path d="M0 0 C0 2.64 0 5.28 0 8 C-3.12220532 8.14521885 -5.46799288 8.224003 -8.375 7 C-12.03419635 5.60602044 -15.09709981 5.8676983 -19 6 C-19 7.65 -19 9.3 -19 11 C-17.90300781 11.30292969 -16.80601562 11.60585938 -15.67578125 11.91796875 C-14.2211065 12.34029368 -12.76669283 12.76351863 -11.3125 13.1875 C-10.59126953 13.38408203 -9.87003906 13.58066406 -9.12695312 13.78320312 C-4.23964557 15.23377386 -1.30894255 16.93183546 2 21 C3.55806622 25.67419867 3.49692753 29.50921741 1.9375 34.1875 C-0.55594366 37.80701499 -2.82151388 39.77144179 -7 41 C-14.92835868 41.83803316 -21.78850714 41.46151657 -29 38 C-29 35.03 -29 32.06 -29 29 C-25.62537285 29.54723683 -23.91765 30.0549 -21 32 C-18.48415109 32.24150773 -18.48415109 32.24150773 -15.8125 32.125 C-14.91144531 32.10695313 -14.01039063 32.08890625 -13.08203125 32.0703125 C-12.39496094 32.04710937 -11.70789063 32.02390625 -11 32 C-9.49069817 28.6136749 -9.49069817 28.6136749 -9 25 C-9.95261719 24.82984375 -10.90523437 24.6596875 -11.88671875 24.484375 C-13.14097656 24.24203125 -14.39523437 23.9996875 -15.6875 23.75 C-16.92886719 23.51796875 -18.17023437 23.2859375 -19.44921875 23.046875 C-23.2343655 21.93090214 -25.23842259 20.79186894 -28 18 C-29.70562654 14.50475774 -30.39549299 10.79175522 -29.55078125 6.96484375 C-28.28187469 3.80264804 -26.83458613 0.92346916 -24 -1 C-15.19196352 -4.28142536 -8.47468029 -3.295709 0 0 Z " fill="#013667" transform="translate(742,662)"/>
<path d="M0 0 C0 2.64 0 5.28 0 8 C-0.99 7.855625 -1.98 7.71125 -3 7.5625 C-3.63421875 7.47355469 -4.2684375 7.38460937 -4.921875 7.29296875 C-6.32917802 7.09457077 -7.7354322 6.88861155 -9.140625 6.67578125 C-12.50825443 6.19558224 -14.72833186 5.90944395 -18 7 C-18 8.32 -18 9.64 -18 11 C-16.89140625 11.31453125 -15.7828125 11.6290625 -14.640625 11.953125 C-13.17688392 12.38474096 -11.71335305 12.81707029 -10.25 13.25 C-9.52039063 13.45496094 -8.79078125 13.65992188 -8.0390625 13.87109375 C-3.76252828 15.15405402 -0.74762407 16.27157848 2 20 C3.75424271 25.09976568 3.32794673 30.39451179 1.109375 35.26953125 C-1.01578282 38.58447814 -3.2982107 40.05067016 -7 41 C-14.78600629 41.74601602 -22.11615972 42.02956504 -29 38 C-29 35.03 -29 32.06 -29 29 C-26.49202176 29.41799637 -24.38764122 29.78446165 -22.15234375 31.02734375 C-19.55626393 32.20052682 -17.64929416 32.23359267 -14.8125 32.1875 C-13.93207031 32.18105469 -13.05164063 32.17460938 -12.14453125 32.16796875 C-10.01852688 32.23510464 -10.01852688 32.23510464 -9 31 C-8.95936168 29.33382885 -8.957279 27.66611905 -9 26 C-11.96501217 24.70280717 -14.77977253 23.82389421 -17.9375 23.1875 C-22.37995377 22.12736899 -24.78236037 20.21763963 -28 17 C-29.60288305 12.19135086 -29.77236515 7.82928589 -27.8125 3.1875 C-20.59023245 -5.5290298 -9.30715194 -4.06130266 0 0 Z " fill="#013666" transform="translate(972,662)"/>
<path d="M0 0 C0 2.64 0 5.28 0 8 C-0.99 7.855625 -1.98 7.71125 -3 7.5625 C-3.63421875 7.47355469 -4.2684375 7.38460937 -4.921875 7.29296875 C-6.32917802 7.09457077 -7.7354322 6.88861155 -9.140625 6.67578125 C-12.50825443 6.19558224 -14.72833186 5.90944395 -18 7 C-18 8.32 -18 9.64 -18 11 C-16.89140625 11.31453125 -15.7828125 11.6290625 -14.640625 11.953125 C-13.17688392 12.38474096 -11.71335305 12.81707029 -10.25 13.25 C-9.52039063 13.45496094 -8.79078125 13.65992188 -8.0390625 13.87109375 C-3.73927817 15.16102905 -0.82911902 16.31357219 2 20 C3.62297848 24.86893544 3.35324377 28.77403634 1.9375 33.6875 C-0.43084732 37.73660993 -2.53130967 39.75292363 -7 41 C-14.93236937 41.82903623 -21.78428718 41.46354215 -29 38 C-29 35.03 -29 32.06 -29 29 C-26.49202176 29.41799637 -24.38764122 29.78446165 -22.15234375 31.02734375 C-19.55626393 32.20052682 -17.64929416 32.23359267 -14.8125 32.1875 C-13.93207031 32.18105469 -13.05164063 32.17460938 -12.14453125 32.16796875 C-10.01852688 32.23510464 -10.01852688 32.23510464 -9 31 C-8.95936168 29.33382885 -8.957279 27.66611905 -9 26 C-11.44033216 24.94252273 -13.84167137 24.04092501 -16.41796875 23.375 C-21.79670245 21.97668814 -25.02955525 21.0368411 -28 16 C-29.53214888 12.93570224 -29.22938548 10.3834358 -29 7 C-27.18201807 2.88561983 -24.69425713 0.52290731 -21 -2 C-13.52600557 -4.34236526 -7.01453601 -3.06088844 0 0 Z " fill="#013667" transform="translate(706,662)"/>
<path d="M0 0 C0 2.64 0 5.28 0 8 C-3.17913322 8.14786666 -5.49193511 8.22146418 -8.4375 6.9375 C-12.00411983 5.63263909 -14.35086813 6.07113007 -18 7 C-21.72781857 9.72030004 -23.08684264 12.51722751 -24 17 C-24.1472553 22.09666948 -23.77861498 25.82028034 -20.9375 30.125 C-17.14581202 32.54522637 -14.38594042 32.85753621 -10 32 C-8.30280873 31.05273046 -6.63064764 30.05771739 -5 29 C-2.1875 28.8125 -2.1875 28.8125 0 29 C0.43344482 34.20133779 0.43344482 34.20133779 0 37 C-3.46086363 40.74926893 -6.57455103 41.77026027 -11.515625 42.23828125 C-18.73504924 42.43423705 -24.0721676 41.5671131 -29.53125 36.609375 C-34.90363434 30.67476439 -35.41880578 24.65138838 -35.23828125 16.96484375 C-34.71853992 10.49789841 -32.9936223 6.60202337 -28.25 2.125 C-19.34262929 -5.01064916 -9.96593099 -3.87563983 0 0 Z " fill="#013666" transform="translate(1157,662)"/>
<path d="M0 0 C3.3 0 6.6 0 10 0 C10 3.63 10 7.26 10 11 C13.3 11 16.6 11 20 11 C20 13.64 20 16.28 20 19 C16.7 19 13.4 19 10 19 C10.33 28.24 10.66 37.48 11 47 C14.3 47 17.6 47 21 47 C21 49.64 21 52.28 21 55 C18.60293877 55.10854617 16.21084162 55.18753157 13.8125 55.25 C13.13896484 55.28351562 12.46542969 55.31703125 11.77148438 55.3515625 C8.15222309 55.42218223 6.16889649 55.10553212 3.07421875 53.171875 C-0.43261551 49.49993555 -0.11891766 46.23214458 -0.09765625 41.36328125 C-0.09443359 40.06455078 -0.09121094 38.76582031 -0.08789062 37.42773438 C-0.07953531 36.05598892 -0.07107037 34.68424413 -0.0625 33.3125 C-0.05748335 31.92903805 -0.05292073 30.54557437 -0.04882812 29.16210938 C-0.03702529 25.77469605 -0.02056019 22.38736967 0 19 C-1.65 19 -3.3 19 -5 19 C-5 16.36 -5 13.72 -5 11 C-3.35 11 -1.7 11 0 11 C0 7.37 0 3.74 0 0 Z " fill="#013666" transform="translate(278,648)"/>
<path d="M0 0 C1 1 1 1 1.0625 4.5625 C1.041875 5.696875 1.02125 6.83125 1 8 C-1.64 8.33 -4.28 8.66 -7 9 C-7 10.32 -7 11.64 -7 13 C-4.36 13.33 -1.72 13.66 1 14 C1 16.64 1 19.28 1 22 C-1.97 22 -4.94 22 -8 22 C-8 33.88 -8 45.76 -8 58 C-11.3 58 -14.6 58 -18 58 C-18 46.12 -18 34.24 -18 22 C-19.65 22 -21.3 22 -23 22 C-23 19.69 -23 17.38 -23 15 C-21.35 15 -19.7 15 -18 15 C-18.0825 13.96875 -18.165 12.9375 -18.25 11.875 C-17.9555324 7.31075222 -16.96055728 5.44064765 -14 2 C-9.79442305 -0.64350551 -4.83239638 -0.42932447 0 0 Z " fill="#013666" transform="translate(88,645)"/>
<path d="M0 0 C0.78503906 -0.00257813 1.57007813 -0.00515625 2.37890625 -0.0078125 C4.4375 0.125 4.4375 0.125 6.4375 1.125 C6.4375 3.435 6.4375 5.745 6.4375 8.125 C4.1275 8.455 1.8175 8.785 -0.5625 9.125 C-1.2225 10.775 -1.8825 12.425 -2.5625 14.125 C0.4075 14.125 3.3775 14.125 6.4375 14.125 C6.4375 16.765 6.4375 19.405 6.4375 22.125 C3.4675 22.125 0.4975 22.125 -2.5625 22.125 C-2.5625 34.005 -2.5625 45.885 -2.5625 58.125 C-5.8625 58.125 -9.1625 58.125 -12.5625 58.125 C-12.5625 46.245 -12.5625 34.365 -12.5625 22.125 C-14.2125 22.125 -15.8625 22.125 -17.5625 22.125 C-17.5625 19.815 -17.5625 17.505 -17.5625 15.125 C-15.9125 15.125 -14.2625 15.125 -12.5625 15.125 C-12.665625 13.92875 -12.76875 12.7325 -12.875 11.5 C-12.88701741 8.1170977 -12.38971114 6.32049784 -10.25 3.6875 C-6.82433024 0.42116372 -4.55848598 -0.01501972 0 0 Z " fill="#003767" transform="translate(1069.5625,644.875)"/>
<path d="M0 0 C1 1 1 1 1.0625 4.5625 C1.041875 5.696875 1.02125 6.83125 1 8 C-0.423125 8.0928125 -0.423125 8.0928125 -1.875 8.1875 C-2.90625 8.455625 -3.9375 8.72375 -5 9 C-6.45291273 11.46255685 -6.45291273 11.46255685 -7 14 C-4.03 14 -1.06 14 2 14 C2 16.64 2 19.28 2 22 C-0.97 22 -3.94 22 -7 22 C-7 33.88 -7 45.76 -7 58 C-10.3 58 -13.6 58 -17 58 C-17 46.12 -17 34.24 -17 22 C-18.65 22 -20.3 22 -22 22 C-22 19.69 -22 17.38 -22 15 C-20.35 15 -18.7 15 -17 15 C-17.0928125 13.4221875 -17.0928125 13.4221875 -17.1875 11.8125 C-16.98714118 7.73853741 -16.52615379 6.13591505 -14 3 C-9.77509236 -0.60359769 -5.31521658 -0.57105633 0 0 Z " fill="#013666" transform="translate(1099,645)"/>
<path d="M0 0 C3.96 0 7.92 0 12 0 C12 18.81 12 37.62 12 57 C8.04 57 4.08 57 0 57 C0 38.19 0 19.38 0 0 Z " fill="#003668" transform="translate(3,646)"/>
<path d="M0 0 C0 2.97 0 5.94 0 9 C-0.68707031 9.12117187 -1.37414062 9.24234375 -2.08203125 9.3671875 C-2.98308594 9.53476562 -3.88414062 9.70234375 -4.8125 9.875 C-5.70582031 10.03742187 -6.59914063 10.19984375 -7.51953125 10.3671875 C-10.22727846 10.91188449 -10.22727846 10.91188449 -13 13 C-13.51254128 16.2001106 -13.51254128 16.2001106 -13.51171875 19.9765625 C-13.52966995 20.66181 -13.54762115 21.3470575 -13.56611633 22.05307007 C-13.62033708 24.24365059 -13.65415053 26.4340119 -13.6875 28.625 C-13.72066294 30.10940559 -13.75515165 31.59378221 -13.79101562 33.078125 C-13.87606815 36.71853912 -13.94282356 40.35902944 -14 44 C-17.63 44 -21.26 44 -25 44 C-25 29.81 -25 15.62 -25 1 C-22.03 1 -19.06 1 -16 1 C-15.67 1.99 -15.34 2.98 -15 4 C-14.50371094 3.71125 -14.00742187 3.4225 -13.49609375 3.125 C-8.68992145 0.498477 -5.4662716 -0.45552263 0 0 Z " fill="#013766" transform="translate(927,659)"/>
<path d="M0 0 C0 2.97 0 5.94 0 9 C-3.3203125 9.68359375 -3.3203125 9.68359375 -6.640625 10.3671875 C-9.35576535 11.01101582 -9.35576535 11.01101582 -13 13 C-13.33 23.23 -13.66 33.46 -14 44 C-17.3 44 -20.6 44 -24 44 C-24 29.81 -24 15.62 -24 1 C-16 1 -16 1 -13 3 C-11.7315625 2.2575 -11.7315625 2.2575 -10.4375 1.5 C-6.66203168 -0.14747708 -4.07182452 -0.24430947 0 0 Z " fill="#023665" transform="translate(162,659)"/>
<path d="M0 0 C2.64 0 5.28 0 8 0 C10 2 10 2 10.24050903 3.83499146 C10.23606781 4.57667572 10.23162659 5.31835999 10.22705078 6.08251953 C10.22682419 7.34360031 10.22682419 7.34360031 10.22659302 8.63015747 C10.21627045 9.53853363 10.20594788 10.44690979 10.1953125 11.3828125 C10.1924826 12.31221649 10.18965271 13.24162048 10.18673706 14.19918823 C10.17552069 17.1745885 10.1504136 20.14969035 10.125 23.125 C10.11497208 25.13931858 10.1058459 27.15364186 10.09765625 29.16796875 C10.07557661 34.11209456 10.04103693 39.05599665 10 44 C6.7 44 3.4 44 0 44 C0 29.48 0 14.96 0 0 Z " fill="#003768" transform="translate(751,659)"/>
<path d="M0 0 C2.64 0 5.28 0 8 0 C10 2 10 2 10.24050903 3.83499146 C10.23606781 4.57667572 10.23162659 5.31835999 10.22705078 6.08251953 C10.22682419 7.34360031 10.22682419 7.34360031 10.22659302 8.63015747 C10.21627045 9.53853363 10.20594788 10.44690979 10.1953125 11.3828125 C10.1924826 12.31221649 10.18965271 13.24162048 10.18673706 14.19918823 C10.17552069 17.1745885 10.1504136 20.14969035 10.125 23.125 C10.11497208 25.13931858 10.1058459 27.15364186 10.09765625 29.16796875 C10.07557661 34.11209456 10.04103693 39.05599665 10 44 C6.7 44 3.4 44 0 44 C0 29.48 0 14.96 0 0 Z " fill="#003768" transform="translate(303,659)"/>
<path d="M0 0 C2.64 0 5.28 0 8 0 C10.04514127 3.06771191 10.24827274 3.65568048 10.22705078 7.10424805 C10.22682419 8.3351844 10.22682419 8.3351844 10.22659302 9.59098816 C10.21627045 10.47232925 10.20594788 11.35367035 10.1953125 12.26171875 C10.1924826 13.16751175 10.18965271 14.07330475 10.18673706 15.00654602 C10.17553964 17.90033158 10.15043589 20.79380794 10.125 23.6875 C10.11496963 25.64908407 10.10584388 27.610673 10.09765625 29.57226562 C10.07560173 34.3816296 10.04107489 39.19076237 10 44 C6.7 44 3.4 44 0 44 C0 29.48 0 14.96 0 0 Z " fill="#003668" transform="translate(1105,659)"/>
<path d="M0 0 C7 0 7 0 10 2 C10.36076355 3.83499146 10.36076355 3.83499146 10.34057617 6.08251953 C10.34034958 6.92324005 10.34012299 7.76396057 10.33988953 8.63015747 C10.32440567 9.53853363 10.30892181 10.44690979 10.29296875 11.3828125 C10.28872391 12.31221649 10.28447906 13.24162048 10.28010559 14.19918823 C10.26328012 17.17475056 10.22562103 20.14964156 10.1875 23.125 C10.17245816 25.13931315 10.15876888 27.15363689 10.14648438 29.16796875 C10.11336394 34.11223879 10.06155529 39.05600549 10 44 C6.7 44 3.4 44 0 44 C0 29.48 0 14.96 0 0 Z " fill="#003669" transform="translate(661,659)"/>
<path d="M0 0 C2.9059609 0.52158273 3.63729735 1.14493424 5.4375 3.4375 C6.24192286 7.64889026 5.85790824 11.44954065 4.1875 15.375 C2.31191407 17.58551199 1.18483868 18.54865513 -1.5625 19.4375 C-4.3125 19.5625 -4.3125 19.5625 -6.5625 19.4375 C-6.5625 17.4575 -6.5625 15.4775 -6.5625 13.4375 C-5.2425 13.1075 -3.9225 12.7775 -2.5625 12.4375 C-2.5625 11.7775 -2.5625 11.1175 -2.5625 10.4375 C-3.5525 10.1075 -4.5425 9.7775 -5.5625 9.4375 C-6.3125 7.1875 -6.3125 7.1875 -6.5625 4.4375 C-4.58509496 1.62350051 -3.41187607 0.58251543 0 0 Z " fill="#013767" transform="translate(937.5625,644.5625)"/>
<path d="M0 0 C2 3 2 3 1.75 6.0625 C1 9 1 9 -1 11 C-4.10347254 11.33015665 -6.15781176 11.50531294 -8.875 9.875 C-10.52854531 7.11909116 -10.39365568 5.14924548 -10 2 C-7.65569181 -2.27491494 -4.20074737 -1.06928115 0 0 Z " fill="#013566" transform="translate(1114,646)"/>
<path d="M0 0 C2 3 2 3 1.75 6.0625 C1 9 1 9 -1 11 C-4.10347254 11.33015665 -6.15781176 11.50531294 -8.875 9.875 C-10.52854531 7.11909116 -10.39365568 5.14924548 -10 2 C-7.65569181 -2.27491494 -4.20074737 -1.06928115 0 0 Z " fill="#013765" transform="translate(670,646)"/>
<path d="M0 0 C2.9375 0.75 2.9375 0.75 4.9375 2.75 C5.26765665 5.85347254 5.44281294 7.90781176 3.8125 10.625 C1.02643958 12.29663625 -0.88238862 12.21376624 -4.0625 11.75 C-6 10.125 -6 10.125 -7.0625 7.75 C-6.9375 4.625 -6.9375 4.625 -6.0625 1.75 C-3.0625 -0.25 -3.0625 -0.25 0 0 Z " fill="#013766" transform="translate(309.0625,645.25)"/>
<path d="M0 0 C2.9375 0.8125 2.9375 0.8125 4.9375 3.8125 C5.29134949 6.64329592 5.3295891 8.18080089 3.8125 10.625 C1.06594028 12.36448782 -0.88096974 12.21019128 -4.0625 11.8125 C-6 10.75 -6 10.75 -7.0625 8.8125 C-6.9375 5.25 -6.9375 5.25 -6.0625 1.8125 C-3.0625 -0.1875 -3.0625 -0.1875 0 0 Z " fill="#013565" transform="translate(757.0625,645.1875)"/>
<path d="M0 0 C0 3 0 3 -1.96875 5.26171875 C-2.8040625 6.06222656 -3.639375 6.86273438 -4.5 7.6875 C-5.3353125 8.49574219 -6.170625 9.30398437 -7.03125 10.13671875 C-8.00578125 11.05904297 -8.00578125 11.05904297 -9 12 C-9.99 11.67 -10.98 11.34 -12 11 C-8.04 7.37 -4.08 3.74 0 0 Z " fill="#042E55" transform="translate(310,195)"/>
</svg>
