<?xml version="1.0" standalone="no"?>
<!DOCTYPE svg PUBLIC "-//W3C//DTD SVG 20010904//EN"
 "http://www.w3.org/TR/2001/REC-SVG-20010904/DTD/svg10.dtd">
<svg version="1.0" xmlns="http://www.w3.org/2000/svg"
 width="4096.000000pt" height="4096.000000pt" viewBox="0 0 4096.000000 4096.000000"
 preserveAspectRatio="xMidYMid meet">

<g transform="translate(0.000000,4096.000000) scale(0.100000,-0.100000)"
fill="#005fb4" stroke="none">
<path d="M31555 25914 c-33 -2 -139 -8 -235 -14 -1087 -66 -1998 -336 -2670
-791 -162 -110 -266 -194 -414 -339 -556 -541 -846 -1234 -885 -2119 -23 -509
44 -889 219 -1248 177 -363 449 -658 845 -918 316 -208 622 -353 1340 -635
764 -300 1029 -434 1274 -640 244 -207 364 -498 332 -802 -43 -401 -280 -678
-738 -862 -493 -198 -1284 -271 -2060 -191 -693 73 -1400 253 -1824 466 -56
27 -103 49 -105 46 -6 -6 -624 -2096 -624 -2110 0 -24 489 -174 875 -267 557
-135 1050 -213 1715 -272 196 -17 1013 -17 1265 0 1596 110 2717 506 3443
1216 534 521 817 1165 883 2006 14 182 6 565 -16 720 -79 571 -313 1036 -714
1422 -392 377 -829 623 -1821 1023 -404 163 -509 208 -715 310 -254 125 -383
211 -516 344 -92 92 -112 118 -153 201 -63 128 -80 212 -73 365 28 599 475
890 1469 956 237 15 913 7 1108 -15 551 -60 1008 -174 1507 -374 l173 -69 9
31 c20 73 612 2068 617 2080 6 17 -110 67 -304 130 -522 171 -1172 278 -2002
331 -226 15 -1061 28 -1205 19z"/>
<path d="M7780 25595 c0 -2 -495 -2303 -1100 -5111 -605 -2809 -1100 -5111
-1100 -5116 0 -4 584 -8 1298 -8 l1297 0 709 3545 709 3545 42 0 42 0 1063
-3545 1064 -3545 1695 0 1696 0 1099 5108 c605 2809 1102 5113 1104 5120 3 9
-260 12 -1296 12 l-1301 0 -6 -32 c-4 -18 -322 -1612 -709 -3543 l-702 -3510
-41 -3 -42 -3 -17 58 c-10 32 -470 1626 -1024 3543 l-1007 3485 -1737 3 c-955
1 -1736 0 -1736 -3z"/>
<path d="M18341 25548 c-6 -29 -467 -2333 -1025 -5120 l-1013 -5068 1337 0
c1061 0 1339 3 1342 13 3 6 216 999 474 2204 l469 2193 1618 0 c1197 0 1617
-3 1617 -11 0 -7 -99 -514 -220 -1128 -486 -2474 -640 -3259 -640 -3265 0 -3
620 -6 1378 -6 l1377 0 112 543 c95 460 504 2429 913 4397 60 289 330 1589
600 2890 270 1301 494 2375 497 2388 l5 22 -1379 0 -1379 0 -423 -1887 c-234
-1039 -428 -1907 -433 -1930 l-10 -43 -1579 0 c-868 0 -1579 2 -1579 4 0 9
781 3832 785 3844 3 9 -284 12 -1415 12 l-1419 0 -10 -52z"/>
</g>
</svg>
