<?xml version="1.0" encoding="UTF-8"?>
<svg version="1.1" xmlns="http://www.w3.org/2000/svg" width="1200" height="628">
<path d="M0 0 C396 0 792 0 1200 0 C1200 207.24 1200 414.48 1200 628 C804 628 408 628 0 628 C0 420.76 0 213.52 0 0 Z " fill="#565B5C" transform="translate(0,0)"/>
<path d="M0 0 C35.330625 -0.061875 35.330625 -0.061875 71.375 -0.125 C78.78114746 -0.14320801 86.18729492 -0.16141602 93.81787109 -0.18017578 C102.94067383 -0.18920898 102.94067383 -0.18920898 107.22671509 -0.19088745 C110.18678862 -0.1927325 113.14678863 -0.20015345 116.10684204 -0.21115112 C152.59018367 -0.34065885 192.46519995 1.07196798 221 27 C221.90363281 27.81082031 222.80726563 28.62164062 223.73828125 29.45703125 C242.37376746 47.06150855 249.68292151 69.58536601 250.40283203 94.80053711 C250.6848196 119.80806843 244.52214307 141.00992676 228 160 C227.30390625 160.80824219 226.6078125 161.61648437 225.890625 162.44921875 C217.42419448 171.56813733 205.55517298 179.37793081 194 184 C193.34 184 192.68 184 192 184 C192.43231934 184.61818604 192.86463867 185.23637207 193.31005859 185.87329102 C207.87369471 206.71302265 207.87369471 206.71302265 214.35229492 216.51171875 C219.224802 223.87345237 224.23902288 231.13813279 229.23193359 238.41845703 C232.95806288 243.85895566 236.66843772 249.31021997 240.37988281 254.76074219 C243.52311223 259.37485228 246.67364787 263.98364352 249.83984375 268.58203125 C250.44570313 269.46310547 251.0515625 270.34417969 251.67578125 271.25195312 C252.82878517 272.92777147 253.98366095 274.60230385 255.140625 276.27539062 C255.64980469 277.01595703 256.15898438 277.75652344 256.68359375 278.51953125 C257.13275146 279.17026611 257.58190918 279.82100098 258.04467773 280.49145508 C259 282 259 282 259 283 C247.40414587 283.2552338 235.80896307 283.45050059 224.21086884 283.56993389 C218.82478916 283.62726757 213.44063526 283.7049802 208.05566406 283.82983398 C202.85538429 283.94964651 197.65695228 284.01518349 192.45539856 284.04364967 C190.47446092 284.06392505 188.49362095 284.1035233 186.51347351 284.16303062 C171.0804209 284.60823995 171.0804209 284.60823995 166.19046021 280.828125 C164.08509879 277.98775501 162.54454727 275.17577571 161 272 C159.90822416 270.33232491 158.79273546 268.67988486 157.65185547 267.04541016 C156.55430074 265.37837943 155.45949068 263.70953896 154.3671875 262.0390625 C153.76802521 261.12780609 153.16886292 260.21654968 152.55154419 259.27767944 C150.65684266 256.39509869 148.76574202 253.51017904 146.875 250.625 C144.394325 246.84563394 141.91218255 243.06723324 139.4296875 239.2890625 C138.5120462 237.89182953 138.5120462 237.89182953 137.5758667 236.46636963 C131.66896294 227.47991942 125.70737467 218.53028253 119.73025513 209.59042358 C117.15085523 205.72871658 114.57598882 201.86398323 112 198 C95.17 197.505 95.17 197.505 78 197 C78 225.38 78 253.76 78 283 C52.26 283 26.52 283 0 283 C0 189.61 0 96.22 0 0 Z " fill="#FEFEFE" transform="translate(385,62)"/>
<path d="M0 0 C25.08 0 50.16 0 76 0 C78.784375 6.6 81.56875 13.2 84.4375 20 C90.44838153 34.24360364 96.47414524 48.480625 102.53170776 62.70443726 C109.07709698 78.07467843 115.56053296 93.4697423 122.00177002 108.88391113 C127.78630107 122.72590291 133.59854164 136.55587722 139.4375 150.375 C140.02620377 151.76833557 140.02620377 151.76833557 140.62680054 153.18981934 C142.61600169 157.8973999 144.60571597 162.60476336 146.59570312 167.31201172 C150.62888003 176.85275221 154.65819992 186.39512174 158.6875 195.9375 C159.27843948 197.33686295 159.27843948 197.33686295 159.88131714 198.76449585 C164.04631681 208.6276272 168.2088529 218.49178565 172.36328125 228.359375 C172.71198776 229.18757751 173.06069427 230.01578003 173.41996765 230.86907959 C175.10435489 234.87021754 176.78775471 238.87176691 178.46948242 242.87402344 C181.43784238 249.93556279 184.4179006 256.99145124 187.4375 264.03125 C187.96428576 265.26273689 188.49098144 266.49426232 189.01757812 267.72583008 C189.97520344 269.96202397 190.93714236 272.19637775 191.90429688 274.4284668 C192.31744141 275.39437744 192.73058594 276.36028809 193.15625 277.35546875 C193.51525391 278.18715576 193.87425781 279.01884277 194.24414062 279.87573242 C195 282 195 282 195 285 C167.61 285 140.22 285 112 285 C107.49885296 275.99770591 107.49885296 275.99770591 106.07714844 272.45166016 C105.75711853 271.65788971 105.43708862 270.86411926 105.10736084 270.04629517 C104.77802551 269.21890839 104.44869019 268.39152161 104.109375 267.5390625 C103.75989807 266.66728363 103.41042114 265.79550476 103.050354 264.89730835 C102.31931031 263.07105069 101.58998187 261.24410557 100.86230469 259.41650391 C99.7441051 256.61020583 98.61849663 253.80695795 97.4921875 251.00390625 C96.78080716 249.22413528 96.06985414 247.44419342 95.359375 245.6640625 C95.02194275 244.82453033 94.6845105 243.98499817 94.33685303 243.12002563 C94.02943176 242.34516815 93.7220105 241.57031067 93.40527344 240.77197266 C93.13309998 240.08994781 92.86092651 239.40792297 92.58050537 238.70523071 C92 237 92 237 92 235 C55.7 235 19.4 235 -18 235 C-18.99 237.97 -19.98 240.94 -21 244 C-21.55071091 245.49365843 -22.11361974 246.98304219 -22.70166016 248.46240234 C-22.99851715 249.21282806 -23.29537415 249.96325378 -23.60122681 250.73641968 C-23.91071259 251.51176056 -24.22019836 252.28710144 -24.5390625 253.0859375 C-24.86538666 253.90953766 -25.19171082 254.73313782 -25.52792358 255.58169556 C-26.55798839 258.18038102 -27.59131741 260.77775173 -28.625 263.375 C-29.6652452 265.99389667 -30.70479259 268.6130674 -31.74349976 271.23257446 C-32.38686631 272.85454202 -33.03121652 274.47611983 -33.67666626 276.09725952 C-34.84888046 279.04849597 -35.99557922 281.98673766 -37 285 C-64.39 285 -91.78 285 -120 285 C-110.81325571 262.03313927 -110.81325571 262.03313927 -107.73046875 254.78515625 C-107.37174179 253.93703873 -107.01301483 253.0889212 -106.64341736 252.21510315 C-105.49322218 249.4968122 -104.34036346 246.7796602 -103.1875 244.0625 C-102.36225617 242.11320792 -101.53722863 240.16382426 -100.71240234 238.21435547 C-99.00199099 234.17232755 -97.2906657 230.13068856 -95.57861328 226.08935547 C-91.41995304 216.27105444 -87.27258437 206.44798362 -83.125 196.625 C-82.72445404 195.67658234 -82.32390808 194.72816467 -81.91122437 193.75100708 C-77.09229055 182.34033691 -72.28429791 170.92523483 -67.5 159.5 C-59.86468034 141.26632771 -52.16523785 123.05974239 -44.47167969 104.85058594 C-40.87201787 96.33054855 -37.27474742 87.80950162 -33.67733765 79.28851318 C-32.50483733 76.51145716 -31.33215821 73.73447672 -30.15942383 70.95751953 C-26.45516715 62.18578808 -22.75215877 53.413535 -19.05300903 44.63964844 C-17.30970013 40.50494345 -15.56576279 36.37050365 -13.82177734 32.23608398 C-12.99219892 30.26893126 -12.16292695 28.30164927 -11.33398438 26.33422852 C-10.18307281 23.60269721 -9.03109636 20.8716172 -7.87890625 18.140625 C-7.544319 17.34573669 -7.20973175 16.55084839 -6.86500549 15.73187256 C-4.63800484 10.45714798 -2.326334 5.2342515 0 0 Z " fill="#FEFEFE" transform="translate(969,60)"/>
<path d="M0 0 C22.11 0 44.22 0 67 0 C67 93.39 67 186.78 67 283 C29.05 283 -8.9 283 -48 283 C-68 263 -68 263 -75 255 C-77.29315346 253.09766952 -77.29315346 253.09766952 -79.55834961 251.7722168 C-94.29853683 242.24661856 -112.04771618 229.51754935 -116.63825989 211.49404907 C-122.1195981 182.96590458 -118.49341916 151.72886082 -116 123 C-112.13171035 126.26575984 -108.33269437 129.54092382 -104.76464844 133.13769531 C-104.01407166 133.89157532 -103.26349487 134.64545532 -102.49017334 135.42218018 C-101.31167816 136.61312286 -101.31167816 136.61312286 -100.109375 137.828125 C-99.28294495 138.65834167 -98.45651489 139.48855835 -97.6050415 140.34393311 C-94.98424866 142.97687044 -92.36673246 145.61302762 -89.75 148.25 C-86.28931872 151.73723382 -82.82537092 155.22117434 -79.359375 158.703125 C-78.56561462 159.50518372 -77.77185425 160.30724243 -76.95404053 161.13360596 C-76.21607239 161.87487732 -75.47810425 162.61614868 -74.71777344 163.37988281 C-74.07048279 164.03241028 -73.42319214 164.68493774 -72.75628662 165.35723877 C-70.89462441 167.18817087 -70.89462441 167.18817087 -68 169 C-68 169.66 -68 170.32 -68 171 C-67.01 171.33 -66.02 171.66 -65 172 C-64.443125 172.70125 -63.88625 173.4025 -63.3125 174.125 C-60.35236413 177.97558702 -60.35236413 177.97558702 -53 184 C-35.84 201.16 -18.68 218.32 -1 236 C-0.67 158.12 -0.34 80.24 0 0 Z " fill="#B4D134" transform="translate(260,62)"/>
<path d="M0 0 C114 0 114 0 155.125 28.25 C183.81511213 61.9662211 188.66274579 88.11389203 185.48095703 130.72753906 C184.67054389 140.53276905 183.4665182 150.27270231 182 160 C176.16625129 155.15824908 170.81488393 149.94446318 165.47216797 144.56982422 C164.04569871 143.14111354 162.61922931 141.71240299 161.19275498 140.28369737 C159.6721832 138.75977173 158.15286542 137.23460609 156.63390732 135.70907211 C153.45908594 132.52064698 150.2803809 129.33611242 147.10110474 126.15213013 C140.35609236 119.39605477 133.61533044 112.63574589 126.875 105.875 C119.58976071 98.56771127 112.30378198 91.26116886 105.01291382 83.95949566 C101.85504831 80.79666045 98.69963407 77.63140628 95.54610038 74.46425223 C94.056534 72.96901275 92.56581957 71.47492934 91.07458496 69.98135376 C89.26001411 68.16392087 87.44723761 66.34469392 85.6366272 64.52331543 C84.42985321 63.3164357 84.42985321 63.3164357 83.19869995 62.08517456 C82.50446363 61.38871763 81.81022732 60.6922607 81.09495354 59.97469902 C78.9568801 57.89422337 78.9568801 57.89422337 76.23758125 55.86967659 C75.49917944 55.25268332 74.76077763 54.63569004 74 54 C74 53.34 74 52.68 74 52 C73.38125 51.71125 72.7625 51.4225 72.125 51.125 C70 50 70 50 68 48 C67.67 125.55 67.34 203.1 67 283 C44.89 283 22.78 283 0 283 C0 189.61 0 96.22 0 0 Z " fill="#FDFDFD" transform="translate(45,62)"/>
<path d="M0 0 C26.07 0 52.14 0 79 0 C79 70.62 79 141.24 79 214 C111.01 214 143.02 214 176 214 C174.07699902 219.76900294 172.1332968 225.33369067 169.77734375 230.91015625 C169.47236465 231.63955917 169.16738556 232.3689621 168.85316467 233.12046814 C167.88431368 235.43576546 166.91105649 237.74917795 165.9375 240.0625 C165.31284692 241.55260692 164.68849648 243.04284075 164.06445312 244.53320312 C162.04413753 249.35595853 160.022023 254.1779602 158 259 C154.7 266.92 151.4 274.84 148 283 C99.16 283 50.32 283 0 283 C0 189.61 0 96.22 0 0 Z " fill="#FDFDFD" transform="translate(674,62)"/>
<path d="M0 0 C14.1075 -0.12375 14.1075 -0.12375 28.5 -0.25 C31.43455078 -0.28641602 34.36910156 -0.32283203 37.39257812 -0.36035156 C72.69970696 -0.61660274 72.69970696 -0.61660274 85 10 C93.01181575 19.48679438 94.03149912 28.66251402 93.28125 40.67822266 C92.30450707 48.741439 87.63510992 55.5867597 81.34375 60.53515625 C72.99788877 65.75131952 64.51072016 68.13383967 54.71923828 68.11352539 C53.48149658 68.11340454 52.24375488 68.11328369 50.96850586 68.11315918 C49.03890015 68.10548523 49.03890015 68.10548523 47.0703125 68.09765625 C45.87720459 68.09664917 44.68409668 68.09564209 43.45483398 68.09460449 C39.01154617 68.08938506 34.56827209 68.0754238 30.125 68.0625 C15.213125 68.0315625 15.213125 68.0315625 0 68 C0 45.56 0 23.12 0 0 Z " fill="#575B5C" transform="translate(463,130)"/>
<path d="M0 0 C1.58277085 2.37415628 2.57399025 4.19760341 3.59716797 6.79589844 C4.0499688 7.93838043 4.0499688 7.93838043 4.51191711 9.10394287 C4.83540634 9.93073547 5.15889557 10.75752808 5.4921875 11.609375 C6.00588142 12.91023041 6.00588142 12.91023041 6.529953 14.23736572 C7.64866899 17.07346899 8.76209097 19.9116135 9.875 22.75 C10.64104794 24.69797437 11.4072434 26.64589074 12.17358398 28.59375 C14.0924523 33.47463541 16.00611787 38.35754414 17.91851807 43.2409668 C18.9349352 45.8340093 19.95388985 48.42603428 20.97412109 51.01757812 C22.41520356 54.67829377 23.85136368 58.34089019 25.28253174 62.00549316 C25.80059076 63.3302551 26.32023299 64.65439906 26.8414917 65.97790527 C27.55677333 67.79585242 28.26491962 69.61660228 28.97265625 71.4375 C29.36718994 72.44683594 29.76172363 73.45617187 30.16821289 74.49609375 C31 77 31 77 31 80 C10.54 80 -9.92 80 -31 80 C-30.2121236 76.06061802 -29.31464761 72.93605155 -27.875 69.2421875 C-27.42358643 68.07896973 -26.97217285 66.91575195 -26.50708008 65.71728516 C-26.00491925 64.43644532 -25.502553 63.15568601 -25 61.875 C-24.47854781 60.53833136 -23.95731333 59.20157778 -23.4362793 57.86474609 C-21.96517994 54.09567312 -20.48713378 50.32935731 -19.00726318 46.5637207 C-17.93167617 43.82609984 -16.85763388 41.08787577 -15.78369141 38.34960938 C-13.84841716 33.41705315 -11.90918295 28.48606944 -9.96704102 23.55621338 C-9.19649263 21.59990199 -8.4266373 19.64331749 -7.6574707 17.6864624 C-6.57251647 14.92792473 -5.48404987 12.17080006 -4.39453125 9.4140625 C-4.06588577 8.5769574 -3.7372403 7.73985229 -3.39863586 6.87738037 C-1.11450396 1.11450396 -1.11450396 1.11450396 0 0 Z " fill="#595D5E" transform="translate(1006,154)"/>
<path d="M0 0 C26 0 26 0 36 5 C43.51030279 13.02825471 42.74366792 22.09280409 42.50390625 32.5390625 C42.13224894 38.76176017 40.75868451 43.78908233 36.8125 48.75 C24.5467179 58.56262568 17.96849836 55 0 55 C0 36.85 0 18.7 0 0 Z " fill="#F8F9F9" transform="translate(641,404)"/>
<path d="M0 0 C5.29064679 4.55241701 9.37824278 10.24872173 10.29980469 17.29101562 C10.43817777 19.82617219 10.45855984 22.33633196 10.4375 24.875 C10.4674707 26.14537109 10.4674707 26.14537109 10.49804688 27.44140625 C10.49223057 35.0375023 8.23546208 41.28248218 3.6875 47.375 C-1.55547625 52.49604657 -5.78405468 53.20958235 -12.9375 53.5 C-20.8276921 53.32391707 -24.80066024 51.11287112 -30.3125 45.75 C-34.37553877 39.12875164 -35.56175022 32.23750521 -35.5 24.5625 C-35.49427979 23.73210205 -35.48855957 22.9017041 -35.48266602 22.04614258 C-35.25981436 14.3888995 -33.55462989 8.84612573 -28.28515625 3.14453125 C-20.24015602 -4.26672717 -9.68532862 -5.3021872 0 0 Z " fill="#F8FAFA" transform="translate(729,498)"/>
<path d="M0 0 C29.33333333 0 29.33333333 0 35.75 5.25 C41.74151655 12.57296467 42.63768196 17.59233693 42.5 26.9375 C42.51546875 27.98357422 42.5309375 29.02964844 42.546875 30.10742188 C42.50856085 37.727149 41.2562541 43.23674143 36.21875 49.05859375 C35.6515625 49.51363281 35.084375 49.96867188 34.5 50.4375 C33.9328125 50.91058594 33.365625 51.38367188 32.78125 51.87109375 C24.15984521 57.3350981 5.17756921 54 0 54 C0 36.18 0 18.36 0 0 Z " fill="#F8F9F9" transform="translate(413,496)"/>
<path d="M0 0 C5.18398481 3.20560693 8.32391174 7.06831926 10.33984375 12.828125 C12.87158863 24.99248503 11.72245859 36.24167518 5.25 46.875 C-0.02358515 51.8556082 -4.73381906 53.28243307 -12 53.5625 C-19.83165933 53.32771792 -23.96036161 51.12179078 -29.3125 45.625 C-33.57336073 38.99699442 -34.47975149 33.81992972 -34.375 26.0625 C-34.38660156 25.20720703 -34.39820313 24.35191406 -34.41015625 23.47070312 C-34.36932016 14.54801834 -32.00783944 8.22147547 -25.8828125 1.69921875 C-18.48605096 -4.97628181 -8.37514809 -4.49523255 0 0 Z " fill="#F9FAFA" transform="translate(982,498)"/>
<path d="M0 0 C29.8490566 0 29.8490566 0 37.4375 7.3125 C43.51550596 14.46411385 42.64035447 25.03719136 42.1953125 33.84716797 C41.63140139 40.0628782 39.7803078 45.8201302 35.0625 50.0625 C23.32956082 57.48537989 17.31054554 54 0 54 C0 36.18 0 18.36 0 0 Z " fill="#FBFCFC" transform="translate(204,496)"/>
<path d="M0 0 C4.63781003 3.47237068 7.45691376 8.26136629 9.26953125 13.69921875 C9.55185596 17.23587123 9.54716879 20.77754415 9.58203125 24.32421875 C9.61103516 25.28457031 9.64003906 26.24492188 9.66992188 27.234375 C9.73441133 34.54648719 8.65212383 41.06049066 3.51879883 46.58251953 C-2.69621966 52.3090802 -8.3336668 53.09892149 -16.6328125 52.94921875 C-23.02295788 52.43349453 -26.64293352 49.43215428 -30.73046875 44.69921875 C-35.34135121 38.39541081 -35.33843853 32.92307414 -35.23046875 25.26171875 C-35.2459375 24.16794922 -35.26140625 23.07417969 -35.27734375 21.94726562 C-35.23998569 14.1907987 -34.07364638 8.65302243 -29.01953125 2.67578125 C-20.07619389 -4.58805613 -10.19596854 -5.60376853 0 0 Z " fill="#F8F9F9" transform="translate(335.73046875,498.30078125)"/>
<path d="M0 0 C4.98575552 3.98860442 8.42720457 9.19078358 9.38598633 15.56689453 C9.53609075 18.36766648 9.54606495 21.13329647 9.5 23.9375 C9.51546875 24.87529297 9.5309375 25.81308594 9.546875 26.77929688 C9.50478986 34.34936097 7.9618719 40.54353528 2.96484375 46.375 C2.29582031 46.91125 1.62679687 47.4475 0.9375 48 C0.26589844 48.556875 -0.40570313 49.11375 -1.09765625 49.6875 C-6.7146575 53.56288484 -14.4948631 52.69246084 -21 52 C-26.1065756 50.03862666 -29.6534129 47.0321372 -32.5 42.375 C-35.27638059 36.12814368 -35.24882462 30.51657074 -35.3125 23.75 C-35.34150391 22.73808594 -35.37050781 21.72617187 -35.40039062 20.68359375 C-35.46392124 13.14788523 -34.39899464 7.50035631 -29.03515625 1.9765625 C-19.11896329 -4.81750238 -10.75157217 -6.39226025 0 0 Z " fill="#F8F9F9" transform="translate(258,407)"/>
<path d="M0 0 C27 0 27 0 36 4 C40.99253004 9.24215654 41.34432954 12.95319114 41.28515625 20.01171875 C40.80237441 25.07100791 38.5383259 27.71806175 34.75 30.875 C33.88375 31.431875 33.88375 31.431875 33 32 C34.91035995 38.13326089 37.21771749 43.83137959 40.01171875 49.6171875 C41 52 41 52 41 55 C37.7 55 34.4 55 31 55 C27.40272079 48.11976695 24.23313726 41.44379088 22 34 C18.04 34 14.08 34 10 34 C10 40.93 10 47.86 10 55 C6.7 55 3.4 55 0 55 C0 36.85 0 18.7 0 0 Z " fill="#F8F9F9" transform="translate(457,404)"/>
<path d="M0 0 C27 0 27 0 36 4 C40.80919183 9.04965142 41.29463258 12.45623053 41.21484375 19.23828125 C40.81865221 24.33114337 39.07861453 27.04680576 35.3125 30.375 C34.549375 30.91125 33.78625 31.4475 33 32 C33.73888642 37.39074881 36.18389884 41.83002779 38.56054688 46.6484375 C41 51.69906509 41 51.69906509 41 55 C37.7 55 34.4 55 31 55 C27.40272079 48.11976695 24.23313726 41.44379088 22 34 C18.04 34 14.08 34 10 34 C10 40.93 10 47.86 10 55 C6.7 55 3.4 55 0 55 C0 36.85 0 18.7 0 0 Z " fill="#F7F8F9" transform="translate(359,496)"/>
<path d="M0 0 C11 0 11 0 13.40698242 1.81323242 C13.88498291 2.65217041 14.3629834 3.4911084 14.85546875 4.35546875 C15.41556641 5.28939453 15.97566406 6.22332031 16.55273438 7.18554688 C17.09220703 8.17619141 17.63167969 9.16683594 18.1875 10.1875 C19.01411133 11.59805664 19.01411133 11.59805664 19.85742188 13.03710938 C21.59687526 16.01010329 23.29790255 19.00546245 25 22 C27.64 26.29 30.28 30.58 33 35 C33.33 23.45 33.66 11.9 34 0 C37.3 0 40.6 0 44 0 C44 18.15 44 36.3 44 55 C40.37 55 36.74 55 33 55 C30.39457335 52.1873235 29.13360227 50.3851841 27.5 47.0625 C26.60059589 45.41896082 25.6981645 43.77707525 24.79296875 42.13671875 C24.11500244 40.86707275 24.11500244 40.86707275 23.42333984 39.57177734 C21.0973984 35.36912431 18.45547783 31.38281047 15.8125 27.375 C14.224375 24.94125 12.63625 22.5075 11 20 C10.67 31.55 10.34 43.1 10 55 C6.7 55 3.4 55 0 55 C0 36.85 0 18.7 0 0 Z " fill="#F6F7F8" transform="translate(45,404)"/>
<path d="M0 0 C3.63 0 7.26 0 11 0 C13.76888488 2.97243185 15.23818873 5.00985365 17.0625 8.5 C18.05820012 10.23590293 19.05430126 11.97157589 20.05078125 13.70703125 C20.53756348 14.5882666 21.0243457 15.46950195 21.52587891 16.37744141 C23.79020564 20.40582792 26.27371401 24.28746312 28.75 28.1875 C30.85375 31.5596875 30.85375 31.5596875 33 35 C33.33 23.45 33.66 11.9 34 0 C37.3 0 40.6 0 44 0 C44 18.15 44 36.3 44 55 C33 55 33 55 30.37768555 52.75610352 C29.51590698 51.20814087 29.51590698 51.20814087 28.63671875 49.62890625 C27.97736328 48.49646484 27.31800781 47.36402344 26.63867188 46.19726562 C25.98696137 44.98638653 25.33657729 43.77479264 24.6875 42.5625 C24.02143584 41.38387929 23.35153826 40.2074163 22.67773438 39.03320312 C21.42384439 36.8361106 20.18743459 34.62887217 18.9753418 32.40844727 C16.50994153 28.15440535 13.72735832 24.09103749 11 20 C10.67 31.55 10.34 43.1 10 55 C6.7 55 3.4 55 0 55 C0 36.85 0 18.7 0 0 Z " fill="#F6F7F7" transform="translate(1006,496)"/>
<path d="M0 0 C11 0 11 0 13.62109375 2.61328125 C14.26774341 3.82526534 14.87114495 5.06097965 15.4375 6.3125 C16.14950053 7.67665078 16.86588732 9.03851844 17.5859375 10.3984375 C17.96202148 11.13416992 18.33810547 11.86990234 18.72558594 12.62792969 C21.09798798 17.04368798 23.85634969 21.22134854 26.5625 25.4375 C28.356875 28.263125 30.15125 31.08875 32 34 C32.33 22.78 32.66 11.56 33 0 C36.3 0 39.6 0 43 0 C43 18.15 43 36.3 43 55 C39.7 55 36.4 55 33 55 C30.49664378 52.42157573 29.20912483 50.69093332 27.5625 47.625 C27.1193042 46.8714624 26.6761084 46.1179248 26.21948242 45.34155273 C25.27877761 43.73992811 24.35242066 42.12980317 23.43945312 40.51220703 C21.96953063 37.9468233 20.42968754 35.43863919 18.859375 32.93359375 C14.7421146 26.35404379 14.7421146 26.35404379 13.01953125 23.53515625 C12.62870361 22.899729 12.23787598 22.26430176 11.83520508 21.60961914 C11 20 11 20 11 18 C10.34 18 9.68 18 9 18 C9 29.88 9 41.76 9 54 C6.03 54 3.06 54 0 54 C0 36.18 0 18.36 0 0 Z " fill="#FAFAFA" transform="translate(749,404)"/>
<path d="M0 0 C10 0 10 0 12.22875977 1.74365234 C12.69080811 2.55785645 13.15285645 3.37206055 13.62890625 4.2109375 C14.17820801 5.12456055 14.72750977 6.03818359 15.29345703 6.97949219 C16.1381958 8.47464355 16.1381958 8.47464355 17 10 C18.31518677 12.07959987 19.63699316 14.15502571 20.96484375 16.2265625 C22.29236465 18.35732122 23.61598693 20.49050997 24.9375 22.625 C27.268125 26.37875 29.59875 30.1325 32 34 C32.33 22.78 32.66 11.56 33 0 C36.3 0 39.6 0 43 0 C43 18.15 43 36.3 43 55 C33 55 33 55 30.83007812 53.41796875 C30.40146484 52.68191406 29.97285156 51.94585937 29.53125 51.1875 C29.02746826 50.36604492 28.52368652 49.54458984 28.00463867 48.69824219 C27.50810791 47.80782227 27.01157715 46.91740234 26.5 46 C25.96028564 45.1018457 25.42057129 44.20369141 24.86450195 43.27832031 C23.75817413 41.43427766 22.66610372 39.58160715 21.58837891 37.72070312 C19.67776282 34.44804624 17.67005315 31.24497469 15.6394043 28.04589844 C13.74024441 25.04275407 11.87316343 22.01942762 10 19 C9.67 30.55 9.34 42.1 9 54 C6.03 54 3.06 54 0 54 C0 36.18 0 18.36 0 0 Z " fill="#FAFBFB" transform="translate(281,404)"/>
<path d="M0 0 C11 0 11 0 13.62109375 2.61328125 C14.26774341 3.82526534 14.87114495 5.06097965 15.4375 6.3125 C16.14950053 7.67665078 16.86588732 9.03851844 17.5859375 10.3984375 C17.96202148 11.13416992 18.33810547 11.86990234 18.72558594 12.62792969 C21.09798798 17.04368798 23.85634969 21.22134854 26.5625 25.4375 C28.356875 28.263125 30.15125 31.08875 32 34 C32.33 22.78 32.66 11.56 33 0 C36.3 0 39.6 0 43 0 C43 17.82 43 35.64 43 54 C32 54 32 54 29.68481445 52.27856445 C29.2487085 51.481521 28.81260254 50.68447754 28.36328125 49.86328125 C27.85240967 48.9813208 27.34153809 48.09936035 26.81518555 47.19067383 C26.0713562 45.76597778 26.0713562 45.76597778 25.3125 44.3125 C24.50196167 42.88103638 24.50196167 42.88103638 23.67504883 41.4206543 C22.59411659 39.51156117 21.52793872 37.59402992 20.47753906 35.66796875 C18.51613331 32.12628962 16.36837463 28.72152764 14.1875 25.3125 C11 20.24536082 11 20.24536082 11 18 C10.34 18 9.68 18 9 18 C9 29.88 9 41.76 9 54 C6.03 54 3.06 54 0 54 C0 36.18 0 18.36 0 0 Z " fill="#FAFBFB" transform="translate(144,496)"/>
<path d="M0 0 C3.63 0 7.26 0 11 0 C13.41124096 6.70475141 15.81372614 13.41255177 18.20825195 20.12329102 C19.0235763 22.40441795 19.84126101 24.6847027 20.66137695 26.96411133 C21.84171396 30.24600652 23.01344977 33.53086514 24.18359375 36.81640625 C24.55028671 37.83021866 24.91697968 38.84403107 25.29478455 39.88856506 C27.0889476 44.95277393 28.4999646 49.64341162 29 55 C25.7 55 22.4 55 19 55 C18.01 51.37 17.02 47.74 16 44 C8.74 44 1.48 44 -6 44 C-6.99 47.63 -7.98 51.26 -9 55 C-12.3 55 -15.6 55 -19 55 C-17.69931485 48.6642515 -16.00369071 42.67521496 -13.84765625 36.58203125 C-13.54685654 35.72115402 -13.24605682 34.86027679 -12.93614197 33.97331238 C-12.30406568 32.16826797 -11.66947563 30.36410199 -11.0324707 28.56079102 C-10.06224736 25.81178418 -9.10186734 23.05947952 -8.14257812 20.30664062 C-7.52401923 18.54406657 -6.90489788 16.78168979 -6.28515625 15.01953125 C-6.0006813 14.20378128 -5.71620636 13.38803131 -5.42311096 12.54756165 C-3.8795171 8.19602859 -2.17275247 4.08860964 0 0 Z " fill="#F7F8F8" transform="translate(118,404)"/>
<path d="M0 0 C3.63 0 7.26 0 11 0 C13.88850272 6.30356371 16.39644415 12.63221536 18.671875 19.1796875 C18.99915588 20.11426788 19.32643677 21.04884827 19.66363525 22.01174927 C20.34781584 23.96908057 21.03006445 25.92708819 21.71044922 27.88574219 C22.75508251 30.8896149 23.80882279 33.89018913 24.86328125 36.890625 C25.52919395 38.79928802 26.19457764 40.70813571 26.859375 42.6171875 C27.17493347 43.51404266 27.49049194 44.41089783 27.81561279 45.33493042 C28.10301331 46.16654694 28.39041382 46.99816345 28.68652344 47.85498047 C28.94093201 48.58506317 29.19534058 49.31514587 29.4574585 50.06735229 C30 52 30 52 30 55 C26.7 55 23.4 55 20 55 C17 47.375 17 47.375 17 44 C9.74 44.33 2.48 44.66 -5 45 C-6.98 49.95 -6.98 49.95 -9 55 C-11.97 55 -14.94 55 -18 55 C-17.39882228 48.55993278 -15.37569079 42.87699482 -13.18359375 36.81640625 C-12.80767593 35.76090073 -12.43175812 34.7053952 -12.04444885 33.61790466 C-10.8483109 30.26385775 -9.64305002 26.91317394 -8.4375 23.5625 C-7.62244165 21.28211727 -6.80798183 19.00152052 -5.99414062 16.72070312 C-4.0030177 11.14463269 -2.00370922 5.5715594 0 0 Z " fill="#F7F8F8" transform="translate(894,404)"/>
<path d="M0 0 C3.63 0 7.26 0 11 0 C15.92271101 12.01210821 20.22333393 24.22568912 24.4375 36.5 C24.84941589 37.69503647 24.84941589 37.69503647 25.26965332 38.91421509 C26.05718685 41.20197353 26.8400416 43.49127171 27.62109375 45.78125 C27.86139816 46.47949387 28.10170258 47.17773773 28.34928894 47.8971405 C30 52.76892984 30 52.76892984 30 55 C26.7 55 23.4 55 20 55 C18.68 51.7 17.36 48.4 16 45 C8.74 44.67 1.48 44.34 -6 44 C-6.66 46.97 -7.32 49.94 -8 53 C-8.33 53.66 -8.66 54.32 -9 55 C-12.3 55 -15.6 55 -19 55 C-16.54970789 46.5214806 -13.73393636 38.18546022 -10.86645508 29.84130859 C-10.06456077 27.50600146 -9.26746267 25.1690945 -8.47070312 22.83203125 C-5.8366531 15.1351916 -3.11967585 7.5172912 0 0 Z " fill="#F7F8F9" transform="translate(353,404)"/>
<path d="M0 0 C3.63 0 7.26 0 11 0 C13.88850272 6.30356371 16.39644415 12.63221536 18.671875 19.1796875 C18.99915588 20.11426788 19.32643677 21.04884827 19.66363525 22.01174927 C20.34781584 23.96908057 21.03006445 25.92708819 21.71044922 27.88574219 C22.75508251 30.8896149 23.80882279 33.89018913 24.86328125 36.890625 C25.52919395 38.79928802 26.19457764 40.70813571 26.859375 42.6171875 C27.17493347 43.51404266 27.49049194 44.41089783 27.81561279 45.33493042 C28.10301331 46.16654694 28.39041382 46.99816345 28.68652344 47.85498047 C28.94093201 48.58506317 29.19534058 49.31514587 29.4574585 50.06735229 C30 52 30 52 30 55 C26.37 55 22.74 55 19 55 C18.34 51.37 17.68 47.74 17 44 C9.74 44.33 2.48 44.66 -5 45 C-5.99 47.97 -6.98 50.94 -8 54 C-11.3 54 -14.6 54 -18 54 C-16.99447944 48.69816434 -15.62737826 43.76060042 -13.78125 38.6875 C-13.33628174 37.45692871 -12.89131348 36.22635742 -12.43286133 34.95849609 C-12.0810228 33.98840607 -12.0810228 33.98840607 -11.72207642 32.99871826 C-10.50199 29.62150092 -9.3044561 26.2363155 -8.10546875 22.8515625 C-7.62048038 21.48436164 -7.13545429 20.11717415 -6.65039062 18.75 C-6.16275711 17.37500117 -5.67512694 16.00000116 -5.1875 14.625 C-4.6803522 13.19530765 -4.17319081 11.76562013 -3.66601562 10.3359375 C-2.44385446 6.8906803 -1.22187444 3.44535889 0 0 Z " fill="#F8F9F9" transform="translate(553,496)"/>
<path d="M0 0 C1.51400391 0.01740234 1.51400391 0.01740234 3.05859375 0.03515625 C4.07050781 0.04417969 5.08242187 0.05320312 6.125 0.0625 C7.29869141 0.07990234 7.29869141 0.07990234 8.49609375 0.09765625 C10.90591904 6.82121564 13.30784543 13.54755862 15.7043457 20.27587891 C16.52024386 22.56363466 17.33793667 24.85075122 18.1574707 27.13720703 C19.33629117 30.42703833 20.50860239 33.7191272 21.6796875 37.01171875 C22.04638046 38.03069244 22.41307343 39.04966614 22.7908783 40.09951782 C24.43914537 44.75228621 25.93678322 49.16256337 26.49609375 54.09765625 C23.19609375 54.09765625 19.89609375 54.09765625 16.49609375 54.09765625 C15.50609375 50.79765625 14.51609375 47.49765625 13.49609375 44.09765625 C6.23609375 44.09765625 -1.02390625 44.09765625 -8.50390625 44.09765625 C-9.49390625 47.72765625 -10.48390625 51.35765625 -11.50390625 55.09765625 C-14.80390625 55.09765625 -18.10390625 55.09765625 -21.50390625 55.09765625 C-20.13545768 48.29829926 -18.19130381 41.93079949 -15.84375 35.41015625 C-15.31884727 33.93458252 -15.31884727 33.93458252 -14.78334045 32.42919922 C-14.04877164 30.36774638 -13.31162779 28.30720945 -12.57202148 26.24755859 C-11.43554642 23.08133071 -10.30799374 19.91202852 -9.18164062 16.7421875 C-8.46536224 14.73549194 -7.74858344 12.7289749 -7.03125 10.72265625 C-6.69270493 9.77173096 -6.35415985 8.82080566 -6.00535583 7.84106445 C-5.69155472 6.96925537 -5.3777536 6.09744629 -5.05444336 5.19921875 C-4.7784581 4.42916504 -4.50247284 3.65911133 -4.21812439 2.86572266 C-3.13239204 0.17796272 -3.01194702 0.11747063 0 0 Z " fill="#F8F9F9" transform="translate(106.50390625,495.90234375)"/>
<path d="M0 0 C3.63 0 7.26 0 11 0 C14.56793897 8.10895221 17.50140756 16.27853656 20.25634766 24.69140625 C22.68220482 32.09456709 25.23757529 39.44593386 27.86669922 46.77929688 C28.14658691 47.56755859 28.42647461 48.35582031 28.71484375 49.16796875 C28.96355225 49.86172607 29.21226074 50.5554834 29.46850586 51.27026367 C30 53 30 53 30 55 C26.7 55 23.4 55 20 55 C18.68 51.7 17.36 48.4 16 45 C8.74 44.67 1.48 44.34 -6 44 C-6.66 46.97 -7.32 49.94 -8 53 C-9 54 -9 54 -11.06640625 54.09765625 C-11.89011719 54.08605469 -12.71382812 54.07445312 -13.5625 54.0625 C-14.38878906 54.05347656 -15.21507812 54.04445313 -16.06640625 54.03515625 C-16.70449219 54.02355469 -17.34257813 54.01195312 -18 54 C-17.2447104 49.55482856 -15.88242324 45.35769798 -14.453125 41.09375 C-14.20004578 40.33259888 -13.94696655 39.57144775 -13.68621826 38.78723145 C-13.14970954 37.17634703 -12.61169164 35.56596456 -12.07226562 33.95605469 C-11.2624759 31.53726473 -10.45900959 29.11644335 -9.65625 26.6953125 C-6.66056498 17.70132618 -3.51014824 8.8087072 0 0 Z " fill="#F8F9F9" transform="translate(843,496)"/>
<path d="M0 0 C12.87 0 25.74 0 39 0 C39 2.97 39 5.94 39 9 C29.43 9 19.86 9 10 9 C10 13.29 10 17.58 10 22 C18.25 22 26.5 22 35 22 C35 24.97 35 27.94 35 31 C26.75 31 18.5 31 10 31 C10 35.62 10 40.24 10 45 C19.57 45 29.14 45 39 45 C39 48.3 39 51.6 39 55 C26.13 55 13.26 55 0 55 C0 36.85 0 18.7 0 0 Z " fill="#F5F6F6" transform="translate(697,404)"/>
<path d="M0 0 C12.87 0 25.74 0 39 0 C39 2.97 39 5.94 39 9 C29.43 9 19.86 9 10 9 C10 13.29 10 17.58 10 22 C18.25 22 26.5 22 35 22 C35 24.97 35 27.94 35 31 C26.75 31 18.5 31 10 31 C10 35.62 10 40.24 10 45 C19.57 45 29.14 45 39 45 C39 48.3 39 51.6 39 55 C26.13 55 13.26 55 0 55 C0 36.85 0 18.7 0 0 Z " fill="#F5F6F6" transform="translate(511,404)"/>
<path d="M0 0 C3.99561245 2.18668972 6.73683022 5.35320374 9.1484375 9.17578125 C10.0859375 12.67578125 10.0859375 12.67578125 10.1484375 15.17578125 C6.74892348 15.52611285 3.53344619 15.71418421 0.1484375 15.17578125 C-2.2890625 12.23828125 -2.2890625 12.23828125 -3.8515625 9.17578125 C-8.65434993 7.57485211 -13.68604797 7.27788498 -18.4140625 9.23828125 C-20.5729734 12.14811768 -20.11640804 14.66657785 -19.8515625 18.17578125 C-15.50692286 19.55816659 -11.30324685 20.44430499 -6.7890625 21.11328125 C1.21795666 22.42116094 5.35326607 24.73655104 10.1484375 31.17578125 C12.07274184 35.02438992 11.73232206 39.32736956 10.46484375 43.33984375 C8.29785635 48.14138429 5.96317461 50.76841269 1.1484375 53.17578125 C-6.05907414 55.82717031 -13.4245348 56.4281251 -20.6015625 53.48828125 C-26.6878645 50.46633688 -30.29557298 46.49849216 -32.8515625 40.17578125 C-32.8515625 38.85578125 -32.8515625 37.53578125 -32.8515625 36.17578125 C-29.2215625 36.17578125 -25.5915625 36.17578125 -21.8515625 36.17578125 C-21.6040625 37.10390625 -21.3565625 38.03203125 -21.1015625 38.98828125 C-19.7213544 42.5078119 -19.2542142 43.60532662 -15.8515625 45.17578125 C-10.93434407 45.75590253 -6.23144542 45.69753202 -1.8515625 43.17578125 C0.29045276 39.96275836 0.80169626 38.90868844 0.1484375 35.17578125 C-3.81012248 32.11519329 -7.32175521 31.68100726 -12.2265625 31.23828125 C-19.67196429 30.40711643 -24.06771155 29.17377458 -29.2890625 23.55078125 C-31.4136622 18.96164589 -31.63058039 15.15013508 -30.8515625 10.17578125 C-28.32499054 4.59626818 -24.14442189 1.90372315 -18.8515625 -0.82421875 C-12.62285495 -2.9004546 -6.11636515 -2.26412815 0 0 Z " fill="#F7F8F8" transform="translate(590.8515625,404.82421875)"/>
<path d="M0 0 C3.38741464 2.23858216 6.02021972 4.77699885 8.015625 8.33203125 C8.390625 11.76953125 8.390625 11.76953125 8.015625 14.33203125 C4.715625 14.33203125 1.415625 14.33203125 -1.984375 14.33203125 C-2.231875 13.54828125 -2.479375 12.76453125 -2.734375 11.95703125 C-4.20188886 8.87525213 -4.8790687 8.52637983 -7.984375 7.33203125 C-12.59864466 6.69609024 -16.62723733 6.4595856 -20.609375 9.01953125 C-22.27326637 11.81789401 -22.72028761 13.14307659 -21.984375 16.33203125 C-18.36441583 19.03562733 -15.69809979 19.66915649 -11.234375 19.76953125 C-3.79464203 20.24538133 1.3071421 22.1210248 7.078125 26.83203125 C10.38359509 31.33114332 9.77643028 37.06436041 9.015625 42.33203125 C7.04521097 46.84756341 3.99223269 49.94769175 -0.24609375 52.4140625 C-7.58433427 54.87410034 -17.70743721 54.90220135 -24.796875 51.64453125 C-29.48322281 48.24463186 -32.27360841 44.89202266 -33.984375 39.33203125 C-33.984375 38.01203125 -33.984375 36.69203125 -33.984375 35.33203125 C-30.684375 35.33203125 -27.384375 35.33203125 -23.984375 35.33203125 C-23.6440625 36.44578125 -23.6440625 36.44578125 -23.296875 37.58203125 C-21.61840576 41.09882394 -20.40003105 42.41072472 -16.984375 44.33203125 C-11.95305942 44.99254432 -7.38329952 45.09483017 -2.984375 42.33203125 C-1.5060524 39.37538606 -1.92404717 36.58973388 -1.984375 33.33203125 C-6.65382272 30.47584622 -11.93114508 30.54193374 -17.2578125 29.9921875 C-24.3431547 28.7370273 -27.89280169 25.9433318 -31.984375 20.33203125 C-33.39116113 16.11167285 -33.8043003 12.53662631 -32.21875 8.2734375 C-25.83538882 -3.61669653 -11.43587385 -5.82077752 0 0 Z " fill="#F8F9F9" transform="translate(622.984375,497.66796875)"/>
<path d="M0 0 C3.22963986 2.09472625 4.87780647 3.96663102 6.9453125 7.26171875 C7.7578125 11.13671875 7.7578125 11.13671875 7.9453125 14.26171875 C4.6453125 14.26171875 1.3453125 14.26171875 -2.0546875 14.26171875 C-2.3021875 13.47796875 -2.5496875 12.69421875 -2.8046875 11.88671875 C-4.27220136 8.80493963 -4.9493812 8.45606733 -8.0546875 7.26171875 C-12.66895716 6.62577774 -16.69754983 6.3892731 -20.6796875 8.94921875 C-22.34357887 11.74758151 -22.79060011 13.07276409 -22.0546875 16.26171875 C-18.43777213 18.96468239 -15.8261654 19.57718633 -11.3671875 19.63671875 C-3.70001619 20.11887132 2.16799496 22.4182746 7.5703125 27.94921875 C9.93357025 33.64252152 9.79365324 38.85064505 7.7578125 44.63671875 C4.32486174 49.60857848 0.68540951 51.6679977 -5.0546875 53.26171875 C-12.27364316 54.03972019 -19.89609838 54.68577997 -26.3046875 50.76171875 C-30.15354494 47.6561397 -32.67547457 44.02627251 -34.0546875 39.26171875 C-34.0546875 37.94171875 -34.0546875 36.62171875 -34.0546875 35.26171875 C-30.7546875 35.26171875 -27.4546875 35.26171875 -24.0546875 35.26171875 C-23.078125 37.8984375 -23.078125 37.8984375 -22.1015625 40.53515625 C-20.7156572 42.82086573 -19.55780924 43.36521061 -17.0546875 44.26171875 C-14.60125728 44.57610359 -14.60125728 44.57610359 -12.0546875 44.51171875 C-10.78625 44.51945313 -10.78625 44.51945313 -9.4921875 44.52734375 C-6.88244313 44.24294853 -5.26373391 43.66209638 -3.0546875 42.26171875 C-1.5763649 39.30507356 -1.99435967 36.51942138 -2.0546875 33.26171875 C-6.32328032 30.58555434 -11.14617818 30.59845137 -16.03515625 30.2265625 C-22.22731302 29.60851295 -26.13800078 27.38561484 -30.3671875 22.69921875 C-33.23215506 18.56093227 -33.5415754 15.21174573 -33.0546875 10.26171875 C-31.13601754 5.10284595 -28.2020049 1.95184671 -23.4296875 -0.73828125 C-15.4883972 -4.21923317 -7.7135305 -3.93970644 0 0 Z " fill="#F8F9FA" transform="translate(499.0546875,497.73828125)"/>
<path d="M0 0 C3.60579076 3.12199494 5.69087843 5.78559383 6.875 10.4375 C6.91625 11.283125 6.9575 12.12875 7 13 C3.37 13 -0.26 13 -4 13 C-4.66 11.35 -5.32 9.7 -6 8 C-10.14219535 5.0540421 -15.13462604 5.35451092 -20 6 C-22.8213337 7.40087749 -22.8213337 7.40087749 -24 10 C-24.25329784 13.14710302 -24.25329784 13.14710302 -23 16 C-19.55279192 17.78075671 -16.59004431 18.2290334 -12.75 18.375 C-5.89802495 18.91132193 -0.31220339 20.57218644 4.5 25.625 C7.66880301 30.64227143 7.58768125 35.14801909 7 41 C4.67916109 45.90946693 1.69840347 48.35714805 -3 51 C-9.83789485 53.31009961 -20.1044762 53.39868129 -26.6875 50.3125 C-31.4997511 47.3479028 -34.34268241 43.38628215 -36 38 C-36 36.68 -36 35.36 -36 34 C-32.7 34 -29.4 34 -26 34 C-25.38125 35.3921875 -25.38125 35.3921875 -24.75 36.8125 C-22.99337059 40.012075 -22.05389213 41.16115554 -19 43 C-14.47564558 43.75038073 -10.22788543 43.39292334 -5.875 42 C-3.6660398 39.64377579 -3.71516139 38.93823726 -3.6875 35.8125 C-3.8421875 33.9253125 -3.8421875 33.9253125 -4 32 C-8.66944772 29.14381497 -13.94677008 29.20990249 -19.2734375 28.66015625 C-25.03769894 27.63902398 -29.21527318 25.48560216 -33 21 C-34.5674118 16.29776461 -34.79489976 11.89631535 -34 7 C-31.43501657 2.07105064 -27.79869088 -1.03599784 -22.625 -3 C-14.37700582 -5.13888663 -7.29000156 -4.66395972 0 0 Z " fill="#F8FAFA" transform="translate(677,499)"/>
<path d="M0 0 C3.69802924 2.55320504 6.27873363 5.49817857 8.75390625 9.2109375 C8.87890625 12.3984375 8.87890625 12.3984375 8.75390625 15.2109375 C5.68092104 15.56551272 2.81228818 15.74098636 -0.24609375 15.2109375 C-2.55859375 12.3359375 -2.55859375 12.3359375 -4.24609375 9.2109375 C-7.45394393 6.85851403 -10.34258627 6.7425166 -14.24609375 7.2109375 C-17.44819085 8.87356484 -19.6353862 10.10338313 -21.3984375 13.30078125 C-22.55422627 17.26881183 -22.57547473 20.97373192 -22.55859375 25.0859375 C-22.57470703 25.86324219 -22.59082031 26.64054688 -22.60742188 27.44140625 C-22.61189884 32.76899979 -21.81102345 36.5135721 -19.24609375 41.2109375 C-15.01656363 44.03062425 -11.21404715 43.87985733 -6.24609375 43.2109375 C-2.88424599 40.85764407 -2.12014673 38.95904345 -0.24609375 35.2109375 C3.05390625 35.2109375 6.35390625 35.2109375 9.75390625 35.2109375 C9.16348571 41.41035312 6.87177618 45.25598064 2.31640625 49.4609375 C-4.13648954 53.86779316 -10.62049833 54.11348382 -18.24609375 53.2109375 C-23.39082798 51.25334995 -27.36733107 47.90225446 -30.24609375 43.2109375 C-32.85531303 37.04685462 -33.77000023 31.37233691 -33.68359375 24.7109375 C-33.67457031 23.87723633 -33.66554688 23.04353516 -33.65625 22.18457031 C-33.45042912 14.89793959 -32.44597137 9.65130697 -27.375 4.19921875 C-19.33842565 -3.29044317 -9.9500691 -5.66852421 0 0 Z " fill="#F8FAFA" transform="translate(782.24609375,497.7890625)"/>
<path d="M0 0 C14.19 0 28.38 0 43 0 C43 3.3 43 6.6 43 10 C37.72 10 32.44 10 27 10 C27 24.85 27 39.7 27 55 C23.37 55 19.74 55 16 55 C16 40.15 16 25.3 16 10 C10.72 10 5.44 10 0 10 C0 6.7 0 3.4 0 0 Z " fill="#EDEEEE" transform="translate(802,404)"/>
<path d="M0 0 C13.86 0 27.72 0 42 0 C42 2.97 42 5.94 42 9 C36.72 9 31.44 9 26 9 C26 24.18 26 39.36 26 55 C22.7 55 19.4 55 16 55 C16 39.82 16 24.64 16 9 C10.72 9 5.44 9 0 9 C0 6.03 0 3.06 0 0 Z " fill="#F9FBFB" transform="translate(872,496)"/>
<path d="M0 0 C3.29848998 2.5966836 5.53670215 5.07861848 7 9 C7.31827468 11.96135479 7.32451991 14.89887111 7.3125 17.875 C7.32861328 18.66519531 7.34472656 19.45539062 7.36132812 20.26953125 C7.36647195 26.45240897 6.08035608 30.60443846 1.9375 35.375 C-2.36286281 37.75392411 -6.20980646 38.16311409 -11 37 C-14.58707413 34.291687 -16.58929737 31.23210788 -18 27 C-18.17529842 24.06878057 -18.27713801 21.18268773 -18.3125 18.25 C-18.34150391 17.46367188 -18.37050781 16.67734375 -18.40039062 15.8671875 C-18.46309952 10.0593791 -17.32109331 6.77943318 -14 2 C-9.78647358 -1.85236701 -5.23988682 -1.56911311 0 0 Z " fill="#5A5E5F" transform="translate(722,505)"/>
<path d="M0 0 C3.3 0 6.6 0 10 0 C10 14.85 10 29.7 10 45 C18.58 45 27.16 45 36 45 C36 48.3 36 51.6 36 55 C24.12 55 12.24 55 0 55 C0 36.85 0 18.7 0 0 Z " fill="#F4F5F5" transform="translate(45,496)"/>
<path d="M0 0 C3.3 0 6.6 0 10 0 C10 14.85 10 29.7 10 45 C18.58 45 27.16 45 36 45 C36 48.3 36 51.6 36 55 C24.12 55 12.24 55 0 55 C0 36.85 0 18.7 0 0 Z " fill="#F3F4F4" transform="translate(934,404)"/>
<path d="M0 0 C3.78651656 2.90031056 5.5643398 5.51041351 7 10 C7.79216497 19.18705605 8.06265564 28.07556892 1.9375 35.5 C-2.37390804 37.70157006 -6.25918686 37.90449724 -11 37 C-14.86449484 34.18213918 -16.59479872 31.50275366 -18 27 C-18.33227429 24.03770883 -18.3701087 21.10380363 -18.375 18.125 C-18.39949219 17.34769531 -18.42398438 16.57039062 -18.44921875 15.76953125 C-18.4782035 10.02088841 -17.27499663 6.73391379 -14 2 C-9.78157893 -1.85684212 -5.24509226 -1.56115269 0 0 Z " fill="#5A5E5F" transform="translate(976,505)"/>
<path d="M0 0 C14.19 0 28.38 0 43 0 C43 2.97 43 5.94 43 9 C37.39 9 31.78 9 26 9 C26 23.85 26 38.7 26 54 C23.03 54 20.06 54 17 54 C17 39.48 17 24.96 17 10 C11.39 10 5.78 10 0 10 C0 6.7 0 3.4 0 0 Z " fill="#F8F8F8" transform="translate(146,404)"/>
<path d="M0 0 C3.3 0 6.6 0 10 0 C10 14.85 10 29.7 10 45 C18.25 45 26.5 45 35 45 C35 48.3 35 51.6 35 55 C23.45 55 11.9 55 0 55 C0 36.85 0 18.7 0 0 Z " fill="#F7F8F8" transform="translate(393,404)"/>
<path d="M0 0 C4.41631572 2.3380495 6.94251348 4.45563847 9 9 C9.43356422 12.32027713 9.41884112 15.5933966 9.375 18.9375 C9.38660156 19.81857422 9.39820313 20.69964844 9.41015625 21.60742188 C9.38684333 26.79454715 8.98751574 30.57279908 6 35 C3.13166277 37.820631 1.04899357 38.43135748 -2.9375 38.4375 C-6.42482447 38.32450863 -7.88932218 38.06225628 -11 36.3125 C-15.55693667 31.04354198 -15.33659761 25.6509407 -15.3125 19 C-15.32861328 18.11054688 -15.34472656 17.22109375 -15.36132812 16.3046875 C-15.36582248 10.2822488 -14.48393271 6.89792149 -10.5 2.25 C-7.32572879 -0.39522601 -3.94084921 -0.38635777 0 0 Z " fill="#595D5E" transform="translate(248,412)"/>
<path d="M0 0 C4.44409624 2.30751151 6.92885788 4.45781223 9 9 C9.45889294 12.29889734 9.46428598 15.54866778 9.4375 18.875 C9.4674707 20.18404297 9.4674707 20.18404297 9.49804688 21.51953125 C9.49353951 27.51432929 8.59940731 31.1544007 5 36 C1.10086938 38.79502036 -3.38177907 38.66799267 -8 38 C-12.12286266 35.63154698 -13.65360323 33.48216067 -15 29 C-15.38848512 25.53952857 -15.46133398 22.104942 -15.5 18.625 C-15.54125 17.70460938 -15.5825 16.78421875 -15.625 15.8359375 C-15.69393837 9.80383015 -14.73404937 6.60385996 -10.49023438 2.25537109 C-7.14234563 -0.56488512 -4.27428102 -0.35619009 0 0 Z " fill="#585C5D" transform="translate(326,504)"/>
<path d="M0 0 C14 0 14 0 20 3 C23.40203842 7.82314307 23.45940755 12.31655851 23.375 18 C23.38660156 18.78117188 23.39820313 19.56234375 23.41015625 20.3671875 C23.37893668 26.5486616 22.11788866 30.8248711 17.6875 35.375 C14 37 14 37 0 37 C0 24.79 0 12.58 0 0 Z " fill="#5C6061" transform="translate(213,505)"/>
<path d="M0 0 C14 0 14 0 17.75 1.75 C22.75741614 6.75741614 22.36577353 11.63967741 22.375 18.375 C22.39949219 19.30828125 22.42398438 20.2415625 22.44921875 21.203125 C22.47353994 26.92671278 22.07542046 30.61857528 18 35 C13 37 13 37 0 37 C0 24.79 0 12.58 0 0 Z " fill="#585D5D" transform="translate(651,413)"/>
<path d="M0 0 C14 0 14 0 17.75 1.75 C21.97137054 5.97137054 22.27492137 9.40918542 22.32226562 15.16796875 C22.31904297 16.06128906 22.31582031 16.95460938 22.3125 17.875 C22.32861328 18.76058594 22.34472656 19.64617188 22.36132812 20.55859375 C22.36519539 25.74846452 22.05809501 29.59579093 19 34 C15 36 15 36 0 36 C0 24.12 0 12.24 0 0 Z " fill="#575B5D" transform="translate(423,505)"/>
<path d="M0 0 C2.97 0 5.94 0 9 0 C9 14.85 9 29.7 9 45 C17.25 45 25.5 45 34 45 C34 47.97 34 50.94 34 54 C22.78 54 11.56 54 0 54 C0 36.18 0 18.36 0 0 Z " fill="#FDFDFD" transform="translate(260,496)"/>
<path d="M0 0 C3.63 0 7.26 0 11 0 C11 18.15 11 36.3 11 55 C7.37 55 3.74 55 0 55 C0 36.85 0 18.7 0 0 Z " fill="#EDEEEF" transform="translate(614,404)"/>
<path d="M0 0 C3.3 0 6.6 0 10 0 C10 18.15 10 36.3 10 55 C6.7 55 3.4 55 0 55 C0 36.85 0 18.7 0 0 Z " fill="#F4F5F5" transform="translate(925,496)"/>
<path d="M0 0 C3.3 0 6.6 0 10 0 C10 18.15 10 36.3 10 55 C6.7 55 3.4 55 0 55 C0 36.85 0 18.7 0 0 Z " fill="#F6F8F8" transform="translate(855,404)"/>
<path d="M0 0 C3.3 0 6.6 0 10 0 C10 18.15 10 36.3 10 55 C6.7 55 3.4 55 0 55 C0 36.85 0 18.7 0 0 Z " fill="#F9FBFB" transform="translate(199,404)"/>
<path d="M0 0 C3.3 0 6.6 0 10 0 C10 17.82 10 35.64 10 54 C6.7 54 3.4 54 0 54 C0 36.18 0 18.36 0 0 Z " fill="#FBFCFC" transform="translate(804,496)"/>
<path d="M0 0 C3.8053125 -0.12375 3.8053125 -0.12375 7.6875 -0.25 C8.87218872 -0.30462402 8.87218872 -0.30462402 10.08081055 -0.36035156 C13.82586065 -0.41906774 15.6745571 -0.19253951 18.984375 1.765625 C21.10271887 4.11386665 21.66526389 4.90499341 21.5625 8 C21.56443359 8.99 21.56443359 8.99 21.56640625 10 C20.69873811 13.06376612 19.6131334 14.16308508 17 16 C14.06568496 16.48016742 11.21308315 16.37776146 8.25 16.25 C7.06083984 16.22292969 7.06083984 16.22292969 5.84765625 16.1953125 C3.89791652 16.14833082 1.94880122 16.07659044 0 16 C0 10.72 0 5.44 0 0 Z " fill="#585C5C" transform="translate(467,413)"/>
<path d="M0 0 C3.8053125 -0.12375 3.8053125 -0.12375 7.6875 -0.25 C8.87218872 -0.30462402 8.87218872 -0.30462402 10.08081055 -0.36035156 C13.82431085 -0.41904344 15.67716493 -0.19032499 18.98828125 1.76171875 C21.1281937 4.14263105 21.64475393 4.93219623 21.5 8.0625 C21 12 21 12 19.625 13.9375 C15.79615658 16.44097454 12.30652996 16.11187516 7.875 16.0625 C5.27625 16.041875 2.6775 16.02125 0 16 C0 10.72 0 5.44 0 0 Z " fill="#585B5D" transform="translate(369,505)"/>
<path d="M0 0 C2.31 1.98 4.62 3.96 7 6 C5.68 6.33 4.36 6.66 3 7 C2.88406909 17.71811513 2.7952657 28.43608072 2.74093914 39.15469551 C2.71486286 44.13200171 2.67950069 49.10887845 2.62280273 54.0859375 C2.56841283 58.8905445 2.53856465 63.69473884 2.52561378 68.49962997 C2.51638643 70.33127207 2.49836718 72.16289199 2.47134972 73.99435806 C2.43496572 76.56330126 2.43005842 79.13054697 2.43237305 81.69970703 C2.40540848 82.83151649 2.40540848 82.83151649 2.37789917 83.9861908 C2.43400076 89.75380401 4.09931171 92.07286678 8 96 C7.505 96.99 7.505 96.99 7 98 C0.55885721 92.81716129 0.55885721 92.81716129 -0.64568901 88.90049934 C-0.85763781 86.52585603 -0.86730854 84.23489056 -0.79467773 81.85180664 C-0.79569992 80.96320953 -0.79672211 80.07461243 -0.79777527 79.15908813 C-0.79292425 76.24153148 -0.73860363 73.3271614 -0.68359375 70.41015625 C-0.67052865 68.3799358 -0.66056878 66.3496932 -0.65357971 64.31944275 C-0.62692609 58.99073741 -0.55822628 53.66337996 -0.48065186 48.33520508 C-0.40888477 42.89227531 -0.37703942 37.44912649 -0.34179688 32.00585938 C-0.26685326 21.33664923 -0.14747142 10.66843695 0 0 Z " fill="#A5BC48" transform="translate(144,185)"/>
<path d="M0 0 C2 1 2 1 2.77783203 2.71826172 C3.01872559 3.44803223 3.25961914 4.17780273 3.5078125 4.9296875 C3.77207031 5.72503906 4.03632812 6.52039063 4.30859375 7.33984375 C4.57800781 8.17644531 4.84742188 9.01304687 5.125 9.875 C5.40214844 10.70386719 5.67929687 11.53273438 5.96484375 12.38671875 C8 18.5924415 8 18.5924415 8 22 C3.05 22 -1.9 22 -7 22 C-5.04910592 14.48905779 -2.76288395 7.25081726 0 0 Z " fill="#616565" transform="translate(558,509)"/>
<path d="M0 0 C0.66 0 1.32 0 2 0 C3.00990692 2.91333079 4.00615952 5.83115319 5 8.75 C5.28617188 9.575 5.57234375 10.4 5.8671875 11.25 C6.13789062 12.04921875 6.40859375 12.8484375 6.6875 13.671875 C7.06455078 14.77160645 7.06455078 14.77160645 7.44921875 15.89355469 C8 18 8 18 8 22 C3.38 22 -1.24 22 -6 22 C-5.40421223 16.73378394 -4.18691204 12.05591981 -2.4375 7.0625 C-2.20353516 6.37865234 -1.96957031 5.69480469 -1.72851562 4.99023438 C-1.15788171 3.32491499 -0.57972902 1.66217507 0 0 Z " fill="#616465" transform="translate(108,509)"/>
<path d="M0 0 C3.0132707 3.45509925 4.31615804 7.26618093 5.6875 11.5625 C5.91244141 12.23474609 6.13738281 12.90699219 6.36914062 13.59960938 C7.32199622 16.5161005 8 18.91234191 8 22 C3.05 22 -1.9 22 -7 22 C-5.04910592 14.48905779 -2.76288395 7.25081726 0 0 Z " fill="#626565" transform="translate(899,417)"/>
<path d="M0 0 C0.66 0 1.32 0 2 0 C3.00990692 2.91333079 4.00615952 5.83115319 5 8.75 C5.28617188 9.575 5.57234375 10.4 5.8671875 11.25 C6.13789063 12.04921875 6.40859375 12.8484375 6.6875 13.671875 C7.06455078 14.77160645 7.06455078 14.77160645 7.44921875 15.89355469 C8 18 8 18 8 22 C3.38 22 -1.24 22 -6 22 C-5.40421223 16.73378394 -4.18691204 12.05591981 -2.4375 7.0625 C-2.20353516 6.37865234 -1.96957031 5.69480469 -1.72851562 4.99023438 C-1.15788171 3.32491499 -0.57972902 1.66217507 0 0 Z " fill="#636566" transform="translate(122,417)"/>
<path d="M0 0 C2.12261076 2.12261076 2.58711498 3.26899902 3.5078125 6.0625 C3.77207031 6.85914063 4.03632813 7.65578125 4.30859375 8.4765625 C4.57800781 9.30929687 4.84742188 10.14203125 5.125 11 C5.40214844 11.83273437 5.67929687 12.66546875 5.96484375 13.5234375 C8 19.71913485 8 19.71913485 8 22 C3.05 22 -1.9 22 -7 22 C-5.56006454 14.27670981 -2.94467554 7.2717751 0 0 Z " fill="#616464" transform="translate(358,417)"/>
<path d="M0 0 C2.12261076 2.12261076 2.58711498 3.26899902 3.5078125 6.0625 C3.77207031 6.85914063 4.03632812 7.65578125 4.30859375 8.4765625 C4.57800781 9.30929687 4.84742188 10.14203125 5.125 11 C5.40214844 11.83273437 5.67929687 12.66546875 5.96484375 13.5234375 C8 19.71913485 8 19.71913485 8 22 C3.05 22 -1.9 22 -7 22 C-5.04910592 14.48905779 -2.76288395 7.25081726 0 0 Z " fill="#5E6162" transform="translate(848,509)"/>
<path d="M0 0 C4 5 4 5 4 7 C3.01 7.495 3.01 7.495 2 8 C1.67 17.57 1.34 27.14 1 37 C0.67 37 0.34 37 0 37 C0 24.79 0 12.58 0 0 Z " fill="#636565" transform="translate(55,422)"/>
<path d="M0 0 C10.24714829 8.57414449 10.24714829 8.57414449 14 13 C14 13.66 14 14.32 14 15 C15.32 15.66 16.64 16.32 18 17 C17.34 17.66 16.68 18.32 16 19 C15.67 18.01 15.34 17.02 15 16 C13.67087441 15.32498341 12.33654939 14.66019538 11 14 C9.22015326 12.43067277 7.49411363 10.79916187 5.8125 9.125 C4.93207031 8.26132812 4.05164063 7.39765625 3.14453125 6.5078125 C1.14478538 4.16931187 0.35519815 2.99480792 0 0 Z " fill="#657143" transform="translate(174,306)"/>
<path d="M0 0 C4.41889613 1.35021826 6.34345343 3.26115668 9 7 C6 7 6 7 4.39453125 5.46875 C3.87246094 4.8190625 3.35039062 4.169375 2.8125 3.5 C2.28269531 2.8503125 1.75289062 2.200625 1.20703125 1.53125 C0.80871094 1.0259375 0.41039062 0.520625 0 0 Z " fill="#A5BC4B" transform="translate(197,329)"/>
<path d="M0 0 C3.37503669 1.1858237 5.64722731 2.27573689 8 5 C7.67 5.99 7.34 6.98 7 8 C5.83035398 6.8572081 4.66435444 5.71068285 3.5 4.5625 C2.8503125 3.92441406 2.200625 3.28632813 1.53125 2.62890625 C0 1 0 1 0 0 Z " fill="#677442" transform="translate(182,222)"/>
</svg>
