<?xml version="1.0" encoding="UTF-8"?>
<svg version="1.1" xmlns="http://www.w3.org/2000/svg" width="600" height="600">
<path d="M0 0 C1.50061757 -0.01090081 1.50061757 -0.01090081 3.03155065 -0.02202183 C6.40500665 -0.04036099 9.77733845 -0.02287413 13.15078735 -0.00571251 C15.58517732 -0.01147013 18.01956295 -0.01940882 20.45393944 -0.02934873 C25.75764549 -0.04591407 31.06101583 -0.04684816 36.36470795 -0.03411293 C44.25131343 -0.01522692 52.13770371 -0.02485527 60.02430767 -0.04015447 C74.10839128 -0.06650827 88.19236162 -0.06419129 102.27645606 -0.0497599 C114.60150166 -0.03719262 126.9265057 -0.0338937 139.2515564 -0.03987312 C140.06843167 -0.04025505 140.88530695 -0.04063697 141.72693603 -0.04103047 C145.04272218 -0.04258711 148.35850832 -0.04417911 151.67429443 -0.04582929 C182.79240519 -0.0611316 213.91044371 -0.04724542 245.02854332 -0.02034481 C272.68798237 0.00338405 300.34730634 0.00126095 328.00674438 -0.02264977 C359.06716237 -0.04941063 390.1275165 -0.06004646 421.18794441 -0.04458845 C424.4977633 -0.04298481 427.80758221 -0.04142061 431.11740112 -0.03987312 C432.33988487 -0.03928004 432.33988487 -0.03928004 433.58706526 -0.03867498 C445.90574776 -0.03298252 458.22438418 -0.03964846 470.5430603 -0.05227089 C484.5469943 -0.06654841 498.55079709 -0.06303332 512.55471468 -0.03586717 C520.39668693 -0.02115727 528.23837523 -0.02026791 536.08034026 -0.03909804 C541.92662673 -0.0515905 547.77266085 -0.03809629 553.61891866 -0.01422517 C555.99097788 -0.00861497 558.36307488 -0.01153694 560.73511004 -0.02360411 C563.94694414 -0.03869696 567.15720703 -0.02333084 570.36895752 0 C571.30095702 -0.01170583 572.23295653 -0.02341166 573.19319844 -0.03547221 C577.65421591 0.02978788 579.59364123 0.18552551 583.25862348 2.93768656 C585.80616852 6.49806116 585.88199935 9.49046282 585.81939697 13.71367836 C585.82719693 14.52296602 585.83499688 15.33225368 585.84303319 16.16606522 C585.86296377 18.87559711 585.84718506 21.5837261 585.83145142 24.2932682 C585.83822708 26.23661557 585.84712992 28.17995652 585.85800171 30.12328529 C585.88080763 35.4001761 585.87195324 40.67657845 585.85610628 45.95347786 C585.84345407 51.47381858 585.85518551 56.99411726 585.86303711 62.51445961 C585.87213563 71.78520663 585.86014036 81.05575454 585.83633423 90.32647133 C585.80912267 101.04720516 585.81793668 111.76746357 585.84546626 122.48818588 C585.86815046 131.6900286 585.87136074 140.89172814 585.85827291 150.09358978 C585.85047465 155.59066881 585.84944722 161.08752431 585.86595535 166.584589 C585.88039073 171.75250204 585.87039516 176.91980168 585.84148407 182.08764839 C585.83486831 183.98513457 585.83677928 185.8826723 585.84779739 187.78013802 C585.86144536 190.369035 585.84434767 192.95596191 585.81939697 195.54473305 C585.83055058 196.297166 585.84170419 197.04959896 585.85319579 197.82483292 C585.786372 201.39484051 585.34959571 203.39844307 583.25862348 206.32072484 C578.94577725 209.55938922 575.63133044 209.32450634 570.36895752 209.25841141 C569.36854581 209.26567861 568.36813409 209.27294582 567.33740687 209.28043324 C563.96395087 209.29877239 560.59161907 209.28128554 557.21817017 209.26412392 C554.7837802 209.26988154 552.34939457 209.27782023 549.91501808 209.28776014 C544.61131203 209.30432548 539.30794169 209.30525957 534.00424957 209.29252434 C526.11764409 209.27363833 518.23125381 209.28326668 510.34464985 209.29856587 C496.26056624 209.32491968 482.1765959 209.3226027 468.09250146 209.30817131 C455.76745586 209.29560403 443.44245182 209.29230511 431.11740112 209.29828453 C430.30052584 209.29866646 429.48365057 209.29904838 428.64202149 209.29944188 C425.32623533 209.30099852 422.0104492 209.30259051 418.69466309 209.3042407 C387.57655233 209.31954301 356.45851381 209.30565683 325.3404142 209.27875621 C297.68097514 209.25502736 270.02165118 209.25715046 242.36221313 209.28106117 C211.30179515 209.30782203 180.24144102 209.31845787 149.18101311 209.30299985 C145.87119422 209.30139622 142.56137531 209.29983202 139.2515564 209.29828453 C138.02907265 209.29769145 138.02907265 209.29769145 136.78189225 209.29708639 C124.46320975 209.29139393 112.14457334 209.29805986 99.82589722 209.3106823 C85.82196322 209.32495981 71.81816043 209.32144473 57.81424284 209.29427858 C49.97227059 209.27956867 42.13058229 209.27867931 34.28861726 209.29750945 C28.44233079 209.31000191 22.59629667 209.29650769 16.75003886 209.27263658 C14.37797964 209.26702637 12.00588264 209.26994835 9.63384748 209.28201552 C6.42201338 209.29710837 3.21175049 209.28174225 0 209.25841141 C-0.9319995 209.27011724 -1.86399901 209.28182307 -2.82424092 209.29388362 C-7.28525839 209.22862353 -9.22468371 209.0728859 -12.88966596 206.32072484 C-15.437211 202.76035024 -15.51304183 199.76794859 -15.45043945 195.54473305 C-15.45823941 194.73544538 -15.46603936 193.92615772 -15.47407568 193.09234619 C-15.49400625 190.3828143 -15.47822754 187.67468531 -15.4624939 184.9651432 C-15.46926956 183.02179583 -15.4781724 181.07845489 -15.48904419 179.13512611 C-15.51185011 173.85823531 -15.50299572 168.58183296 -15.48714876 163.30493355 C-15.47449655 157.78459283 -15.48622799 152.26429414 -15.49407959 146.7439518 C-15.50317811 137.47320478 -15.49118284 128.20265687 -15.46737671 118.93194008 C-15.44016515 108.21120625 -15.44897916 97.49094784 -15.47650874 86.77022552 C-15.49919294 77.5683828 -15.50240322 68.36668327 -15.48931539 59.16482162 C-15.48151713 53.6677426 -15.4804897 48.1708871 -15.49699783 42.6738224 C-15.51143321 37.50590937 -15.50143764 32.33860973 -15.47252655 27.17076302 C-15.46591079 25.27327684 -15.46782176 23.37573911 -15.47883987 21.47827339 C-15.49248784 18.88937641 -15.47539015 16.30244949 -15.45043945 13.71367836 C-15.46159306 12.9612454 -15.47274667 12.20881245 -15.48423827 11.43357849 C-15.41741448 7.8635709 -14.98063819 5.85996834 -12.88966596 2.93768656 C-8.57681973 -0.30097781 -5.26237292 -0.06609493 0 0 Z " fill="#1F3660" transform="translate(14.815521240234375,195.37079429626465)"/>
<path d="M0 0 C7.6536237 3.17345373 12.34966644 11.75654975 16.6875 18.4375 C19.80187057 23.20126574 22.92490257 27.94004368 26.2578125 32.5546875 C26.77126221 33.27213135 27.28471191 33.9895752 27.8137207 34.72875977 C28.79246832 36.08950434 29.78276343 37.44203741 30.78588867 38.78491211 C32.65304769 41.4007205 33.98558056 43.27680953 34.05078125 46.546875 C32.67034686 49.76959916 30.87196318 52.57518611 28.875 55.4375 C28.43833008 56.07800293 28.00166016 56.71850586 27.55175781 57.37841797 C26.57613808 58.80760352 25.5967566 60.23422612 24.61425781 61.65869141 C22.27767824 65.04765058 19.9605572 68.44979712 17.64160156 71.85083008 C16.37615345 73.70670087 15.10987145 75.56200333 13.84277344 77.41674805 C9.23297318 84.16981367 4.66372596 90.94896973 0.125 97.75 C-0.47602539 98.64928223 -1.07705078 99.54856445 -1.69628906 100.47509766 C-2.24768555 101.30315918 -2.79908203 102.1312207 -3.3671875 102.984375 C-3.85300293 103.71366211 -4.33881836 104.44294922 -4.83935547 105.19433594 C-7.28706039 109.00233459 -7.66177463 112.54405086 -7 117 C-5.12984906 119.43119623 -3.71861655 120.64069173 -1 122 C1.74039529 122.01833947 4.453137 121.97526227 7.19067383 121.88793945 C8.94795613 121.84185235 10.70526698 121.79684469 12.46260071 121.75276184 C13.39780359 121.72862528 14.33300648 121.70448872 15.29654884 121.67962074 C21.29788529 121.54283049 27.30064453 121.49418975 33.30318165 121.43703938 C38.57288711 121.38200359 43.83696983 121.29104985 49.10424805 121.11889648 C83.2366207 120.04259984 83.2366207 120.04259984 91.19134521 124.98138428 C95.7580067 129.51725801 98.42359693 134.61184637 100.29667664 140.73674011 C100.93049279 143.02477161 100.93049279 143.02477161 102.10237122 145.07148743 C103.56498755 148.21384877 102.7758851 150.71740919 102 154 C100.10466125 156.58455285 99.11173483 156.96275506 96 158 C93.35145452 158.10219209 90.72894557 158.14780851 88.08010864 158.14717102 C87.26436273 158.15084771 86.44861681 158.1545244 85.60815132 158.1583125 C82.86522607 158.16935621 80.12233869 158.17319431 77.37939453 158.17700195 C75.41664509 158.18326596 73.45389685 158.1899127 71.4911499 158.19691467 C66.15232325 158.21432726 60.81350555 158.22487662 55.47465754 158.2331202 C52.14098994 158.23826862 48.80732514 158.24434435 45.47365952 158.25063133 C35.04856187 158.26968205 24.62347132 158.28391482 14.19835961 158.2922433 C2.15416885 158.30202363 -9.88983851 158.32836445 -21.93396461 158.36874419 C-31.23763719 158.39886888 -40.54125708 158.41370861 -49.8449775 158.41702431 C-55.40468803 158.41937848 -60.9642026 158.42838689 -66.52386093 158.45348549 C-71.75235419 158.47670814 -76.98052164 158.48102285 -82.20905304 158.47072411 C-84.12913469 158.47022726 -86.04923207 158.47659132 -87.96926498 158.49028015 C-90.58861732 158.50791167 -93.20678924 158.50093651 -95.82614136 158.48774719 C-96.58772045 158.49871644 -97.34929954 158.50968568 -98.13395679 158.52098733 C-101.75898597 158.47685186 -103.8356238 158.10329679 -106.93274117 156.1570158 C-109.07535915 153.92136888 -110.15905773 152.2979942 -110.37890625 149.16015625 C-108.81292708 140.23246058 -100.86522181 131.87063491 -95.6015625 124.62890625 C-92.99332341 121.02236803 -90.51563957 117.33821423 -88.0625 113.625 C-84.73354219 108.59211759 -81.36575054 103.59082315 -77.9375 98.625 C-73.13560466 91.66683122 -68.37547848 84.6808653 -63.625 77.6875 C-58.13253968 69.60249735 -52.62855244 61.52577349 -47.10083008 53.46484375 C-43.40954888 48.07581257 -39.74307656 42.67036748 -36.08378601 37.25959778 C-32.43293042 31.86234601 -28.77157805 26.47230835 -25.10253906 21.08740234 C-23.82344159 19.20915494 -22.54623625 17.32961472 -21.27246094 15.44775391 C-19.92194393 13.45717102 -18.55844585 11.47654056 -17.1875 9.5 C-16.50042969 8.4996875 -15.81335938 7.499375 -15.10546875 6.46875 C-10.72297445 1.33009249 -6.76445195 -0.86093025 0 0 Z " fill="#FDFEFE" transform="translate(136,217)"/>
<path d="M0 0 C7.19275384 2.7413892 12.00944777 14.10734213 16.15625 20.3984375 C18.8351454 24.45308252 21.56949777 28.46813192 24.31445312 32.47827148 C26.21969299 35.26218701 28.11822534 38.05057992 30.015625 40.83984375 C32.48954406 44.47634626 34.97551761 48.10402587 37.47433472 51.72346497 C39.34961692 54.44686412 41.20833946 57.18155391 43.0703125 59.9140625 C44.13983154 61.45211548 44.13983154 61.45211548 45.23095703 63.02124023 C45.87919434 63.97844971 46.52743164 64.93565918 47.1953125 65.921875 C47.77539062 66.76637207 48.35546875 67.61086914 48.953125 68.48095703 C50.0703125 70.7890625 50.0703125 70.7890625 49.0703125 74.7890625 C16.0703125 74.7890625 -16.9296875 74.7890625 -50.9296875 74.7890625 C-51.9296875 70.7890625 -51.9296875 70.7890625 -50.1484375 67.671875 C-49.25430391 66.41059336 -48.34689456 65.15866584 -47.4296875 63.9140625 C-46.40262399 62.47208144 -45.37664045 61.02933073 -44.3515625 59.5859375 C-43.79662109 58.81185547 -43.24167969 58.03777344 -42.66992188 57.24023438 C-39.60739535 52.92657468 -36.65014727 48.54137795 -33.6796875 44.1640625 C-32.403964 42.29144987 -31.12791794 40.41905696 -29.8515625 38.546875 C-27.19441755 34.64644207 -24.53842742 30.74522477 -21.8828125 26.84375 C-21.22055664 25.87131348 -20.55830078 24.89887695 -19.87597656 23.89697266 C-18.6221608 22.05588293 -17.36886497 20.21443895 -16.11621094 18.37255859 C-14.39218835 15.8413931 -12.6616308 13.31481315 -10.9296875 10.7890625 C-10.29546875 9.85642578 -9.66125 8.92378906 -9.0078125 7.96289062 C-8.38390625 7.05474609 -7.76 6.14660156 -7.1171875 5.2109375 C-6.55386719 4.3869043 -5.99054688 3.56287109 -5.41015625 2.71386719 C-3.67289971 0.45520449 -2.87767015 -0.31456313 0 0 Z " fill="#1F365F" transform="translate(188.9296875,256.2109375)"/>
<path d="M0 0 C5.54260068 4.85270402 9.52328499 11.4951272 13.5 17.625 C14.72940378 19.49419047 15.95990852 21.36265719 17.19140625 23.23046875 C17.81934082 24.1848584 18.44727539 25.13924805 19.09423828 26.12255859 C22.16427634 30.75789918 25.29970052 35.34787671 28.4375 39.9375 C29.35414429 41.2843689 29.35414429 41.2843689 30.28930664 42.65844727 C33.58624859 47.49715257 36.91422982 52.31132176 40.28125 57.1015625 C40.97677979 58.09937744 41.67230957 59.09719238 42.38891602 60.12524414 C43.72617725 62.04260678 45.07263924 63.95359436 46.42944336 65.85717773 C47.02893799 66.72028564 47.62843262 67.58339355 48.24609375 68.47265625 C48.77904053 69.22812744 49.3119873 69.98359863 49.86108398 70.76196289 C51.25975791 73.5104396 51.59680358 74.96186388 51 78 C48.10837598 81.18871684 45.82232795 82.2608088 41.6292572 82.50120544 C39.85834613 82.52187632 38.08709405 82.52050682 36.31616211 82.50170898 C35.34650009 82.50711197 34.37683807 82.51251495 33.37779236 82.51808167 C30.17733096 82.53057408 26.97776813 82.51407523 23.77734375 82.49609375 C21.55204725 82.49624871 19.32675048 82.49773724 17.10145569 82.50050354 C12.44015558 82.50188773 7.7791631 82.48932485 3.11791992 82.46655273 C-2.86000844 82.43815185 -8.83742626 82.44090978 -14.81539249 82.45364285 C-19.40930043 82.46059365 -24.00309012 82.45281781 -28.59698296 82.44038582 C-30.80142196 82.43586668 -33.00587363 82.43553854 -35.2103138 82.43945122 C-38.28899342 82.44235793 -41.36696627 82.42588239 -44.44555664 82.40405273 C-45.35839417 82.40855438 -46.27123169 82.41305603 -47.21173096 82.41769409 C-53.34140712 82.34539084 -53.34140712 82.34539084 -56.55223083 80.66151428 C-58.36896832 78.5765581 -58.77299504 76.90325467 -58.60546875 74.14990234 C-57.18414363 69.10305194 -53.57076632 64.97275137 -50.5 60.8125 C-49.01104042 58.73746574 -47.52275022 56.66195098 -46.03515625 54.5859375 C-45.32504395 53.60592773 -44.61493164 52.62591797 -43.88330078 51.61621094 C-41.82966583 48.76337814 -39.86416689 45.87706782 -37.9375 42.9375 C-29.87707441 30.73069139 -21.63268911 18.63163752 -13.1875 6.6875 C-12.78547363 6.11338379 -12.38344727 5.53926758 -11.96923828 4.94775391 C-8.46505069 0.03636077 -6.12693404 -0.90397388 0 0 Z M-7.43017578 5.13500977 C-9.93321361 7.92554263 -12.03242795 10.72715078 -14.1171875 13.83984375 C-14.49118683 14.3946492 -14.86518616 14.94945465 -15.2505188 15.52107239 C-16.46379089 17.32317281 -17.6693304 19.13030662 -18.875 20.9375 C-19.72204634 22.19800122 -20.56970983 23.45808791 -21.41796875 24.71777344 C-23.1320566 27.2640103 -24.84376078 29.81182265 -26.55371094 32.36083984 C-30.00988359 37.50823388 -33.50443878 42.62930943 -37 47.75 C-37.60118652 48.63534424 -38.20237305 49.52068848 -38.82177734 50.43286133 C-41.64045328 54.57854411 -44.48546941 58.6989147 -47.40625 62.7734375 C-47.93089844 63.51239258 -48.45554688 64.25134766 -48.99609375 65.01269531 C-49.96711215 66.37653479 -50.94822843 67.73326662 -51.94140625 69.08105469 C-53.38218761 71.0513561 -53.38218761 71.0513561 -55 74 C-54.67 75.32 -54.34 76.64 -54 78 C-21 78 12 78 46 78 C47.40304358 74.20392001 47.40304358 74.20392001 45.8828125 71.69189453 C45.30273438 70.84739746 44.72265625 70.00290039 44.125 69.1328125 C43.47716553 68.17616699 42.82933105 67.21952148 42.16186523 66.23388672 C41.44844971 65.2079541 40.73503418 64.18202148 40 63.125 C38.8900187 61.49643799 37.78003993 59.86787424 36.67027283 58.23916626 C35.5284579 56.56832316 34.38070221 54.90172241 33.23095703 53.23632812 C31.18231145 50.26446931 29.14806215 47.28354446 27.12109375 44.296875 C24.67527924 40.6941606 22.22225178 37.09658437 19.76171875 33.50390625 C17.10591761 29.62429176 14.46489299 25.73506157 11.83203125 21.83984375 C11.14890869 20.83131348 10.46578613 19.8227832 9.76196289 18.78369141 C8.45002692 16.84627353 7.14050118 14.9072207 5.83374023 12.96630859 C5.24407471 12.09699707 4.65440918 11.22768555 4.046875 10.33203125 C3.52963867 9.56608643 3.01240234 8.8001416 2.47949219 8.01098633 C1.08592902 6.11679824 -0.18196073 4.49279643 -2 3 C-5.16350728 2.66999496 -5.16350728 2.66999496 -7.43017578 5.13500977 Z " fill="#EAF0F6" transform="translate(192,253)"/>
<path d="M0 0 C5.05411317 2.62065127 7.8219778 5.4579521 10.1875 10.5625 C12.03161369 18.36451945 11.9025524 26.82851994 8 34 C5.31236505 36.99581709 2.14456883 39.7383626 -1.953125 40.23828125 C-7.48803975 40.41713054 -10.77403489 39.93113033 -15 36 C-20.11593143 29.1338815 -19.95815983 21.17748556 -19.27929688 12.90527344 C-18.49235329 7.53699746 -15.6499496 4.46662186 -11.75 1 C-7.76022072 -0.45082883 -4.19164495 -0.67273314 0 0 Z " fill="#F3F5F8" transform="translate(276,292)"/>
<path d="M0 0 C2.97 0 5.94 0 9 0 C9 14.19 9 28.38 9 43 C2.89306775 45.03564408 -1.66288177 45.77327931 -8 45 C-13.14853681 42.4257316 -16.182008 39.45397599 -18 34 C-18.60277077 28.0186593 -18.02557945 23.32084663 -15 18 C-12.63435481 15.2042375 -11.1237765 14.1051386 -7.453125 13.76171875 C-4.96750297 13.75118645 -2.48211673 13.86762044 0 14 C0 9.38 0 4.76 0 0 Z " fill="#F0F3F6" transform="translate(423,287)"/>
<path d="M0 0 C1.96066406 0.00966797 1.96066406 0.00966797 3.9609375 0.01953125 C7.625 0.1875 7.625 0.1875 10.4765625 0.76171875 C12.66406905 1.42319848 12.66406905 1.42319848 14.625 0.1875 C25.03104586 -0.75012008 25.03104586 -0.75012008 29.8125 2.0625 C32.67233191 5.41540637 32.7454896 7.29447573 32.72265625 11.6328125 C32.71943359 12.70917969 32.71621094 13.78554688 32.71289062 14.89453125 C32.70032227 16.58642578 32.70032227 16.58642578 32.6875 18.3125 C32.68298828 19.44816406 32.67847656 20.58382813 32.67382812 21.75390625 C32.66201615 24.56515638 32.64554507 27.3763023 32.625 30.1875 C29.655 30.1875 26.685 30.1875 23.625 30.1875 C23.59994385 29.49599854 23.5748877 28.80449707 23.54907227 28.09204102 C23.43347839 24.97782134 23.31058758 21.86393211 23.1875 18.75 C23.14818359 17.66138672 23.10886719 16.57277344 23.06835938 15.45117188 C23.02646484 14.41669922 22.98457031 13.38222656 22.94140625 12.31640625 C22.88641968 10.87890015 22.88641968 10.87890015 22.83032227 9.41235352 C22.86665576 7.21611075 22.86665576 7.21611075 21.625 6.1875 C19.975 6.1875 18.325 6.1875 16.625 6.1875 C16.295 14.1075 15.965 22.0275 15.625 30.1875 C12.655 30.1875 9.685 30.1875 6.625 30.1875 C6.13 18.8025 6.13 18.8025 5.625 7.1875 C3.315 6.5275 1.005 5.8675 -1.375 5.1875 C-1.375 13.4375 -1.375 21.6875 -1.375 30.1875 C-4.345 30.1875 -7.315 30.1875 -10.375 30.1875 C-10.44909401 26.23657941 -10.50357406 22.28592706 -10.53979492 18.33447266 C-10.56232251 16.32830626 -10.6004357 14.32233474 -10.63867188 12.31640625 C-10.64833984 11.05957031 -10.65800781 9.80273438 -10.66796875 8.5078125 C-10.6836792 7.34523926 -10.69938965 6.18266602 -10.71557617 4.98486328 C-10.60318604 4.0617334 -10.4907959 3.13860352 -10.375 2.1875 C-6.60154443 -0.32813705 -4.49765107 -0.04859937 0 0 Z " fill="#F6F9FC" transform="translate(472.375,300.8125)"/>
<path d="M0 0 C2.97 0 5.94 0 9 0 C9 4.62 9 9.24 9 14 C10.546875 13.9175 12.09375 13.835 13.6875 13.75 C17.35263183 13.75 18.75825138 13.85897997 22 15.75 C26.33476645 20.62661226 26.37390623 24.72025508 26.25 31.0859375 C25.813296 36.17626845 24.19673534 38.89301981 20.5 42.3125 C16.78547106 44.81980704 13.9473533 45.15775201 9.5625 45.1875 C8.14130859 45.20876953 8.14130859 45.20876953 6.69140625 45.23046875 C4 45 4 45 0 43 C0 28.81 0 14.62 0 0 Z " fill="#F6F8FA" transform="translate(342,287)"/>
<path d="M0 0 C3.82414212 2.70488101 6.07909586 5.36228759 7.5625 9.8125 C8.34354189 16.30411043 7.39036017 21.44845911 3.5625 26.8125 C-0.67463684 30.68645368 -4.98511716 30.05663654 -10.4375 29.8125 C-10.4375 33.7725 -10.4375 37.7325 -10.4375 41.8125 C-13.4075 41.8125 -16.3775 41.8125 -19.4375 41.8125 C-19.4375 28.2825 -19.4375 14.7525 -19.4375 0.8125 C-12.81618816 -1.83602474 -6.81202923 -2.35324646 0 0 Z " fill="#F3F6F9" transform="translate(462.4375,245.1875)"/>
<path d="M0 0 C1.30710937 -0.00257813 2.61421875 -0.00515625 3.9609375 -0.0078125 C7.01223566 0.10278893 9.65319353 0.53063871 12.625 1.125 C13.285 0.795 13.945 0.465 14.625 0.125 C16.55623211 -0.07468426 18.4969689 -0.18778815 20.4375 -0.25 C21.47519531 -0.29898437 22.51289063 -0.34796875 23.58203125 -0.3984375 C26.625 0.125 26.625 0.125 29.4921875 1.84765625 C32.82858622 6.97446674 32.15485784 11.96851934 31.9375 17.9375 C31.91494141 19.10732422 31.89238281 20.27714844 31.86914062 21.48242188 C31.81032091 24.36458769 31.72817141 27.24413681 31.625 30.125 C28.985 30.125 26.345 30.125 23.625 30.125 C23.295 22.535 22.965 14.945 22.625 7.125 C18.64328262 6.4040955 18.64328262 6.4040955 14.625 6.125 C14.625 14.045 14.625 21.965 14.625 30.125 C11.985 30.125 9.345 30.125 6.625 30.125 C6.13 18.74 6.13 18.74 5.625 7.125 C3.315 6.795 1.005 6.465 -1.375 6.125 C-1.705 14.045 -2.035 21.965 -2.375 30.125 C-5.015 30.125 -7.655 30.125 -10.375 30.125 C-10.375 20.555 -10.375 10.985 -10.375 1.125 C-6.767112 -0.07762933 -3.80281238 -0.00747114 0 0 Z " fill="#FBFDFD" transform="translate(303.375,300.875)"/>
<path d="M0 0 C3.86605349 1.40646749 5.71414911 3.57122367 8 7 C8.78613611 12.34572552 9.00564773 16.6312017 5.75 21.0625 C4.8425 21.701875 3.935 22.34125 3 23 C2.401875 23.433125 1.80375 23.86625 1.1875 24.3125 C-2.22532024 25.38510065 -5.43420254 25.11885992 -9 25 C-9 29.62 -9 34.24 -9 39 C-11.97 39 -14.94 39 -18 39 C-18 26.79 -18 14.58 -18 2 C-12.12019814 -0.93990093 -6.47347319 -0.62331586 0 0 Z " fill="#F6FAFB" transform="translate(379,236)"/>
<path d="M0 0 C3.92537491 2.07378297 6.75406336 4.16641849 9 8 C9.43359375 11.4609375 9.43359375 11.4609375 9.4375 15.375 C9.46650391 17.30472656 9.46650391 17.30472656 9.49609375 19.2734375 C8.922518 23.58203018 7.77803502 25.68979307 5 29 C0.79797258 31.91104309 -4.08858209 31.75143145 -9 31 C-12.61481456 29.28111879 -14.58311355 26.8337729 -16.375 23.25 C-17.72735011 16.21777943 -17.73399203 10.34778644 -14 4 C-9.64917421 0.05390219 -5.69375743 -1.13647853 0 0 Z " fill="#F5F7FA" transform="translate(428,244)"/>
<path d="M0 0 C2.97 0 5.94 0 9 0 C9 2.97 9 5.94 9 9 C9.66 8.67 10.32 8.34 11 8 C16.39575915 7.64617973 19.55988065 7.60461462 24 11 C26 13 26 13 26.22705078 15.61376953 C26.21657715 16.69255371 26.20610352 17.77133789 26.1953125 18.8828125 C26.18886719 20.04941406 26.18242187 21.21601563 26.17578125 22.41796875 C26.15902344 23.64128906 26.14226562 24.86460937 26.125 26.125 C26.11597656 27.35605469 26.10695313 28.58710938 26.09765625 29.85546875 C26.07402548 32.90383815 26.04108054 35.95182382 26 39 C23.03 39 20.06 39 17 39 C16.505 27.12 16.505 27.12 16 15 C13.69 14.67 11.38 14.34 9 14 C9 22.25 9 30.5 9 39 C6.03 39 3.06 39 0 39 C0 26.13 0 13.26 0 0 Z " fill="#EEF1F5" transform="translate(283,236)"/>
<path d="M0 0 C1.20269531 -0.04898437 2.40539062 -0.09796875 3.64453125 -0.1484375 C7.14020864 0.36801318 9.46208044 1.04889989 12.07788086 3.50292969 C14.58425288 7.73150189 13.77874315 12.94401248 13.5625 17.6875 C13.53542969 18.80962891 13.50835938 19.93175781 13.48046875 21.08789062 C13.40989001 23.85222459 13.31134488 26.61262415 13.1875 29.375 C9.16011071 31.09108116 6.08926148 31.67207327 1.6875 31.6875 C0.03234375 31.71263672 0.03234375 31.71263672 -1.65625 31.73828125 C-5.14633897 31.33657547 -6.9993351 30.43563066 -9.8125 28.375 C-12.13356991 25.16971299 -12.36655751 22.25340257 -11.8125 18.375 C-8.67045078 14.30881865 -5.80324679 12.49537173 -0.8125 11.375 C2.5625 11.25 2.5625 11.25 5.1875 11.375 C4.5275 9.725 3.8675 8.075 3.1875 6.375 C-0.7725 6.375 -4.7325 6.375 -8.8125 6.375 C-9.1425 4.725 -9.4725 3.075 -9.8125 1.375 C-6.40336808 0.23862269 -3.59192072 0.0994568 0 0 Z " fill="#F4F7F9" transform="translate(521.8125,300.625)"/>
<path d="M0 0 C1.06154297 -0.0309375 1.06154297 -0.0309375 2.14453125 -0.0625 C6.67950401 -0.09628006 9.54563357 0.42348924 13.125 3.25 C15.42255922 6.69633882 15.36143976 7.96068391 15.3203125 12.01171875 C15.31386719 13.12998047 15.30742188 14.24824219 15.30078125 15.40039062 C15.28402344 16.56763672 15.26726563 17.73488281 15.25 18.9375 C15.24097656 20.11634766 15.23195313 21.29519531 15.22265625 22.50976562 C15.19906423 25.42338026 15.1661454 28.33658892 15.125 31.25 C12.155 31.25 9.185 31.25 6.125 31.25 C5.63 19.37 5.63 19.37 5.125 7.25 C2.815 6.59 0.505 5.93 -1.875 5.25 C-1.875 13.83 -1.875 22.41 -1.875 31.25 C-4.845 31.25 -7.815 31.25 -10.875 31.25 C-10.875 21.35 -10.875 11.45 -10.875 1.25 C-7.21649645 0.03049882 -3.81096431 0.02746641 0 0 Z " fill="#EFF2F5" transform="translate(552.875,300.75)"/>
<path d="M0 0 C4.82942294 1.60980765 7.06011718 3.74274975 9.31640625 8.15234375 C10.31486683 10.85104007 10.33731497 13.16655429 10 16 C7.85531351 18.14468649 3.41555106 17.7395788 0.4375 18.0625 C-0.36880859 18.15337891 -1.17511719 18.24425781 -2.00585938 18.33789062 C-4.00347377 18.56247449 -6.0016856 18.78173236 -8 19 C-6.94352227 21.5963677 -6.94352227 21.5963677 -5 24 C-2.03618482 24.60481772 -2.03618482 24.60481772 1.1875 24.3125 C2.27417969 24.26738281 3.36085938 24.22226562 4.48046875 24.17578125 C5.31191406 24.11777344 6.14335937 24.05976563 7 24 C7.33 25.98 7.66 27.96 8 30 C2.519989 31.82667033 -3.29519972 31.58853743 -9 31 C-12.1875 28.875 -12.1875 28.875 -14 26 C-14.598125 25.0925 -15.19625 24.185 -15.8125 23.25 C-17.79875204 17.81394178 -17.7635681 13.12995311 -15.8125 7.6875 C-11.58874579 1.42469203 -7.37192612 -0.49146174 0 0 Z " fill="#EFF2F6" transform="translate(491,244)"/>
<path d="M0 0 C3.20824247 1.49717982 5.72932114 3.27518536 8 6 C9.28317892 9.84953676 9.06643637 12.94738135 9 17 C7.66195313 17.19916016 7.66195313 17.19916016 6.296875 17.40234375 C5.12640625 17.57894531 3.9559375 17.75554687 2.75 17.9375 C1.58984375 18.11152344 0.4296875 18.28554688 -0.765625 18.46484375 C-3.23106961 18.8727736 -5.59424562 19.33901303 -8 20 C-7.34 21.32 -6.68 22.64 -6 24 C-1.71 24 2.58 24 7 24 C7.33 25.98 7.66 27.96 8 30 C2.26357624 31.91214125 -5.51974369 32.44439976 -11.18359375 30.09375 C-14.69485396 27.36179692 -16.1785131 24.27173187 -17 20 C-17.60285327 14.00435019 -17.12517616 9.31279947 -14 4 C-9.33721547 -0.22903713 -6.0241897 -0.66935441 0 0 Z " fill="#F1F4F8" transform="translate(332,244)"/>
<path d="M0 0 C2.97 0 5.94 0 9 0 C9.02505615 0.69150146 9.0501123 1.38300293 9.07592773 2.09545898 C9.19152161 5.20967866 9.31441242 8.32356789 9.4375 11.4375 C9.47681641 12.52611328 9.51613281 13.61472656 9.55664062 14.73632812 C9.61948242 16.28803711 9.61948242 16.28803711 9.68359375 17.87109375 C9.72025146 18.82943115 9.75690918 19.78776855 9.79467773 20.77514648 C9.75834424 22.97138925 9.75834424 22.97138925 11 24 C12.65 24 14.3 24 16 24 C16.33 16.08 16.66 8.16 17 0 C19.64 0 22.28 0 25 0 C25 9.57 25 19.14 25 29 C20.46847661 30.81260936 18.20612641 31.29600657 13.5 31.3125 C11.84484375 31.33763672 11.84484375 31.33763672 10.15625 31.36328125 C6.61559187 30.955755 4.79867294 30.18276781 2 28 C-0.08289097 24.75377785 -0.23587549 22.17229642 -0.1953125 18.359375 C-0.18886719 17.28945313 -0.18242187 16.21953125 -0.17578125 15.1171875 C-0.15902344 14.00601562 -0.14226562 12.89484375 -0.125 11.75 C-0.11597656 10.62335938 -0.10695313 9.49671875 -0.09765625 8.3359375 C-0.07410658 5.55707635 -0.0412168 2.7786461 0 0 Z " fill="#F7FAFC" transform="translate(374,301)"/>
<path d="M0 0 C2.97 0 5.94 0 9 0 C9.27714844 1.07121094 9.55429687 2.14242187 9.83984375 3.24609375 C10.20554924 4.64327627 10.57144446 6.04040915 10.9375 7.4375 C11.11990234 8.14455078 11.30230469 8.85160156 11.49023438 9.58007812 C12.18149374 13.07574861 12.18149374 13.07574861 14 16 C14.27714844 14.92878906 14.55429687 13.85757812 14.83984375 12.75390625 C15.20554924 11.35672373 15.57144446 9.95959085 15.9375 8.5625 C16.11990234 7.85544922 16.30230469 7.14839844 16.49023438 6.41992188 C17.88671875 1.11328125 17.88671875 1.11328125 19 0 C21.67058851 -0.14115161 24.32432238 -0.04247107 27 0 C22.83795641 14.05642562 18.48424886 28.04310711 14 42 C11.03 42 8.06 42 5 42 C5.4912183 39.21642962 6.09141873 36.76637436 7.125 34.125 C9.12181112 26.99353172 5.79072357 19.96950174 3.4375 13.25 C2.78624954 11.38163763 2.13892848 9.5118996 1.49609375 7.640625 C1.20919678 6.82110352 0.9222998 6.00158203 0.62670898 5.15722656 C0 3 0 3 0 0 Z " fill="#F6F9FB" transform="translate(545,245)"/>
<path d="M0 0 C7.26 0 14.52 0 22 0 C22 1.98 22 3.96 22 6 C20.02 6 18.04 6 16 6 C16 16.89 16 27.78 16 39 C13.03 39 10.06 39 7 39 C7 28.11 7 17.22 7 6 C4.69 6 2.38 6 0 6 C0 4.02 0 2.04 0 0 Z " fill="#F6F8FA" transform="translate(256,236)"/>
<path d="M0 0 C0 2.97 0 5.94 0 9 C1.32 9 2.64 9 4 9 C4 10.65 4 12.3 4 14 C2.68 14 1.36 14 0 14 C0.33 19.94 0.66 25.88 1 32 C2.32 32.33 3.64 32.66 5 33 C5 34.98 5 36.96 5 39 C3.60696395 39.13657216 2.20993879 39.23271149 0.8125 39.3125 C0.03519531 39.37050781 -0.74210938 39.42851562 -1.54296875 39.48828125 C-5.43488518 38.71484794 -6.71724229 37.2151517 -9 34 C-9.59628097 30.53802152 -9.47325778 27.18707317 -9.3125 23.6875 C-9.28994141 22.75615234 -9.26738281 21.82480469 -9.24414062 20.86523438 C-9.18542078 18.5751604 -9.10336858 16.28842125 -9 14 C-9.99 14 -10.98 14 -12 14 C-12 12.35 -12 10.7 -12 9 C-11.01 9 -10.02 9 -9 9 C-9 6.69 -9 4.38 -9 2 C-7.68786298 1.66524067 -6.37527913 1.33223233 -5.0625 1 C-3.96615234 0.7215625 -3.96615234 0.7215625 -2.84765625 0.4375 C-1 0 -1 0 0 0 Z " fill="#F5F8FA" transform="translate(537,236)"/>
<path d="M0 0 C0.66 0.33 1.32 0.66 2 1 C1.67 2.98 1.34 4.96 1 7 C-1.31 6.67 -3.62 6.34 -6 6 C-5.96219702 8.37233611 -5.96219702 8.37233611 -5 11 C-2.14748615 13.17946646 -2.14748615 13.17946646 1 15 C3.58698397 16.89712158 3.92864841 17.59864732 4.5 20.8125 C3.80264723 25.25812389 2.17025594 26.82974406 -1 30 C-5.03266611 31.34422204 -8.78005323 31.45703395 -13 31 C-15.5625 29.5 -15.5625 29.5 -17 28 C-16.34 26.68 -15.68 25.36 -15 24 C-12.36 24 -9.72 24 -7 24 C-6.67 22.68 -6.34 21.36 -6 20 C-6.63808594 19.59007812 -7.27617187 19.18015625 -7.93359375 18.7578125 C-8.75988281 18.21898437 -9.58617187 17.68015625 -10.4375 17.125 C-11.26121094 16.59132813 -12.08492188 16.05765625 -12.93359375 15.5078125 C-15 14 -15 14 -16 12 C-16.54317976 8.01668176 -16.10916574 6.20327414 -14.1875 2.625 C-10.46291473 -1.49787907 -5.10902459 -0.64994033 0 0 Z " fill="#F2F6F9" transform="translate(453,301)"/>
<path d="M0 0 C1.46373047 0.02707031 1.46373047 0.02707031 2.95703125 0.0546875 C3.69308594 0.07789063 4.42914062 0.10109375 5.1875 0.125 C4.8575 2.105 4.5275 4.085 4.1875 6.125 C2.2075 6.125 0.2275 6.125 -1.8125 6.125 C-1.8125 14.375 -1.8125 22.625 -1.8125 31.125 C-4.7825 31.125 -7.7525 31.125 -10.8125 31.125 C-10.8125 21.555 -10.8125 11.985 -10.8125 2.125 C-6.3670917 0.34683668 -4.53134603 -0.10918906 0 0 Z " fill="#F3F6F9" transform="translate(516.8125,243.875)"/>
<path d="M0 0 C0.87398438 0.01804688 1.74796875 0.03609375 2.6484375 0.0546875 C3.62683594 0.08949219 3.62683594 0.08949219 4.625 0.125 C4.295 2.105 3.965 4.085 3.625 6.125 C1.645 6.125 -0.335 6.125 -2.375 6.125 C-2.375 14.375 -2.375 22.625 -2.375 31.125 C-5.345 31.125 -8.315 31.125 -11.375 31.125 C-11.375 21.555 -11.375 11.985 -11.375 2.125 C-6.67832986 0.55944329 -4.58706998 -0.12397486 0 0 Z " fill="#F2F5F8" transform="translate(404.375,243.875)"/>
<path d="M0 0 C0 0.99 0 1.98 0 3 C-3.06039141 5.04026094 -3.6433377 5.24931284 -7.08122253 5.24050903 C-7.90993362 5.24325836 -8.73864471 5.24600769 -9.59246826 5.24884033 C-10.49805481 5.24164978 -11.40364136 5.23445923 -12.33666992 5.22705078 C-13.29295792 5.22734283 -14.24924591 5.22763489 -15.23451233 5.22793579 C-18.39992298 5.22654085 -21.56509915 5.2109718 -24.73046875 5.1953125 C-26.92336397 5.19158296 -29.11626085 5.18873571 -31.30915833 5.18673706 C-37.08450918 5.17909599 -42.85975965 5.15944337 -48.6350708 5.1373291 C-54.52688234 5.11688091 -60.41871009 5.10773754 -66.31054688 5.09765625 C-77.87374205 5.07619798 -89.43686268 5.04205627 -101 5 C-100.67 4.01 -100.34 3.02 -100 2 C-98.76194107 1.98969254 -97.52388214 1.97938507 -96.24830627 1.96876526 C-84.60809571 1.87121254 -72.96794077 1.76849616 -61.32782078 1.66066074 C-55.34283395 1.60538283 -49.35784228 1.55195519 -43.37280273 1.50268555 C-37.60212227 1.45511364 -31.83150332 1.40277371 -26.06089592 1.34705925 C-23.85398824 1.32660308 -21.64706366 1.30789553 -19.44012642 1.29092598 C-16.36049384 1.26695392 -13.28097874 1.2368899 -10.20141602 1.20532227 C-8.81822426 1.19668907 -8.81822426 1.19668907 -7.40708923 1.18788147 C-3.38245564 1.5441069 -3.38245564 1.5441069 0 0 Z " fill="#F9FEFE" transform="translate(241,330)"/>
<path d="M0 0 C1.32 0.33 2.64 0.66 4 1 C-1.79430283 10.19845575 -7.69865698 19.31774066 -13.953125 28.2109375 C-14.4574707 28.93192627 -14.96181641 29.65291504 -15.48144531 30.39575195 C-16.4799294 31.82043785 -17.4843346 33.24099551 -18.49511719 34.65698242 C-21.28315812 38.45858411 -21.28315812 38.45858411 -22 43 C26.51 43.495 26.51 43.495 76 44 C76 44.33 76 44.66 76 45 C28.975 45.495 28.975 45.495 -19 46 C-19.33 46.66 -19.66 47.32 -20 48 C-24.875 46.125 -24.875 46.125 -26 45 C-26.97285734 39.75658506 -25.72782047 37.11206046 -22.78125 32.70703125 C-21.37017519 30.7306594 -19.94225437 28.76623492 -18.5 26.8125 C-17.02790263 24.76225217 -15.55654076 22.71147604 -14.0859375 20.66015625 C-13.37791992 19.68320801 -12.66990234 18.70625977 -11.94042969 17.69970703 C-8.48559889 12.89302372 -5.24499395 7.94999077 -2 3 C-1.34 2.01 -0.68 1.02 0 0 Z " fill="#CED5E1" transform="translate(160,287)"/>
<path d="M0 0 C2.375 0.3125 2.375 0.3125 5 1 C7.69799198 5.04698797 7.33137116 8.12701565 7.3125 12.875 C7.32861328 13.67808594 7.34472656 14.48117187 7.36132812 15.30859375 C7.36517294 19.97619729 7.14814302 23.27743278 4 27 C1.3125 27.3125 1.3125 27.3125 -1 27 C-3.78420368 22.28088554 -4.49283515 18.32513168 -4.4375 12.9375 C-4.45748047 12.24333984 -4.47746094 11.54917969 -4.49804688 10.83398438 C-4.49339077 5.93111046 -3.41937469 3.473543 0 0 Z " fill="#22375E" transform="translate(270,298)"/>
<path d="M0 0 C0 6.6 0 13.2 0 20 C-6 20 -6 20 -7.8515625 18.375 C-9.27936448 15.42226666 -9.3995501 13.27334725 -9.375 10 C-9.38273437 8.96875 -9.39046875 7.9375 -9.3984375 6.875 C-8.48384445 0.27558348 -6.6814496 0 0 0 Z " fill="#293D62" transform="translate(423,306)"/>
<path d="M0 0 C5 0 5 0 6.75 1.3125 C9.76079237 5.3770697 9.36319166 10.17715265 9 15 C8 18.0625 8 18.0625 7 20 C4.69 20.33 2.38 20.66 0 21 C0 14.07 0 7.14 0 0 Z " fill="#25395F" transform="translate(452,249)"/>
<path d="M0 0 C6 0 6 0 7.8515625 1.66015625 C9.95343408 5.94254085 9.49545577 10.34822079 9 15 C7.875 18.1875 7.875 18.1875 6 20 C4.02 20 2.04 20 0 20 C0 13.4 0 6.8 0 0 Z " fill="#273C61" transform="translate(351,306)"/>
<path d="M0 0 C1.2375 0.1546875 1.2375 0.1546875 2.5 0.3125 C4.80055997 3.76333995 4.77010256 5.18425728 4.75 9.25 C4.75515625 10.29027344 4.7603125 11.33054687 4.765625 12.40234375 C4.50629936 15.24348495 3.96519702 16.89957634 2.5 19.3125 C0.125 19.4375 0.125 19.4375 -2.5 19.3125 C-4.99210439 16.82039561 -4.76015661 15.30889212 -4.7734375 11.90234375 C-4.76570313 11.21269531 -4.75796875 10.52304687 -4.75 9.8125 C-4.75773437 9.12285156 -4.76546875 8.43320312 -4.7734375 7.72265625 C-4.74564237 0.5932053 -4.74564237 0.5932053 0 0 Z " fill="#2A3D61" transform="translate(424.5,249.6875)"/>
<path d="M0 0 C6 0 6 0 7.875 1 C9.68523932 4.21820324 9.53967465 7.40216898 9 11 C7.875 13 7.875 13 6 14 C4.02 14 2.04 14 0 14 C0 9.38 0 4.76 0 0 Z " fill="#283B5F" transform="translate(370,241)"/>
<path d="M0 0 C0 3.63 0 7.26 0 11 C-5.3820598 11.35880399 -5.3820598 11.35880399 -7.9375 9.875 C-9 8 -9 8 -8.875 4.9375 C-7.33478653 -0.23321666 -5.18756479 0 0 0 Z " fill="#2A3D60" transform="translate(527,316)"/>
<path d="M0 0 C3.29714793 0.32971479 4.6226839 0.6226839 7 3 C7 4.65 7 6.3 7 8 C3.7 8.33 0.4 8.66 -3 9 C-2.25 2.25 -2.25 2.25 0 0 Z " fill="#2C3F61" transform="translate(326,249)"/>
<path d="M0 0 C3.0625 0.1875 3.0625 0.1875 5.0625 2.1875 C5.0625 3.8375 5.0625 5.4875 5.0625 7.1875 C1.7625 7.5175 -1.5375 7.8475 -4.9375 8.1875 C-3.92735959 0.25068253 -3.92735959 0.25068253 0 0 Z " fill="#263A5D" transform="translate(486.9375,249.8125)"/>
<path d="M0 0 C0.66 0 1.32 0 2 0 C3.5078125 1.79296875 3.5078125 1.79296875 5.125 4.1875 C5.66382813 4.96480469 6.20265625 5.74210937 6.7578125 6.54296875 C8.13704931 9.27108181 8.24624707 10.98614999 8 14 C6.68 14.33 5.36 14.66 4 15 C3.731875 13.9275 3.46375 12.855 3.1875 11.75 C2.26142681 8.08010809 2.26142681 8.08010809 0.3125 5.8125 C-1 4 -1 4 -0.6875 1.75 C-0.460625 1.1725 -0.23375 0.595 0 0 Z " fill="#E4EAF1" transform="translate(235,317)"/>
<path d="M0 0 C0.33 0.66 0.66 1.32 1 2 C3.02463255 2.65213292 3.02463255 2.65213292 5 3 C3.68 4.65 2.36 6.3 1 8 C0.34 7.67 -0.32 7.34 -1 7 C-1.33 7.99 -1.66 8.98 -2 10 C-2.99 9.67 -3.98 9.34 -5 9 C-3.7508258 5.54074837 -2.32472205 2.85306797 0 0 Z " fill="#2F4165" transform="translate(143,303)"/>
<path d="M0 0 C0.99 0.33 1.98 0.66 3 1 C2.14285714 9.57142857 2.14285714 9.57142857 0 13 C-1.13764351 8.73383684 -2 5.43513689 -2 1 C-1.34 0.67 -0.68 0.34 0 0 Z " fill="#2D3F5E" transform="translate(558,252)"/>
<path d="M0 0 C2.375 0.8125 2.375 0.8125 3.375 2.8125 C2.2303125 2.7196875 2.2303125 2.7196875 1.0625 2.625 C-1.62601736 2.56163551 -1.62601736 2.56163551 -3.3125 4.125 C-4.48713226 5.63524148 -5.56371047 7.2205657 -6.625 8.8125 C-6.02768456 3.43666107 -6.02768456 3.43666107 -4.375 0.875 C-2.625 -0.1875 -2.625 -0.1875 0 0 Z " fill="#404F6E" transform="translate(272.625,298.1875)"/>
<path d="M0 0 C0.66 0 1.32 0 2 0 C1.34 1.65 0.68 3.3 0 5 C-1.32 5 -2.64 5 -4 5 C-3.67 4.01 -3.34 3.02 -3 2 C-2.34 2 -1.68 2 -1 2 C-0.67 1.34 -0.34 0.68 0 0 Z " fill="#243859" transform="translate(142,310)"/>
<path d="M0 0 C0.66 0 1.32 0 2 0 C0.8141763 3.37503669 -0.27573689 5.64722731 -3 8 C-2.45276317 4.62537285 -1.9451 2.91765 0 0 Z " fill="#334465" transform="translate(84,274)"/>
</svg>
