<?xml version="1.0" encoding="UTF-8"?>
<svg version="1.1" xmlns="http://www.w3.org/2000/svg" width="866" height="288">
<path d="M0 0 C13.02278213 -0.06983277 26.04551895 -0.12297918 39.06845093 -0.15543652 C45.1169908 -0.17102261 51.16540158 -0.19213058 57.21386719 -0.22631836 C63.06239065 -0.25916519 68.91079075 -0.27690593 74.75939941 -0.28463173 C76.97906432 -0.29013012 79.19872328 -0.30086564 81.41833496 -0.31719017 C104.1267822 -0.47740213 125.8301758 1.72082965 144 17 C144 17.66 144 18.32 144 19 C144.66 19 145.32 19 146 19 C157.24092978 32.012899 158.89047463 45.81265921 158.2265625 62.32470703 C157.29048311 73.37811001 151.11617004 82.38441505 143.125 89.6875 C139.33083214 92.8810467 135.29032405 95.52393532 131 98 C131.6290625 98.32871094 132.258125 98.65742188 132.90625 98.99609375 C142.07913586 104.09367641 149.38184472 110.97496869 153 121 C156.04966454 132.11213014 156.82823985 143.24373376 157.5625 154.6875 C157.72998776 157.27355922 157.90057748 159.85918726 158.08226013 162.44429016 C158.19422319 164.03746213 158.29817096 165.63122367 158.39295959 167.22550964 C158.6527756 170.92594066 158.89945536 172.84918303 161 176 C160.625 178.6875 160.625 178.6875 160 181 C152.79181655 181.07594813 145.58373595 181.12855678 138.37524414 181.16479492 C135.92207992 181.17989881 133.46894276 181.20038321 131.01586914 181.22631836 C127.49358445 181.26263057 123.97165619 181.27971036 120.44921875 181.29296875 C118.79910042 181.31619453 118.79910042 181.31619453 117.11564636 181.33988953 C115.58439873 181.34022942 115.58439873 181.34022942 114.0222168 181.34057617 C113.12286911 181.34723801 112.22352142 181.35389984 111.29692078 181.36076355 C108.52654844 180.92563781 107.66824483 180.21476918 106 178 C105.31787109 175.55883789 105.31787109 175.55883789 104.8984375 172.66015625 C104.74213867 171.58910645 104.58583984 170.51805664 104.42480469 169.41455078 C103.5791583 162.61730347 102.9213135 155.80141796 102.3203125 148.97851562 C101.34081684 139.23364687 99.62970689 128.78196168 92 122 C79.99217173 117.52514701 79.99217173 117.52514701 54 118 C54 138.46 54 158.92 54 180 C51.05665448 180.98111517 49.15224644 181.12661737 46.08544922 181.12939453 C44.58907425 181.13412277 44.58907425 181.13412277 43.06246948 181.13894653 C41.98740143 181.1369223 40.91233337 181.13489807 39.8046875 181.1328125 C38.70150177 181.13376923 37.59831604 181.13472595 36.46170044 181.13571167 C34.12990258 181.13639234 31.79810282 181.13454591 29.46630859 181.13037109 C25.88244411 181.12501113 22.29870438 181.13032515 18.71484375 181.13671875 C16.45312472 181.13605815 14.19140577 181.13477736 11.9296875 181.1328125 C10.85057098 181.13483673 9.77145447 181.13686096 8.65963745 181.13894653 C7.66835846 181.13579437 6.67707947 181.13264221 5.65576172 181.12939453 C4.77878632 181.12859894 3.90181091 181.12780334 2.9982605 181.12698364 C1 181 1 181 0 180 C-0.0976134 177.67232986 -0.12997765 175.37437981 -0.12025452 173.04624939 C-0.12110894 172.31035554 -0.12196337 171.57446169 -0.12284368 170.81626803 C-0.12450067 168.33183354 -0.11897356 165.84746545 -0.11352539 163.36303711 C-0.11324354 161.58951316 -0.11340121 159.81598909 -0.1139679 158.04246521 C-0.11425595 153.21208983 -0.1083579 148.38173906 -0.10139394 143.55136943 C-0.09516176 138.50914683 -0.09455671 133.46692373 -0.09336853 128.42469788 C-0.09025481 118.86949773 -0.08204088 109.31430897 -0.07201904 99.75911385 C-0.06085916 88.88384567 -0.05534777 78.00857695 -0.05032361 67.13330448 C-0.0398583 44.75553 -0.02225807 22.37776564 0 0 Z M54 42 C54 54.21 54 66.42 54 79 C62.415 79.0928125 62.415 79.0928125 71 79.1875 C72.75441406 79.21481201 74.50882813 79.24212402 76.31640625 79.27026367 C77.73176387 79.27903851 79.14712915 79.28668008 80.5625 79.29296875 C81.63467773 79.3159906 81.63467773 79.3159906 82.72851562 79.33947754 C88.74654602 79.34255215 94.02971563 78.07412647 99.05859375 74.5625 C103.52761558 69.4984526 104.25532609 64.65811874 104 58 C103.09644717 52.39797246 101.38464939 49.58744041 97 46 C91.99282247 42.93664877 88.01924933 42.53460192 82.3203125 42.48828125 C81.59900146 42.47164429 80.87769043 42.45500732 80.13452148 42.43786621 C77.46497124 42.38045502 74.7949327 42.34791116 72.125 42.3125 C63.153125 42.1578125 63.153125 42.1578125 54 42 Z " fill="#7E4197" transform="translate(234,53)"/>
<path d="M0 0 C0.658862 0.00182281 1.317724 0.00364563 1.99655151 0.00552368 C23.97854613 0.10783372 43.10554202 4.79046733 60.25 19.3125 C68.45710694 28.34820909 72.80742121 39.25666295 74.25 51.3125 C73.95485486 52.98635132 73.62749693 54.65527794 73.25 56.3125 C65.88105185 56.36308145 58.51214822 56.39818333 51.14306641 56.42236328 C48.63458585 56.43244011 46.12611708 56.44610179 43.61767578 56.46337891 C40.01852512 56.48755337 36.41952933 56.49896612 32.8203125 56.5078125 C31.69319855 56.51813507 30.56608459 56.52845764 29.40481567 56.53909302 C28.36388763 56.53924408 27.32295959 56.53939514 26.25048828 56.53955078 C25.33115509 56.543992 24.4118219 56.54843323 23.46463013 56.55300903 C21.25 56.3125 21.25 56.3125 19.25 54.3125 C18.816875 53.19875 18.38375 52.085 17.9375 50.9375 C15.71297525 46.15889128 13.37877229 44.15672068 8.51171875 42.2265625 C0.26753485 39.91621635 -9.1869682 40.17423732 -16.75 44.3125 C-19.49792408 47.31023536 -19.74104698 48.8021777 -19.8125 52.875 C-18.42223372 57.37292033 -16.79843787 58.02163138 -12.75 60.3125 C-10.18761458 61.20905207 -7.74339738 61.95909627 -5.125 62.625 C-3.98828857 62.92966187 -3.98828857 62.92966187 -2.82861328 63.24047852 C2.12917124 64.55323439 7.1094204 65.76911831 12.09375 66.9765625 C60.73549281 78.78960411 60.73549281 78.78960411 75.0078125 99.23046875 C82.82360379 112.33052145 83.80922099 127.98827862 80.49609375 142.6484375 C75.66552042 158.37306532 65.73288597 169.35508028 51.6015625 177.5625 C36.79580972 185.29324271 21.85096386 187.84844115 5.37451172 187.75854492 C3.01570487 187.75005652 0.65934986 187.77888659 -1.69921875 187.81054688 C-25.35252799 187.91859496 -47.92676077 181.17870817 -65.4609375 164.7578125 C-76.01586746 153.48240951 -79.75 140.45765025 -79.75 125.3125 C-61.6 125.3125 -43.45 125.3125 -24.75 125.3125 C-23.43 128.6125 -22.11 131.9125 -20.75 135.3125 C-16.52257584 140.71420865 -10.99295834 143.59184259 -4.375 145.0625 C5.42406375 145.7382975 13.71764145 145.83343789 22.25 140.3125 C22.91 140.3125 23.57 140.3125 24.25 140.3125 C25.44882112 135.94324286 26.05619986 131.81109522 25.25 127.3125 C18.00261022 118.49810702 3.27814286 116.91894994 -7.30963135 114.19476318 C-44.53531458 104.5501429 -44.53531458 104.5501429 -58.75 92.3125 C-59.3996875 91.79558594 -60.049375 91.27867187 -60.71875 90.74609375 C-67.42937249 84.87429907 -73.19568475 74.12560783 -73.92700195 65.13696289 C-74.39585829 47.14296656 -72.37878074 32.30129653 -59.625 18.625 C-43.533174 3.44352688 -21.32760236 -0.09357185 0 0 Z " fill="#939598" transform="translate(475.75,49.6875)"/>
<path d="M0 0 C12.25774783 -0.06983073 24.51544751 -0.12297814 36.77335453 -0.15543652 C42.46656943 -0.17102306 48.1596472 -0.19213182 53.8527832 -0.22631836 C59.35765855 -0.25916363 64.86240284 -0.27690559 70.3673687 -0.28463173 C72.45668027 -0.2901304 74.54598552 -0.30086651 76.63524055 -0.31719017 C99.32510386 -0.48725108 119.37926529 2.17882969 137 18 C149.41979896 30.57289355 155.17458435 46.44147951 155.375 64 C155.16504979 80.65804957 150.03070157 95.72941547 138.31640625 107.8203125 C123.73084613 121.54500482 107.84951563 126.2034534 88.15625 126.09765625 C87.2600293 126.09664917 86.36380859 126.09564209 85.44042969 126.09460449 C82.12693991 126.08941489 78.81346852 126.07545398 75.5 126.0625 C68.075 126.041875 60.65 126.02125 53 126 C53 143.82 53 161.64 53 180 C44.440625 180.185625 35.88125 180.37125 27.0625 180.5625 C23.00400757 180.65446655 23.00400757 180.65446655 18.86352539 180.74829102 C16.73324396 180.79223305 14.60295471 180.83579777 12.47265625 180.87890625 C11.35499878 180.90561401 10.23734131 180.93232178 9.08581543 180.95983887 C8.03019409 180.98026245 6.97457275 181.00068604 5.88696289 181.02172852 C4.50463219 181.05170677 4.50463219 181.05170677 3.09437561 181.08229065 C1 181 1 181 0 180 C-0.0976134 177.67232986 -0.12997765 175.37437981 -0.12025452 173.04624939 C-0.12110894 172.31035554 -0.12196337 171.57446169 -0.12284368 170.81626803 C-0.12450067 168.33183354 -0.11897356 165.84746545 -0.11352539 163.36303711 C-0.11324354 161.58951316 -0.11340121 159.81598909 -0.1139679 158.04246521 C-0.11425595 153.21208983 -0.1083579 148.38173906 -0.10139394 143.55136943 C-0.09516176 138.50914683 -0.09455671 133.46692373 -0.09336853 128.42469788 C-0.09025481 118.86949773 -0.08204088 109.31430897 -0.07201904 99.75911385 C-0.06085916 88.88384567 -0.05534777 78.00857695 -0.05032361 67.13330448 C-0.0398583 44.75553 -0.02225807 22.37776564 0 0 Z M53 45 C52.97535151 50.39346988 52.95716469 55.78690725 52.94506836 61.18041992 C52.94002769 63.01668875 52.93319523 64.85295354 52.92456055 66.68920898 C52.91248328 69.32276401 52.90676919 71.95626616 52.90234375 74.58984375 C52.89718246 75.41588608 52.89202118 76.24192841 52.88670349 77.09300232 C52.88650795 79.06236368 52.93795848 81.03161614 53 83 C55.62692755 85.62692755 62.83487921 84.23022438 66.3984375 84.24023438 C68.46396846 84.24983257 70.52845753 84.28078726 72.59375 84.3125 C84.786196 84.43391767 84.786196 84.43391767 95.375 79.0625 C95.91125 78.381875 96.4475 77.70125 97 77 C97.556875 76.319375 98.11375 75.63875 98.6875 74.9375 C102.09474095 69.90776337 101.40978954 63.82210415 101 58 C99.28347789 52.54751802 95.60380327 49.2121991 91 46 C87.30459598 44.76819866 83.89696622 44.87587888 80.05078125 44.90234375 C78.89185616 44.90446617 78.89185616 44.90446617 77.70951843 44.90663147 C75.24380611 44.91222534 72.77818485 44.92477667 70.3125 44.9375 C68.63997527 44.94251579 66.96744912 44.94707856 65.29492188 44.95117188 C61.19657954 44.96219276 57.09830521 44.97945316 53 45 Z " fill="#9E72B0" transform="translate(72,53)"/>
<path d="M0 0 C18.15 0 36.3 0 55 0 C56.32 3.3 57.64 6.6 59 10 C63.22742416 15.40170865 68.75704166 18.27934259 75.375 19.75 C85.17406375 20.4257975 93.46764145 20.52093789 102 15 C102.66 15 103.32 15 104 15 C104 14.34 104 13.68 104 13 C105.32 12.34 106.64 11.68 108 11 C115.2370235 15.70919792 122.2264371 20.60020614 129.1015625 25.82421875 C132.62363459 28.46814618 136.21928194 30.99130454 139.84375 33.4921875 C141.93098606 34.95174025 143.97149001 36.46017651 146 38 C145.23232797 42.46998901 143.15334893 44.24041115 139.75 47.06640625 C129.48723742 54.28241119 118.18327898 58.37339783 106 61 C105.27280762 61.1743457 104.54561523 61.34869141 103.79638672 61.52832031 C100.21339065 62.13268109 96.67424737 62.20146664 93.05078125 62.23828125 C92.27929245 62.246353 91.50780365 62.25442474 90.7129364 62.26274109 C89.07646906 62.27654482 87.43997337 62.2872835 85.8034668 62.29516602 C84.16600823 62.30656066 82.52858297 62.32680765 80.89135742 62.35668945 C56.13732549 62.80722039 32.7738429 56.75645604 14.2890625 39.4453125 C3.73413254 28.16990951 0 15.14515025 0 0 Z " fill="#777879" transform="translate(396,175)"/>
<path d="M0 0 C0.33 0 0.66 0 1 0 C1.72542401 17.67885169 -1.50701036 33.72291757 -13.375 47.4375 C-25.31347289 59.75978167 -39.7303921 67.35526967 -57.06350708 68.08712769 C-59.18890008 68.11439531 -61.31199219 68.11280256 -63.4375 68.09765625 C-64.20304199 68.0962413 -64.96858398 68.09482635 -65.75732422 68.09336853 C-68.17159142 68.08782853 -70.58576144 68.07528779 -73 68.0625 C-74.64973823 68.05747723 -76.29947794 68.05291569 -77.94921875 68.04882812 C-81.96618255 68.03787886 -85.98307487 68.02065666 -90 68 C-88.89623431 64.68870293 -88.36126156 64.25900263 -85.6328125 62.3203125 C-84.9217334 61.81040771 -84.2106543 61.30050293 -83.47802734 60.77514648 C-82.70152832 60.23059814 -81.9250293 59.6860498 -81.125 59.125 C-80.32143066 58.55273682 -79.51786133 57.98047363 -78.68994141 57.39086914 C-72.17964933 52.77483598 -65.58199513 48.28868424 -58.97583008 43.81152344 C-53.13577333 39.8330185 -47.47438371 35.66107711 -41.8515625 31.38305664 C-36.63639665 27.43183692 -31.29380138 23.70117746 -25.88500977 20.02099609 C-21.30049165 16.9010478 -16.75946595 13.72751473 -12.25 10.5 C-11.67749512 10.09056152 -11.10499023 9.68112305 -10.51513672 9.25927734 C-8.22328458 7.61495782 -5.9521025 5.96234266 -3.734375 4.21875 C-2 3 -2 3 0 3 C0 2.01 0 1.02 0 0 Z " fill="#7D4197" transform="translate(226,111)"/>
<path d="M0 0 C24.75 0 49.5 0 75 0 C75 0.66 75 1.32 75 2 C73.5234375 3.15625 73.5234375 3.15625 71.375 4.5 C66.428263 7.67219325 61.68522677 11.07884619 56.96240234 14.57226562 C53.75711155 16.90173947 50.76047146 18.72766003 47 20 C47 20.66 47 21.32 47 22 C45.62890625 23.0859375 45.62890625 23.0859375 43.5625 24.375 C38.91884939 27.37113878 34.3872244 30.49863807 29.875 33.6875 C28.78626587 34.45441162 28.78626587 34.45441162 27.67553711 35.23681641 C23.97362701 37.85495298 20.30167133 40.50528132 16.671875 43.22265625 C15.99012207 43.73159424 15.30836914 44.24053223 14.60595703 44.76489258 C13.31041209 45.73615212 12.01949638 46.71362535 10.73388672 47.69799805 C6.3299938 51 6.3299938 51 3 51 C3 51.66 3 52.32 3 53 C2.01 53 1.02 53 0 53 C0 35.51 0 18.02 0 0 Z " fill="#9E72B1" transform="translate(234,53)"/>
<path d="M0 0 C0 15.84 0 31.68 0 48 C-7.38723824 48.16540492 -14.77440791 48.32777828 -22.16186523 48.48217773 C-24.67720426 48.53568866 -27.19250512 48.59102469 -29.70776367 48.64819336 C-33.31420661 48.72985135 -36.92073396 48.8050364 -40.52734375 48.87890625 C-41.65961899 48.90594131 -42.79189423 48.93297638 -43.95848083 48.96083069 C-44.99948441 48.98092697 -46.04048798 49.00102325 -47.11303711 49.02172852 C-48.49536781 49.05170677 -48.49536781 49.05170677 -49.90562439 49.08229065 C-52 49 -52 49 -53 48 C-53.90629306 44.1227011 -54.04081022 40.85772941 -53 37 C-49.46989932 33.56778772 -45.25213858 31.43465306 -41 29 C-38.99714941 27.55306384 -37.01734911 26.07365839 -35.0625 24.5625 C-29.96412335 20.689058 -24.74689199 17.03537148 -19.46484375 13.41796875 C-14.81778462 10.20577204 -10.28842527 6.83080578 -5.76049805 3.45361328 C-1.10436457 0 -1.10436457 0 0 0 Z " fill="#7E4197" transform="translate(125,185)"/>
<path d="M0 0 C21.44030127 -0.71644571 41.9819067 2.68933063 59 17 C59 17.66 59 18.32 59 19 C59.66 19 60.32 19 61 19 C67.83085288 26.90763758 73.21885987 37.11752891 73.0625 47.75 C73.05347656 48.54921875 73.04445313 49.3484375 73.03515625 50.171875 C73.02355469 50.77515625 73.01195312 51.3784375 73 52 C69.99236756 51.39830855 67.96870656 50.49073223 65.48828125 48.69921875 C64.82159424 48.22274902 64.15490723 47.7462793 63.46801758 47.25537109 C62.75669678 46.73797363 62.04537598 46.22057617 61.3125 45.6875 C59.78137831 44.58966477 58.25012458 43.49201369 56.71875 42.39453125 C55.93628906 41.83072754 55.15382813 41.26692383 54.34765625 40.68603516 C50.68705328 38.0570705 46.9987204 35.46784994 43.3125 32.875 C31.80402759 24.75522058 20.35696121 16.55304929 8.95141602 8.28930664 C8.22108154 7.76071045 7.49074707 7.23211426 6.73828125 6.6875 C6.08899658 6.21699219 5.43971191 5.74648438 4.77075195 5.26171875 C3.20188241 4.14384783 1.60285523 3.06857015 0 2 C0 1.34 0 0.68 0 0 Z " fill="#9E72B1" transform="translate(319,53)"/>
<path d="M0 0 C1.7074998 1.28062485 3.37373596 2.61767557 5 4 C5 4.66 5 5.32 5 6 C5.99 6 6.98 6 8 6 C8 6.66 8 7.32 8 8 C8.80824219 8.37125 8.80824219 8.37125 9.6328125 8.75 C12.55011624 10.29049042 15.16962244 12.11095831 17.875 14 C18.43654785 14.39082764 18.9980957 14.78165527 19.57666016 15.18432617 C22.64161937 17.32403865 25.68725486 19.48893326 28.71875 21.67578125 C29.32992676 22.11599609 29.94110352 22.55621094 30.57080078 23.00976562 C31.73827935 23.8527515 32.90348125 24.69890327 34.06591797 25.54882812 C37.91423338 28.33140347 41.85175852 30.70533984 46 33 C46 33.66 46 34.32 46 35 C47.65 35.66 49.3 36.32 51 37 C51 37.66 51 38.32 51 39 C51.70125 39.2475 52.4025 39.495 53.125 39.75 C56.39514548 41.17180238 59.141122 42.87246288 62 45 C62 45.66 62 46.32 62 47 C62.969375 47.28875 63.93875 47.5775 64.9375 47.875 C68 49 68 49 69 51 C49.99074972 50.09479761 29.57690126 42.20049887 15 30 C14.34644531 29.48179687 13.69289063 28.96359375 13.01953125 28.4296875 C6.24586097 22.47842752 1.06968716 12.59038428 0.0625 3.625 C0.0315625 1.830625 0.0315625 1.830625 0 0 Z " fill="#767879" transform="translate(402,112)"/>
<path d="M0 0 C4.186875 -0.061875 8.37375 -0.12375 12.6875 -0.1875 C13.99936279 -0.21481201 15.31122559 -0.24212402 16.6628418 -0.27026367 C17.70609619 -0.27775635 18.74935059 -0.28524902 19.82421875 -0.29296875 C20.88729248 -0.3086792 21.95036621 -0.32438965 23.0456543 -0.34057617 C27.19189921 0.13740182 29.78233016 1.82581836 32.75 4.6875 C35.03182759 8.90888104 35.48284855 13.18931795 34.25 17.8125 C33.03719504 19.93490868 31.84365806 21.40774986 30 23 C30.28875 23.515625 30.5775 24.03125 30.875 24.5625 C34.22994664 31.83155106 34.54790161 39.08827814 35 47 C32.625 47.125 32.625 47.125 30 47 C27.00538325 44.00538325 27.27520319 40.41069383 26.875 36.375 C26.58625 33.61125 26.2975 30.8475 26 28 C19.4 27.34 12.8 26.68 6 26 C6.03958259 32.5370285 6.03958259 32.5370285 6.09008789 39.07397461 C6.09258545 39.88358643 6.09508301 40.69319824 6.09765625 41.52734375 C6.10289307 42.35999756 6.10812988 43.19265137 6.11352539 44.05053711 C6 46 6 46 5 47 C3.35 47 1.7 47 0 47 C0 31.49 0 15.98 0 0 Z M6 5 C6 10.28 6 15.56 6 21 C8.91722548 21.08103404 11.83219516 21.14051081 14.75 21.1875 C15.9875 21.22520508 15.9875 21.22520508 17.25 21.26367188 C22.07442179 21.3378908 22.07442179 21.3378908 26.5234375 19.66796875 C28.70961586 17.1983969 28.86975953 15.25601169 29 12 C27.95102418 8.15375534 27.39462539 7.26308359 24 5 C21.97078331 4.72598982 21.97078331 4.72598982 19.76953125 4.8046875 C18.96708984 4.81113281 18.16464844 4.81757812 17.33789062 4.82421875 C16.50451172 4.84097656 15.67113281 4.85773438 14.8125 4.875 C13.5450293 4.88853516 13.5450293 4.88853516 12.25195312 4.90234375 C10.16784757 4.92589297 8.08388783 4.96176353 6 5 Z " fill="#75468A" transform="translate(579,122)"/>
<path d="M0 0 C2 1.5625 2 1.5625 3 3 C3.5775 2.71125 4.155 2.4225 4.75 2.125 C5.86375 1.568125 5.86375 1.568125 7 1 C7.61488281 0.64679688 8.22976563 0.29359375 8.86328125 -0.0703125 C11.30394827 -1.13224806 12.79827839 -1.21955396 15.4375 -1 C16.17871094 -0.95875 16.91992188 -0.9175 17.68359375 -0.875 C20.4230908 0.15981845 22.23105845 1.47064917 24.02514648 3.79785156 C26.29141292 8.91724131 25.49109044 14.89639489 25.3125 20.375 C25.28994141 21.68339844 25.26738281 22.99179688 25.24414062 24.33984375 C25.18535914 27.56106887 25.10322731 30.7799432 25 34 C23.02 34 21.04 34 19 34 C18.970271 32.78884521 18.970271 32.78884521 18.93994141 31.55322266 C18.84494101 27.91014125 18.73516088 24.26765314 18.625 20.625 C18.5940625 19.35398438 18.563125 18.08296875 18.53125 16.7734375 C18.47324219 14.95585937 18.47324219 14.95585937 18.4140625 13.1015625 C18.3826416 11.98088379 18.3512207 10.86020508 18.31884766 9.70556641 C18.26588797 6.85289588 18.26588797 6.85289588 16 5 C13.77871445 4.97691403 13.77871445 4.97691403 11.375 5.375 C10.14910156 5.54128906 10.14910156 5.54128906 8.8984375 5.7109375 C8.27195312 5.80632812 7.64546875 5.90171875 7 6 C6.05533244 9.24078125 5.80901172 12.27225655 5.68359375 15.640625 C5.64169922 16.71054688 5.59980469 17.78046875 5.55664062 18.8828125 C5.51732422 19.99398437 5.47800781 21.10515625 5.4375 22.25 C5.39431641 23.37664062 5.35113281 24.50328125 5.30664062 25.6640625 C5.20067985 28.44258954 5.09860858 31.22120391 5 34 C3.35 34 1.7 34 0 34 C-0.01458252 33.22809326 -0.02916504 32.45618652 -0.04418945 31.66088867 C-0.11858033 28.16924907 -0.2152709 24.6785751 -0.3125 21.1875 C-0.33505859 19.97255859 -0.35761719 18.75761719 -0.38085938 17.50585938 C-0.4340332 15.76079102 -0.4340332 15.76079102 -0.48828125 13.98046875 C-0.51446533 12.90692139 -0.54064941 11.83337402 -0.56762695 10.72729492 C-0.79512357 8.00049448 -0.79512357 8.00049448 -2.31323242 6.13012695 C-4.14635425 4.68129887 -4.14635425 4.68129887 -7.5 4.9375 C-11.13000954 5.64457057 -11.13000954 5.64457057 -12.7109375 8.4609375 C-14.37142827 13.01973943 -14.29394801 16.88717274 -14.125 21.6875 C-14.08160059 23.37880053 -14.04236012 25.07021426 -14.0078125 26.76171875 C-13.98348145 27.50381592 -13.95915039 28.24591309 -13.93408203 29.01049805 C-14 31 -14 31 -15 34 C-16.65 34 -18.3 34 -20 34 C-20 22.78 -20 11.56 -20 0 C-17 0 -14 0 -11 0 C-7.10074461 -1.2997518 -3.96707301 -0.96697405 0 0 Z " fill="#949595" transform="translate(733,202)"/>
<path d="M0 0 C2.72833189 2.99236401 3.87705356 4.79517835 4.0625 8.875 C4.02125 9.6175 3.98 10.36 3.9375 11.125 C2.6175 11.455 1.2975 11.785 -0.0625 12.125 C-0.330625 11.57070312 -0.59875 11.01640625 -0.875 10.4453125 C-3.18785968 6.10671456 -3.18785968 6.10671456 -6.9296875 3.078125 C-11.69886229 1.70489957 -15.46391576 2.10162293 -20.0625 4.125 C-21.96088383 6.41888046 -22.04335087 7.73244282 -22.1875 10.6875 C-21.19915204 13.49591268 -21.19915204 13.49591268 -17.6875 14.8125 C-12.59542309 16.44196461 -7.33534587 17.30111783 -2.0625 18.125 C-2.0625 18.785 -2.0625 19.445 -2.0625 20.125 C-1.299375 20.33125 -0.53625 20.5375 0.25 20.75 C3.95058716 22.64332366 4.65024247 24.19171312 5.9375 28.125 C6.13506357 32.61364427 5.52927341 36.07801627 3.3125 40 C-2.10524495 44.84745601 -7.2516812 45.69088326 -14.34375 45.4765625 C-19.78462736 44.77300077 -23.51777771 42.5508975 -27.5 38.875 C-29.58527425 35.20491732 -29.77794164 32.32223584 -30.0625 28.125 C-28.4125 28.125 -26.7625 28.125 -25.0625 28.125 C-24.79695312 28.67929688 -24.53140625 29.23359375 -24.2578125 29.8046875 C-23.90460937 30.52914062 -23.55140625 31.25359375 -23.1875 32 C-22.83945312 32.71929687 -22.49140625 33.43859375 -22.1328125 34.1796875 C-20.88910949 36.44014042 -19.83772167 37.83788086 -17.375 38.75 C-12.24817528 39.58137698 -7.69644629 39.64057084 -3.0625 37.125 C-0.77695969 34.24762918 -0.77695969 34.24762918 -0.875 30.6875 C-1.66798211 27.16326702 -1.66798211 27.16326702 -3.75390625 25.88671875 C-7.97066478 23.93297911 -12.31997137 22.76943819 -16.8125 21.625 C-21.07322577 20.49873822 -24.14325759 19.60925707 -27.0625 16.125 C-28.78850045 12.66529375 -29.47548013 9.72280587 -28.49609375 5.93359375 C-26.87778792 2.25685707 -25.52045535 0.42705565 -22.125 -1.8125 C-14.4774078 -4.46574627 -7.05269113 -4.31797416 0 0 Z " fill="#949496" transform="translate(610.0625,191.875)"/>
<path d="M0 0 C1.98 0 3.96 0 6 0 C6 15.18 6 30.36 6 46 C3.525 46.495 3.525 46.495 1 47 C0.34 46.34 -0.32 45.68 -1 45 C-1.969375 45.53625 -2.93875 46.0725 -3.9375 46.625 C-8.61566119 48.62721503 -12.3515963 47.74752019 -17 46 C-20.90745466 43.87638334 -22.3143272 41.74706501 -23.8125 37.6875 C-25.72003099 31.06533276 -25.39998311 25.4799544 -23 19 C-20.44020529 14.66803973 -17.67511518 12.96397841 -13.0234375 11.43359375 C-8.32799272 10.42742701 -5.17484094 11.91257953 -1 14 C-0.67 9.38 -0.34 4.76 0 0 Z M-16.5 19.3125 C-19.36485887 24.44537214 -19.6808706 29.23051752 -19 35 C-17.78665931 37.75759247 -16.14106704 39.85893296 -14 42 C-9.84796022 42.51374123 -6.21844013 42.71856726 -2.5625 40.5625 C0.46609421 35.59560549 1.57512362 30.42023336 0.375 24.6875 C-1.30648854 20.00849523 -1.30648854 20.00849523 -5 17 C-9.71368371 16.0885142 -12.89262797 15.97568087 -16.5 19.3125 Z " fill="#7A4B90" transform="translate(672,122)"/>
<path d="M0 0 C1.56331055 -0.0309375 1.56331055 -0.0309375 3.15820312 -0.0625 C9.73878235 -0.09596766 14.52396468 0.30165799 19.625 4.875 C21.7319652 9.08893041 22.41337657 13.6627546 21.33984375 18.28515625 C19.90819852 21.9698825 18.25287827 24.31478722 14.8125 26.25 C12.04684618 27.17188461 10.42966298 27.36785222 7.58203125 27.34765625 C6.85862549 27.34515869 6.13521973 27.34266113 5.38989258 27.34008789 C4.47747803 27.33098389 3.56506348 27.32187988 2.625 27.3125 C-0.283125 27.291875 -3.19125 27.27125 -6.1875 27.25 C-6.1875 33.85 -6.1875 40.45 -6.1875 47.25 C-7.8375 47.25 -9.4875 47.25 -11.1875 47.25 C-12.74656782 45.69093218 -12.31472371 44.18845719 -12.31689453 42.02148438 C-12.32004669 41.12385376 -12.32319885 40.22622314 -12.32644653 39.3013916 C-12.3244223 38.32536987 -12.32239807 37.34934814 -12.3203125 36.34375 C-12.32126923 35.3487146 -12.32222595 34.3536792 -12.32321167 33.32849121 C-12.3238936 31.22013282 -12.32203844 29.11177235 -12.31787109 27.00341797 C-12.31252303 23.76394973 -12.31781567 20.52462015 -12.32421875 17.28515625 C-12.32355797 15.24218719 -12.32227681 13.19921822 -12.3203125 11.15625 C-12.32233673 10.18022827 -12.32436096 9.20420654 -12.32644653 8.1986084 C-12.32329437 7.30097778 -12.32014221 6.40334717 -12.31689453 5.47851562 C-12.31609894 4.68433228 -12.31530334 3.89014893 -12.31448364 3.07189941 C-11.96591646 -1.92917262 -3.73026938 0.0181191 0 0 Z M-6.1875 5.25 C-6.1875 10.86 -6.1875 16.47 -6.1875 22.25 C-3.83625 22.311875 -1.485 22.37375 0.9375 22.4375 C1.66598145 22.46481201 2.39446289 22.49212402 3.14501953 22.52026367 C7.78727152 22.57881119 10.95937721 21.84997951 14.8125 19.25 C16.34790791 15.91185869 16.13263015 12.35590417 15.125 8.875 C13.43364555 6.78094211 12.36147005 6.19921517 9.8125 5.25 C7.01579698 5.10960326 4.35107997 5.06144422 1.5625 5.125 C-2.27375 5.186875 -2.27375 5.186875 -6.1875 5.25 Z " fill="#754687" transform="translate(589.1875,49.75)"/>
<path d="M0 0 C1.65 0 3.3 0 5 0 C5.33 0.99 5.66 1.98 6 3 C6.928125 2.2575 6.928125 2.2575 7.875 1.5 C12.29460127 -0.62140861 16.18073894 -0.81865653 21 0 C24.50920208 1.71073601 26.55105101 4.40140134 28.875 7.5 C30.96588452 14.00497407 30.96588452 20.99502593 28.875 27.5 C25.63821555 31.8157126 22.49001353 35.02178535 17.0625 36 C12.72726902 36.3257688 9.80675359 34.98268416 6 33 C5.67 36.96 5.34 40.92 5 45 C3.35 45 1.7 45 0 45 C0 30.15 0 15.3 0 0 Z M6 10 C4.36731557 14.89805328 4.40926007 19.90968947 5.8125 24.875 C7.06626983 27.11858812 7.90456899 28.50326356 10 30 C13.24551602 30.91721105 15.3957483 31.14052365 18.6875 30.375 C21.64198078 28.6182817 22.49331953 27.08165241 24 24 C24.47195283 20.82103642 24.47195283 20.82103642 24.375 17.5 C24.38273438 16.3965625 24.39046875 15.293125 24.3984375 14.15625 C23.96028386 10.68538585 23.07297627 8.79093391 21 6 C14.72369895 2.86184948 10.00916811 4.77593246 6 10 Z " fill="#76498A" transform="translate(663,62)"/>
<path d="M0 0 C3.91978963 4.84209307 4.62095871 8.47569627 5.125 14.625 C3.41056781 16.33943219 1.12054759 15.85552967 -1.22265625 15.94140625 C-2.30224609 15.98330078 -3.38183594 16.02519531 -4.49414062 16.06835938 C-5.63044922 16.10767578 -6.76675781 16.14699219 -7.9375 16.1875 C-9.64776367 16.25227539 -9.64776367 16.25227539 -11.39257812 16.31835938 C-14.21992195 16.42482839 -17.04735738 16.52684207 -19.875 16.625 C-19.4254955 17.94054985 -18.96510284 19.25238358 -18.5 20.5625 C-18.24476563 21.29339844 -17.98953125 22.02429688 -17.7265625 22.77734375 C-17.02228587 24.81182116 -17.02228587 24.81182116 -14.875 25.625 C-11.47367954 26.09312599 -8.26192948 26.23629947 -4.875 25.625 C-2.52177204 22.72087454 -2.52177204 22.72087454 -0.875 19.625 C1.875 19.25 1.875 19.25 4.125 19.625 C4.02506685 23.82219217 3.10557633 26.09459463 0.125 28.9375 C-3.95490654 32.09963616 -7.73797369 33.15459034 -12.875 32.625 C-18.2132188 31.0027851 -21.83716573 28.36402145 -24.875 23.625 C-26.79837707 17.85486879 -27.07206888 10.83870775 -24.93359375 5.09765625 C-22.0462459 0.23713651 -18.91686716 -2.30623586 -13.5625 -4.1875 C-8.18517523 -4.56266219 -4.16269498 -3.43874803 0 0 Z M-17.375 3.3125 C-19.24737826 5.88750374 -19.24737826 5.88750374 -19.875 10.625 C-13.605 10.625 -7.335 10.625 -0.875 10.625 C-3.16316787 4.08923835 -3.16316787 4.08923835 -5.875 1.625 C-10.14036063 0.91685132 -13.75118348 0.86642385 -17.375 3.3125 Z " fill="#7A508D" transform="translate(720.875,65.375)"/>
<path d="M0 0 C4.89481619 2.49358561 7.14633037 4.82923735 9 10 C9.33 12.97 9.66 15.94 10 19 C1.75 19 -6.5 19 -15 19 C-12.84139932 26.43446931 -12.84139932 26.43446931 -10 29 C-6.60200101 29.61566532 -3.3917951 29.66181368 0 29 C2.35322796 26.09587454 2.35322796 26.09587454 4 23 C6.75 22.625 6.75 22.625 9 23 C8.9262004 26.0995833 8.60238013 28.27614543 6.5859375 30.69921875 C2.94586807 34.01055944 0.07813016 36 -5 36 C-10.26441538 35.30293314 -14.26757788 33.94570338 -18 30 C-21.42074345 24.22012314 -21.84782512 18.63018293 -21 12 C-19.61259375 7.29692796 -17.78214539 4.62252388 -13.9375 1.5625 C-9.02731772 -1.04929908 -5.35736379 -1.29875486 0 0 Z M-11 6 C-14.35565458 9.43155155 -14.35565458 9.43155155 -15 14 C-8.73 14 -2.46 14 4 14 C2.89912373 8.47802734 2.89912373 8.47802734 -1 5 C-4.9497798 3.58213033 -7.3624228 3.94803338 -11 6 Z " fill="#784B8C" transform="translate(636,134)"/>
<path d="M0 0 C3.3252284 2.93857393 4.41444611 5.13148705 5.6875 9.375 C5.6875 12.015 5.6875 14.655 5.6875 17.375 C-2.2325 17.375 -10.1525 17.375 -18.3125 17.375 C-17.0548383 23.56817418 -17.0548383 23.56817418 -13.3125 27.375 C-9.90821592 28.10814298 -6.71902352 28.10015105 -3.3125 27.375 C-0.95927204 24.47087454 -0.95927204 24.47087454 0.6875 21.375 C3.4375 21 3.4375 21 5.6875 21.375 C5.33737304 25.34310551 4.00783998 28.09798496 1.328125 31.0703125 C-1.87800949 33.61995279 -5.2771513 34.27673664 -9.3125 34.375 C-14.2335625 33.66400233 -18.01493467 32.16530497 -21.3125 28.375 C-25.26112309 22.45206537 -24.90460208 16.28841727 -24.3125 9.375 C-22.68530627 3.9727168 -19.16622674 1.06004033 -14.3125 -1.625 C-9.10925767 -3.35941411 -4.7787647 -2.34429966 0 0 Z M-16.3125 5.375 C-18.12185423 8.00678797 -18.3125 9.1361766 -18.3125 12.375 C-12.0425 12.375 -5.7725 12.375 0.6875 12.375 C-0.77879155 6.83131484 -0.77879155 6.83131484 -4.3125 3.375 C-9.26672887 1.83368435 -12.0101579 2.53936543 -16.3125 5.375 Z " fill="#744889" transform="translate(721.3125,135.625)"/>
<path d="M0 0 C4.35851638 2.80882167 6.30711733 5.46481287 8.125 10.3125 C8.8125 13.8125 8.8125 13.8125 7.8125 18.8125 C-0.1075 19.1425 -8.0275 19.4725 -16.1875 19.8125 C-14.00690167 26.66075895 -14.00690167 26.66075895 -10.1875 28.8125 C-6.65401636 29.36104484 -3.29916019 29.59066213 -0.3125 27.5 C0.05875 26.943125 0.43 26.38625 0.8125 25.8125 C1.4725 24.8225 2.1325 23.8325 2.8125 22.8125 C5.4375 22.625 5.4375 22.625 7.8125 22.8125 C7.30864177 27.22125955 5.9011933 29.63800966 2.8125 32.8125 C-1.47251069 35.38350641 -6.3267178 35.50812431 -11.1875 34.8125 C-16.4910228 32.11070537 -20.28582298 28.51753105 -22.1875 22.8125 C-22.73966036 16.14410177 -22.66847079 10.61411799 -19.1875 4.8125 C-13.66051945 -0.98629926 -7.6855686 -2.86325105 0 0 Z M-15.1875 7.8125 C-15.5175 9.7925 -15.8475 11.7725 -16.1875 13.8125 C-9.9175 13.8125 -3.6475 13.8125 2.8125 13.8125 C1.49176352 7.31571746 1.49176352 7.31571746 -0.875 4.875 C-6.51826495 2.28214854 -11.09844782 3.24238286 -15.1875 7.8125 Z " fill="#939495" transform="translate(702.1875,202.1875)"/>
<path d="M0 0 C5.43145425 4.58656137 7.2187138 8.61103091 7.83203125 15.51953125 C7.8125 17.375 7.8125 17.375 6.8125 18.375 C5.03178754 18.46226223 3.2476686 18.48199041 1.46484375 18.47265625 C0.38525391 18.46943359 -0.69433594 18.46621094 -1.80664062 18.46289062 C-2.94294922 18.45451172 -4.07925781 18.44613281 -5.25 18.4375 C-6.39017578 18.43298828 -7.53035156 18.42847656 -8.70507812 18.42382812 C-11.53260351 18.41199747 -14.3600264 18.3955141 -17.1875 18.375 C-16.59667986 19.85954806 -15.98937345 21.33754351 -15.375 22.8125 C-15.03855469 23.63621094 -14.70210937 24.45992187 -14.35546875 25.30859375 C-13.30346912 27.70872488 -13.30346912 27.70872488 -10.1875 28.375 C-5.10495961 28.89757524 -5.10495961 28.89757524 -0.8125 26.5 C0.83949185 24.47774318 0.83949185 24.47774318 1.8125 22.375 C3.4625 22.375 5.1125 22.375 6.8125 22.375 C6.67460108 25.33982674 6.52305664 27.58734484 4.48046875 29.8515625 C-0.20768914 33.75265739 -2.94808752 34.66980786 -8.87109375 34.59375 C-13.21264599 34.18375518 -16.11523558 32.23876856 -19.4375 29.5625 C-23.50427542 24.47903072 -23.86582786 18.63893387 -23.1875 12.375 C-22.21366043 8.06119504 -20.96024017 5.14774017 -17.8125 2 C-11.86708639 -1.68049414 -6.57437444 -3.35164187 0 0 Z M-16.1875 8.375 C-16.5175 10.025 -16.8475 11.675 -17.1875 13.375 C-10.9175 13.375 -4.6475 13.375 1.8125 13.375 C1.40117229 7.60659996 1.40117229 7.60659996 -1.3125 5 C-7.61813362 1.43594622 -11.92484114 2.73324562 -16.1875 8.375 Z " fill="#949596" transform="translate(783.1875,202.625)"/>
<path d="M0 0 C1.98 0 3.96 0 6 0 C6.33 4.62 6.66 9.24 7 14 C8.98 13.01 10.96 12.02 13 11 C15.37890625 10.75 15.37890625 10.75 17.5625 11 C18.64724609 11.0928125 18.64724609 11.0928125 19.75390625 11.1875 C23.1152301 12.40342236 24.7281986 14.26618056 27 17 C27.56762695 20.22973633 27.56762695 20.22973633 27.48828125 23.83203125 C27.47216797 25.12431641 27.45605469 26.41660156 27.43945312 27.74804688 C27.39768274 29.10288157 27.35535809 30.45769928 27.3125 31.8125 C27.28740069 33.18680866 27.26459036 34.56116116 27.24414062 35.93554688 C27.18526461 39.29147976 27.1030642 42.6451809 27 46 C25.35 46 23.7 46 22 46 C21.98541748 45.22809326 21.97083496 44.45618652 21.95581055 43.66088867 C21.88141967 40.16924907 21.7847291 36.6785751 21.6875 33.1875 C21.66494141 31.97255859 21.64238281 30.75761719 21.61914062 29.50585938 C21.5659668 27.76079102 21.5659668 27.76079102 21.51171875 25.98046875 C21.48553467 24.90692139 21.45935059 23.83337402 21.43237305 22.72729492 C21.21220422 19.99455643 21.21220422 19.99455643 19.64770508 18.15356445 C17.01210234 16.30836917 15.12879761 16.56196833 12 17 C9.12101989 18.11578503 9.12101989 18.11578503 7 21 C6.21596654 25.23974615 6.20903779 29.4472277 6.1875 33.75 C6.16236328 34.92433594 6.13722656 36.09867188 6.11132812 37.30859375 C6.05243642 40.20606565 6.01617031 43.10202605 6 46 C4.02 46 2.04 46 0 46 C0 30.82 0 15.64 0 0 Z " fill="#949597" transform="translate(650,190)"/>
<path d="M0 0 C4.64873774 2.02119032 8.0595392 5.02503232 10.25 9.625 C11.81062785 16.64782531 11.93763921 22.95511704 8.25390625 29.30859375 C5.19091216 33.44029605 1.55994639 35.12512999 -3.375 36 C-8.36153399 36.34476879 -12.03791455 35.01190206 -16 32 C-21.11831055 25.56930213 -21.61766367 19.97243668 -21 12 C-19.23483514 6.70450543 -16.35459729 4.24278522 -12 1 C-8.31363338 -0.84318331 -4.03257365 -0.35675217 0 0 Z M-14 9 C-15.8310796 14.4932388 -16.00802759 20.75484763 -13.625 26.0625 C-10.98291829 29.25203737 -10.98291829 29.25203737 -7.1875 30.75 C-2.97623469 31.08029532 -0.50088234 30.23286764 2.75 27.5625 C6.16365895 23.29542631 5.55101258 17.15013089 5 12 C3.71236549 8.84499033 2.12088614 6.56044307 -1 5 C-6.82243396 4.52275132 -9.78533581 4.52990162 -14 9 Z " fill="#754889" transform="translate(650,62)"/>
<path d="M0 0 C2.95539255 2.19705441 4.12514573 3.77259412 5.06640625 7.3359375 C5.10765625 8.2228125 5.14890625 9.1096875 5.19140625 10.0234375 C2.87890625 10.3359375 2.87890625 10.3359375 0.19140625 10.0234375 C-0.20046875 9.1984375 -0.59234375 8.3734375 -0.99609375 7.5234375 C-1.59421875 6.6984375 -2.19234375 5.8734375 -2.80859375 5.0234375 C-6.17442026 4.55899715 -9.43075159 4.73825383 -12.80859375 5.0234375 C-13.13859375 7.0034375 -13.46859375 8.9834375 -13.80859375 11.0234375 C-12.93976562 11.19359375 -12.0709375 11.36375 -11.17578125 11.5390625 C0.51652799 13.99784789 0.51652799 13.99784789 5.19140625 18.0234375 C6.80430246 21.24922993 6.78055758 24.53539383 6.19140625 28.0234375 C3.14854682 32.14024732 0.20033743 34.04129413 -4.80859375 35.0234375 C-9.82003032 35.01357247 -13.77081556 34.13829496 -17.80859375 31.0234375 C-20.10377594 28.6491111 -20.76957604 27.59569717 -20.99609375 24.2734375 C-20.93421875 23.5309375 -20.87234375 22.7884375 -20.80859375 22.0234375 C-18.55859375 21.6484375 -18.55859375 21.6484375 -15.80859375 22.0234375 C-15.25171875 23.0134375 -14.69484375 24.0034375 -14.12109375 25.0234375 C-12.17669172 28.21785226 -12.17669172 28.21785226 -9.40625 28.52734375 C-6.74395837 28.5846384 -4.40983576 28.60803718 -1.80859375 28.0234375 C0.35510008 25.34195998 0.35510008 25.34195998 0.2734375 22.9921875 C-1.22132992 20.27246627 -3.16391667 19.94188358 -6.03320312 19.08984375 C-6.72220703 18.90292969 -7.41121094 18.71601563 -8.12109375 18.5234375 C-12.8955281 17.20603887 -16.71169303 16.13443669 -19.80859375 12.0234375 C-20.40413202 7.92911192 -20.26224878 5.80860966 -18.18359375 2.2109375 C-13.01505626 -2.54955756 -6.19836759 -3.34685075 0 0 Z " fill="#764A8C" transform="translate(778.80859375,134.9765625)"/>
<path d="M0 0 C2.95539255 2.19705441 4.12514573 3.77259412 5.06640625 7.3359375 C5.10765625 8.2228125 5.14890625 9.1096875 5.19140625 10.0234375 C2.87890625 10.3359375 2.87890625 10.3359375 0.19140625 10.0234375 C-0.20046875 9.1984375 -0.59234375 8.3734375 -0.99609375 7.5234375 C-1.59421875 6.6984375 -2.19234375 5.8734375 -2.80859375 5.0234375 C-6.17442026 4.55899715 -9.43075159 4.73825383 -12.80859375 5.0234375 C-13.13859375 7.0034375 -13.46859375 8.9834375 -13.80859375 11.0234375 C-12.93976562 11.19359375 -12.0709375 11.36375 -11.17578125 11.5390625 C0.51652799 13.99784789 0.51652799 13.99784789 5.19140625 18.0234375 C6.80430246 21.24922993 6.78055758 24.53539383 6.19140625 28.0234375 C3.14854682 32.14024732 0.20033743 34.04129413 -4.80859375 35.0234375 C-9.82003032 35.01357247 -13.77081556 34.13829496 -17.80859375 31.0234375 C-20.10377594 28.6491111 -20.76957604 27.59569717 -20.99609375 24.2734375 C-20.93421875 23.5309375 -20.87234375 22.7884375 -20.80859375 22.0234375 C-18.55859375 21.6484375 -18.55859375 21.6484375 -15.80859375 22.0234375 C-15.25171875 23.0134375 -14.69484375 24.0034375 -14.12109375 25.0234375 C-12.17701752 28.25361127 -12.17701752 28.25361127 -9.3359375 28.421875 C-6.80364246 28.40050542 -4.32706405 28.28297452 -1.80859375 28.0234375 C-0.7022298 25.63275016 -0.7022298 25.63275016 0.19140625 23.0234375 C-0.71344662 20.63581101 -0.71344662 20.63581101 -4.046875 19.875 C-6.08426004 19.24996152 -8.1266486 18.64683077 -10.17382812 18.0546875 C-14.34355123 16.76667919 -17.14808964 15.54173639 -19.80859375 12.0234375 C-20.40413202 7.92911192 -20.26224878 5.80860966 -18.18359375 2.2109375 C-13.01505626 -2.54955756 -6.19836759 -3.34685075 0 0 Z " fill="#794A8D" transform="translate(749.80859375,134.9765625)"/>
<path d="M0 0 C2.34375 0.16796875 2.34375 0.16796875 5 1 C6.40625 3.30078125 6.40625 3.30078125 7.5 6.3125 C7.90605469 7.38628906 8.31210937 8.46007812 8.73046875 9.56640625 C9.35888672 11.26603516 9.35888672 11.26603516 10 13 C10.92756636 15.25411333 11.8645821 17.50436915 12.8125 19.75 C13.54225606 21.4997543 14.27152307 23.24971277 15 25 C15.23187012 24.31373535 15.46374023 23.6274707 15.70263672 22.92041016 C16.7540235 19.81984373 17.8143896 16.72242277 18.875 13.625 C19.23980469 12.54476562 19.60460937 11.46453125 19.98046875 10.3515625 C20.33496094 9.3203125 20.68945312 8.2890625 21.0546875 7.2265625 C21.37937012 6.27346191 21.70405273 5.32036133 22.03857422 4.33837891 C23 2 23 2 25 0 C26.32 0 27.64 0 29 0 C28.42615642 5.10663238 27.2587284 9.65293532 25.453125 14.47265625 C25.07350616 15.5018644 25.07350616 15.5018644 24.68621826 16.55186462 C24.15189406 17.99272609 23.613853 19.43221418 23.07226562 20.87036133 C22.25277449 23.05510328 21.45405613 25.24671443 20.65625 27.43945312 C20.13145768 28.84682067 19.60545568 30.25373784 19.078125 31.66015625 C18.84458313 32.30719009 18.61104126 32.95422394 18.37042236 33.62086487 C16.58274357 38.28653306 14.45287755 41.46309224 11 45 C5.03370787 46.51685393 5.03370787 46.51685393 2 45 C2 43.35 2 41.7 2 40 C5.465 39.505 5.465 39.505 9 39 C10.67526628 35.30711348 11.12506036 33.49091421 10.10961914 29.50488281 C9.60355232 28.23002495 9.07762062 26.96292602 8.53515625 25.703125 C8.26360214 25.02828064 7.99204803 24.35343628 7.71226501 23.65814209 C6.84663561 21.51439497 5.95623724 19.38216388 5.0625 17.25 C4.17635322 15.10221644 3.29569664 12.9524765 2.42344666 10.79901123 C1.88047935 9.46203487 1.32875545 8.12857544 0.76759338 6.7991333 C0.12016985 5.22208783 -0.4476335 3.61279909 -1 2 C-0.67 1.34 -0.34 0.68 0 0 Z " fill="#764889" transform="translate(765,62)"/>
<path d="M0 0 C3.72662729 2.40160425 6.1783734 4.85727632 7.5625 9.125 C7.68625 9.9603125 7.68625 9.9603125 7.8125 10.8125 C6.1625 11.1425 4.5125 11.4725 2.8125 11.8125 C2.19375 10.843125 1.575 9.87375 0.9375 8.875 C-0.84428846 5.78414638 -0.84428846 5.78414638 -3.1875 4.8125 C-7.37966724 4.33791503 -9.48807329 4.35635214 -13.0625 6.6875 C-15.98363121 10.98328119 -16.47596929 14.66813105 -16.1875 19.8125 C-15.17905074 23.98381286 -13.8432695 26.37532033 -10.1875 28.8125 C-5.17093174 29.36828749 -5.17093174 29.36828749 -0.875 27.0625 C0.64966579 25.02961228 1.81356153 23.14335643 2.8125 20.8125 C4.4625 20.8125 6.1125 20.8125 7.8125 20.8125 C7.3039457 25.18606702 6.55197331 28.31730992 3.8125 31.8125 C-0.97481302 35.11802566 -5.54567782 35.66761939 -11.1875 34.8125 C-15.5344041 33.45728872 -18.29717497 31.2193392 -20.625 27.3125 C-23.37966923 20.97201134 -23.18515411 13.86088757 -21.0625 7.375 C-15.70816446 0.0574081 -8.95470056 -3.33606491 0 0 Z " fill="#939394" transform="translate(640.1875,202.1875)"/>
<path d="M0 0 C1.67542976 0.28604898 3.34385343 0.61781233 5 1 C5 3.97 5 6.94 5 10 C6.65 10 8.3 10 10 10 C10.33 11.65 10.66 13.3 11 15 C9.02 15 7.04 15 5 15 C5 23.25 5 31.5 5 40 C6.98 40 8.96 40 11 40 C10.67 41.65 10.34 43.3 10 45 C3.65899825 45.48776937 3.65899825 45.48776937 0.79003906 43.36425781 C-1.49794964 40.34231528 -1.46434772 38.68173369 -1.390625 34.921875 C-1.37773438 33.76171875 -1.36484375 32.6015625 -1.3515625 31.40625 C-1.31804688 30.1996875 -1.28453125 28.993125 -1.25 27.75 C-1.23195313 26.52796875 -1.21390625 25.3059375 -1.1953125 24.046875 C-1.148181 21.03045922 -1.08239413 18.01562509 -1 15 C-2.65 15 -4.3 15 -6 15 C-5.67 13.35 -5.34 11.7 -5 10 C-3.68 10 -2.36 10 -1 10 C-1.01160156 9.36191406 -1.02320313 8.72382812 -1.03515625 8.06640625 C-1.04417969 7.24011719 -1.05320312 6.41382813 -1.0625 5.5625 C-1.07410156 4.73878906 -1.08570313 3.91507813 -1.09765625 3.06640625 C-1 1 -1 1 0 0 Z " fill="#75498A" transform="translate(752,52)"/>
<path d="M0 0 C29.04 0 58.08 0 88 0 C88 0.33 88 0.66 88 1 C80.75166706 2.11367616 73.484051 2.33469026 66.1640625 2.55761719 C64.00489561 2.62484756 61.84628292 2.7027488 59.6875 2.78125 C48.14989879 3.16647291 48.14989879 3.16647291 43.75390625 2.53125 C38.47649589 1.78439484 33.26003361 1.85532335 27.9375 1.875 C26.88755859 1.87113281 25.83761719 1.86726563 24.75585938 1.86328125 C19.38659896 1.87003929 14.31510821 2.18028931 9 3 C6.69 3 4.38 3 2 3 C2 57.78 2 112.56 2 169 C1.34 169 0.68 169 0 169 C0 113.23 0 57.46 0 0 Z " fill="#9476A1" transform="translate(72,53)"/>
<path d="M0 0 C0.33 0.66 0.66 1.32 1 2 C1.66 2 2.32 2 3 2 C3 1.34 3 0.68 3 0 C4.32 0.33 5.64 0.66 7 1 C6.34 1.66 5.68 2.32 5 3 C4.53709779 5.66242821 4.53709779 5.66242821 4.375 8.625 C4.30023437 9.62789062 4.22546875 10.63078125 4.1484375 11.6640625 C4.09945312 12.43492188 4.05046875 13.20578125 4 14 C3.01 14 2.02 14 1 14 C1.33 15.98 1.66 17.96 2 20 C2.66 19.67 3.32 19.34 4 19 C4.33 19.66 4.66 20.32 5 21 C6.04800781 20.98839844 7.09601562 20.97679688 8.17578125 20.96484375 C9.55468572 20.95546345 10.93359211 20.9463635 12.3125 20.9375 C13.00279297 20.92912109 13.69308594 20.92074219 14.40429688 20.91210938 C17.5483025 20.89692094 19.99420019 20.99806673 23 22 C23 22.66 23 23.32 23 24 C23.66 24 24.32 24 25 24 C25.33 23.34 25.66 22.68 26 22 C26.66 22.66 27.32 23.32 28 24 C25.08175756 25.66674321 23.02405621 26.2432008 19.671875 26.1953125 C18.5905127 26.18781982 18.5905127 26.18781982 17.48730469 26.18017578 C16.13233887 26.15286377 16.13233887 26.15286377 14.75 26.125 C10.41875 26.063125 10.41875 26.063125 6 26 C6 32.6 6 39.2 6 46 C4.35 46 2.7 46 1 46 C0 45 0 45 -0.12025452 43.17137146 C-0.11803391 42.37417191 -0.11581329 41.57697235 -0.11352539 40.75561523 C-0.11344986 39.85475693 -0.11337433 38.95389862 -0.11329651 38.02574158 C-0.10813522 37.04658279 -0.10297394 36.06742401 -0.09765625 35.05859375 C-0.0962413 34.06118668 -0.09482635 33.0637796 -0.09336853 32.03614807 C-0.08775114 28.83656876 -0.07519571 25.63705831 -0.0625 22.4375 C-0.05748724 20.27408955 -0.05292395 18.11067801 -0.04882812 15.94726562 C-0.03777607 10.63148675 -0.02102104 5.31574829 0 0 Z " fill="#744688" transform="translate(577,51)"/>
<path d="M0 0 C2.375 -0.1875 2.375 -0.1875 5 0 C5.66 0.99 6.32 1.98 7 3 C7.53625 2.505 8.0725 2.01 8.625 1.5 C11.59358445 -0.37489544 13.55312427 -0.23501425 17 0 C17 1.65 17 3.3 17 5 C16.36191406 5.26554688 15.72382812 5.53109375 15.06640625 5.8046875 C14.24011719 6.15789062 13.41382813 6.51109375 12.5625 6.875 C11.32693359 7.39707031 11.32693359 7.39707031 10.06640625 7.9296875 C7.84253285 8.8244937 7.84253285 8.8244937 7 11 C6.84733388 12.73868744 6.75067404 14.48247501 6.68359375 16.2265625 C6.64169922 17.2578125 6.59980469 18.2890625 6.55664062 19.3515625 C6.49766602 20.97191406 6.49766602 20.97191406 6.4375 22.625 C6.39431641 23.71296875 6.35113281 24.8009375 6.30664062 25.921875 C6.2003547 28.6144517 6.09831943 31.30712253 6 34 C4.34385343 34.38218767 2.67542976 34.71395102 1 35 C0 34 0 34 -0.11352539 30.76538086 C-0.11336631 29.33185874 -0.10767407 27.89833088 -0.09765625 26.46484375 C-0.0962413 25.71159317 -0.09482635 24.95834259 -0.09336853 24.18226624 C-0.08775376 21.7673044 -0.07519883 19.35243399 -0.0625 16.9375 C-0.0574869 15.30403779 -0.05292366 13.67057414 -0.04882812 12.03710938 C-0.03777954 8.02470415 -0.02050506 4.01236759 0 0 Z " fill="#714685" transform="translate(681,134)"/>
<path d="M0 0 C1.65 0 3.3 0 5 0 C5.33 0.99 5.66 1.98 6 3 C6.886875 2.484375 7.77375 1.96875 8.6875 1.4375 C12.20023331 -0.0868937 13.44706507 -0.14947895 17 1 C16.67 2.65 16.34 4.3 16 6 C14.88625 6.28875 13.7725 6.5775 12.625 6.875 C8.99708908 7.69241329 8.99708908 7.69241329 7 10 C6.00584657 12.97885103 5.81695824 15.85983544 5.68359375 18.984375 C5.64169922 19.91894531 5.59980469 20.85351562 5.55664062 21.81640625 C5.49766602 23.26853516 5.49766602 23.26853516 5.4375 24.75 C5.39431641 25.73355469 5.35113281 26.71710938 5.30664062 27.73046875 C5.20077948 30.15351275 5.09869829 32.5766554 5 35 C3.35 35 1.7 35 0 35 C0 23.45 0 11.9 0 0 Z " fill="#764A89" transform="translate(728,62)"/>
<path d="M0 0 C1.65 0 3.3 0 5 0 C5.33 0.99 5.66 1.98 6 3 C6.9075 2.505 7.815 2.01 8.75 1.5 C12 0 12 0 16 0 C16.33 1.65 16.66 3.3 17 5 C15.01432292 5.61848958 13.02864583 6.23697917 11.04296875 6.85546875 C8.04856968 8.53301928 7.32775589 9.79395529 6 13 C5.50408636 16.76648462 5.39748835 20.51716295 5.3125 24.3125 C5.27833984 25.33923828 5.24417969 26.36597656 5.20898438 27.42382812 C5.12676591 29.94910963 5.05753064 32.4740554 5 35 C3.35 35 1.7 35 0 35 C0 23.45 0 11.9 0 0 Z " fill="#754588" transform="translate(613,62)"/>
<path d="M0 0 C0.33 0 0.66 0 1 0 C1 15.84 1 31.68 1 48 C-6.38723824 48.16540492 -13.77440791 48.32777828 -21.16186523 48.48217773 C-23.67720426 48.53568866 -26.19250512 48.59102469 -28.70776367 48.64819336 C-32.31420661 48.72985135 -35.92073396 48.8050364 -39.52734375 48.87890625 C-40.65961899 48.90594131 -41.79189423 48.93297638 -42.95848083 48.96083069 C-43.99948441 48.98092697 -45.04048798 49.00102325 -46.11303711 49.02172852 C-47.49536781 49.05170677 -47.49536781 49.05170677 -48.90562439 49.08229065 C-51 49 -51 49 -52 48 C-52.07226502 46.14712498 -52.0838122 44.29166122 -52.0625 42.4375 C-52.05347656 41.42558594 -52.04445313 40.41367188 -52.03515625 39.37109375 C-52.02355469 38.58863281 -52.01195313 37.80617187 -52 37 C-51.01 37 -50.02 37 -49 37 C-49 39.64 -49 42.28 -49 45 C-33.49 45 -17.98 45 -2 45 C-2 37.74 -2 30.48 -2 23 C-1.89092605 18.88535911 -1.76863488 14.79481438 -1.5625 10.6875 C-1.52318359 9.74583984 -1.48386719 8.80417969 -1.44335938 7.83398438 C-1.127713 1.127713 -1.127713 1.127713 0 0 Z " fill="#74438A" transform="translate(124,185)"/>
<path d="M0 0 C0.96846689 2.61486062 1.04559628 3.8442127 0.25 6.5625 C-0.93965623 8.88232965 -2.04240712 10.30935161 -4 12 C-3.71125 12.515625 -3.4225 13.03125 -3.125 13.5625 C0.22994664 20.83155106 0.54790161 28.08827814 1 36 C-1.375 36.125 -1.375 36.125 -4 36 C-6.99628539 33.00371461 -6.7249286 29.41506529 -7.125 25.375 C-7.21136719 24.57320312 -7.29773438 23.77140625 -7.38671875 22.9453125 C-7.59896327 20.96436365 -7.80049931 18.98227282 -8 17 C-9.98 16.67 -11.96 16.34 -14 16 C-13.34 15.34 -12.68 14.68 -12 14 C-13.65 13.67 -15.3 13.34 -17 13 C-16.34 12.34 -15.68 11.68 -15 11 C-14.21625 11.20625 -13.4325 11.4125 -12.625 11.625 C-11.75875 11.74875 -10.8925 11.8725 -10 12 C-7.7914234 10.12491838 -7.7914234 10.12491838 -6 8 C-5.34 8 -4.68 8 -4 8 C-4.66 6.35 -5.32 4.7 -6 3 C-4.02 2.01 -2.04 1.02 0 0 Z " fill="#7B4E8D" transform="translate(613,133)"/>
<path d="M0 0 C24.75 0 49.5 0 75 0 C74.67 0.66 74.34 1.32 74 2 C73.02353516 1.99476318 72.04707031 1.98952637 71.04101562 1.98413086 C67.33578448 1.96570588 63.63055714 1.95443455 59.92529297 1.94506836 C58.33706984 1.94011216 56.74885109 1.93334524 55.16064453 1.92456055 C47.15378656 1.8814584 39.20982676 1.92598016 31.21875 2.50390625 C21.15351216 3.22531645 11.08554126 3.09064715 1 3 C1.11741384 9.79944841 1.24224834 16.59873113 1.37231445 23.39794922 C1.41570376 25.71237069 1.45737584 28.026825 1.49731445 30.34130859 C1.55492032 33.66253573 1.61864251 36.98359692 1.68359375 40.3046875 C1.70030624 41.34430634 1.71701874 42.38392517 1.73423767 43.45504761 C1.75418289 44.41589264 1.77412811 45.37673767 1.79467773 46.36669922 C1.81022202 47.21497284 1.8257663 48.06324646 1.84178162 48.93722534 C1.87429958 51.06318305 1.87429958 51.06318305 3 53 C2.01 53 1.02 53 0 53 C0 35.51 0 18.02 0 0 Z " fill="#9575A2" transform="translate(234,53)"/>
<path d="M0 0 C2.13794422 -0.00960226 4.27488366 -0.04055909 6.41259766 -0.07226562 C13.82428061 -0.1306232 20.3128747 0.10590409 27.17431641 3.24023438 C29.04931641 5.92773438 29.04931641 5.92773438 30.17431641 8.24023438 C31.16431641 8.24023438 32.15431641 8.24023438 33.17431641 8.24023438 C34.72294985 12.52175038 35.65584005 16.61089987 36.29931641 21.11523438 C36.55068359 22.84386719 36.55068359 22.84386719 36.80712891 24.60742188 C36.92830078 25.47625 37.04947266 26.34507812 37.17431641 27.24023438 C36.51431641 27.24023438 35.85431641 27.24023438 35.17431641 27.24023438 C34.93197266 26.37140625 34.68962891 25.50257813 34.43994141 24.60742188 C31.37167211 13.21092821 31.37167211 13.21092821 23.17431641 5.24023438 C11.59603485 1.93215393 -0.79124173 2.65521513 -12.82568359 2.24023438 C-12.82568359 22.70023438 -12.82568359 43.16023438 -12.82568359 64.24023438 C-13.48568359 64.24023438 -14.14568359 64.24023438 -14.82568359 64.24023438 C-14.71833279 56.04323719 -14.60573061 47.84633646 -14.48634434 39.64950657 C-14.43108065 35.84376033 -14.3776553 32.03800645 -14.32836914 28.23217773 C-14.28077619 24.56224103 -14.2284355 20.89240047 -14.17274284 17.22257805 C-14.15229623 15.81951211 -14.13358702 14.41641978 -14.11660957 13.01330757 C-14.09261673 11.05446512 -14.0619816 9.09570737 -14.03100586 7.13696289 C-14.01546158 6.01999527 -13.9999173 4.90302765 -13.98390198 3.75221252 C-13.60047101 -2.33538734 -4.79440667 0.01301943 0 0 Z " fill="#704484" transform="translate(300.82568359375,168.759765625)"/>
<path d="M0 0 C4.17664661 0 7.09145257 0.08034178 11 1 C8.4345406 3.5654594 6.52313332 3.54046087 3 4 C3.26676204 5.98491642 3.26676204 5.98491642 4 8 C4.99 8.33 5.98 8.66 7 9 C6.835 10.03125 6.67 11.0625 6.5 12.125 C5.81969182 17.38793968 5.97088316 22.62918292 6.0625 27.92578125 C6 31 6 31 5 34 C3.35 34 1.7 34 0 34 C0 22.78 0 11.56 0 0 Z " fill="#979A99" transform="translate(713,202)"/>
<path d="M0 0 C0.33 0.99 0.66 1.98 1 3 C1.99 3.33 2.98 3.66 4 4 C4.45503906 4.50402344 4.91007813 5.00804688 5.37890625 5.52734375 C8.13638358 8.03232918 11.06253874 7.5815209 14.6328125 7.50390625 C17.37120867 7.18803244 17.37120867 7.18803244 19.3125 4 C19.869375 3.01 20.42625 2.02 21 1 C23.75 0.625 23.75 0.625 26 1 C25.90006685 5.19719217 24.98057633 7.46959463 22 10.3125 C17.93141304 13.4658629 14.12664104 14.55304518 9 14 C5.07019491 12.66090546 1.93699479 10.93699479 -1 8 C-1.40047444 5.67724823 -1.7397104 3.34260643 -2 1 C-1.34 0.67 -0.68 0.34 0 0 Z " fill="#76468E" transform="translate(699,84)"/>
<path d="M0 0 C0.66 0.33 1.32 0.66 2 1 C-0.31283848 6.60523208 -2.2866663 10.30503127 -8 13 C-13.93549922 14.68484486 -18.05856718 14.07996825 -23.46875 11.203125 C-25 10 -25 10 -26 7 C-25.67 6.34 -25.34 5.68 -25 5 C-24.34 5.33 -23.68 5.66 -23 6 C-22.67 5.67 -22.34 5.34 -22 5 C-21.01 5.66 -20.02 6.32 -19 7 C-14.57153063 8.15525288 -12.05344106 8.12805656 -8 6 C-6.948125 5.29875 -5.89625 4.5975 -4.8125 3.875 C-2 2 -2 2 0 2 C0 1.34 0 0.68 0 0 Z " fill="#75488B" transform="translate(659,84)"/>
<path d="M0 0 C0.66 0 1.32 0 2 0 C2.5625 1.9375 2.5625 1.9375 3 4 C2.67 4.33 2.34 4.66 2 5 C1.89194335 6.56846119 1.85316214 8.14174465 1.84178162 9.71388245 C1.8319928 10.73336975 1.82220398 11.75285706 1.81211853 12.80323792 C1.80636307 13.931082 1.8006076 15.05892609 1.79467773 16.22094727 C1.78477814 17.40127533 1.77487854 18.58160339 1.76467896 19.79769897 C1.73842921 23.04339119 1.71659283 26.28907795 1.69667697 29.53481412 C1.67485448 32.92345952 1.64744757 36.31205952 1.62062073 39.70066833 C1.57064314 46.1215251 1.52572318 52.542407 1.48259836 58.96331304 C1.43326919 66.27157049 1.37833509 73.5797824 1.32291877 80.88799584 C1.20902099 95.92528814 1.10219902 110.9626233 1 126 C0.67 126 0.34 126 0 126 C0 84.42 0 42.84 0 0 Z " fill="#704781" transform="translate(234,107)"/>
<path d="M0 0 C0.33 0 0.66 0 1 0 C1 11.88 1 23.76 1 36 C6.61 35.896875 12.22 35.79375 18 35.6875 C19.75441406 35.66260498 21.50882812 35.63770996 23.31640625 35.61206055 C24.73179672 35.57972729 26.14716383 35.54634753 27.5625 35.51171875 C28.27728516 35.50547485 28.99207031 35.49923096 29.72851562 35.49279785 C35.30838919 35.33600645 41.28525352 34.50756818 45.53295898 30.58403015 C47.55994649 28.19154789 49.26200447 25.60699329 51 23 C51 24.32 51 25.64 51 27 C52.32 26.67 53.64 26.34 55 26 C54.505 27.485 54.505 27.485 54 29 C53.401875 29.12375 52.80375 29.2475 52.1875 29.375 C49.76503134 29.81360798 49.76503134 29.81360798 48.4375 32.3125 C44.76650565 36.3600066 40.12808418 37.41736712 35 39 C34.67 38.67 34.34 38.34 34 38 C31.48143825 37.84013054 28.98635826 37.74058106 26.46484375 37.68359375 C25.79747192 37.66494263 25.1301001 37.6462915 24.44250488 37.6270752 C21.94097583 37.55859259 19.43922118 37.49856213 16.9375 37.4375 C11.348125 37.293125 5.75875 37.14875 0 37 C0 24.79 0 12.58 0 0 Z " fill="#734786" transform="translate(287,96)"/>
<path d="M0 0 C3.52481803 2.80177843 5.34184021 4.94944279 6 9.375 C6.28022492 14.03763138 5.30774666 16.96144334 3 21 C-0.23325272 23.15550181 -1.31199218 23 -5 23 C-5 22.34 -5 21.68 -5 21 C-5.99 20.67 -6.98 20.34 -8 20 C-7.05125 19.71125 -6.1025 19.4225 -5.125 19.125 C-1.54814369 16.69273771 -1.40641333 16.04842341 -0.5625 12 C-0.01812981 8.70435345 0.07389085 7.22167254 -1 4 C-0.5625 1.8125 -0.5625 1.8125 0 0 Z " fill="#764A8D" transform="translate(605,52)"/>
<path d="M0 0 C0.66 0 1.32 0 2 0 C2 0.99 2 1.98 2 3 C2.66 3 3.32 3 4 3 C3.814375 4.093125 3.62875 5.18625 3.4375 6.3125 C2.7421932 9.93624133 2.7421932 9.93624133 4 13 C2.35 13 0.7 13 -1 13 C-0.05270463 15.15811388 -0.05270463 15.15811388 2 17 C2 17.99 2 18.98 2 20 C1.34 20.66 0.68 21.32 0 22 C0.66 23.65 1.32 25.3 2 27 C2.99 27 3.98 27 5 27 C5 27.66 5 28.32 5 29 C5.66 29.33 6.32 29.66 7 30 C2.7273343 29.52525937 0.726198 27.15665032 -2 24 C-4.53567627 18.72614554 -4.68914737 13.75357917 -4 8 C-2.93345904 5.04150812 -1.63699086 2.71126611 0 0 Z " fill="#724586" transform="translate(619,138)"/>
<path d="M0 0 C0.905793 0.02785583 1.811586 0.05571167 2.74482727 0.08441162 C5.63949951 0.17782488 8.53220269 0.29949959 11.42578125 0.421875 C13.38730584 0.49014414 15.3488954 0.55657328 17.31054688 0.62109375 C22.12080586 0.78334141 26.92948912 0.97094262 31.73828125 1.171875 C32.39828125 3.151875 33.05828125 5.131875 33.73828125 7.171875 C32.59230469 6.52444336 31.44632813 5.87701172 30.265625 5.20996094 C25.84453447 3.00742665 22.18516263 2.57020755 17.30078125 2.5625 C16.62080078 2.54687012 15.94082031 2.53124023 15.24023438 2.51513672 C12.73992974 2.46318669 10.23902422 2.44438352 7.73828125 2.421875 C-0.67671875 2.298125 -0.67671875 2.298125 -9.26171875 2.171875 C-9.26171875 15.041875 -9.26171875 27.911875 -9.26171875 41.171875 C-9.59171875 41.171875 -9.92171875 41.171875 -10.26171875 41.171875 C-10.2867749 40.40633301 -10.31183105 39.64079102 -10.33764648 38.85205078 C-10.45475329 35.33353569 -10.5769528 31.81521445 -10.69921875 28.296875 C-10.73853516 27.09289062 -10.77785156 25.88890625 -10.81835938 24.6484375 C-11.03748052 18.44562345 -11.3595076 12.38522201 -12.35571289 6.25341797 C-12.26171875 4.171875 -12.26171875 4.171875 -11.35791016 1.90966797 C-7.92680835 -0.93479775 -4.29763718 -0.20733278 0 0 Z " fill="#92739F" transform="translate(134.26171875,95.828125)"/>
<path d="M0 0 C0.66 0.33 1.32 0.66 2 1 C1.57316368 2.27445454 1.13302798 3.54445882 0.6875 4.8125 C0.44386719 5.52019531 0.20023438 6.22789062 -0.05078125 6.95703125 C-2.4858556 12.19795259 -7.32755245 13.94542852 -12.44335938 16.00146484 C-18.84881749 17.79981216 -25.18209745 17.25779493 -31.75 16.8125 C-33.14049235 16.73898307 -34.53112131 16.66800442 -35.921875 16.59960938 C-39.283442 16.42452776 -42.6414146 16.22422556 -46 16 C-46 15.34 -46 14.68 -46 14 C-45.13834229 13.98541748 -44.27668457 13.97083496 -43.38891602 13.95581055 C-40.15125625 13.89427131 -36.91419072 13.82003217 -33.67700195 13.73754883 C-32.28355638 13.70456692 -30.88998578 13.67645433 -29.49633789 13.65356445 C-16.39501713 13.69309186 -16.39501713 13.69309186 -4.84375 8.28125 C-4.17859375 7.39953125 -4.17859375 7.39953125 -3.5 6.5 C-3.0359375 5.9121875 -2.571875 5.324375 -2.09375 4.71875 C-0.82441431 2.87746898 -0.82441431 2.87746898 0 0 Z " fill="#9675A3" transform="translate(172,123)"/>
<path d="M0 0 C1.134375 0.350625 2.26875 0.70125 3.4375 1.0625 C6.77584373 1.93106023 9.23445761 1.95640031 12.625 1.375 C16.33881991 0.81599943 16.91260148 0.95474005 20.5 2.8125 C23 5 23 5 24 7 C24.04022391 9.3329866 24.04320247 11.66706666 24 14 C23.01 13.34 22.02 12.68 21 12 C20.01 12.495 20.01 12.495 19 13 C18.73703125 11.84371094 18.73703125 11.84371094 18.46875 10.6640625 C16.68147119 7.42224296 15.0568887 6.95696008 11.58984375 5.9296875 C10.90019531 5.74664062 10.21054687 5.56359375 9.5 5.375 C2.24541635 3.36812452 2.24541635 3.36812452 0 0 Z " fill="#714685" transform="translate(761,148)"/>
<path d="M0 0 C1.32 0.66 2.64 1.32 4 2 C4 8.6 4 15.2 4 22 C2.35 22 0.7 22 -1 22 C-1.02895225 18.70835171 -1.0467823 15.41673601 -1.0625 12.125 C-1.07506836 10.71927734 -1.07506836 10.71927734 -1.08789062 9.28515625 C-1.09111328 8.38925781 -1.09433594 7.49335937 -1.09765625 6.5703125 C-1.10289307 5.74289551 -1.10812988 4.91547852 -1.11352539 4.06298828 C-1 2 -1 2 0 0 Z " fill="#704482" transform="translate(579,75)"/>
<path d="M0 0 C0.33 0.66 0.66 1.32 1 2 C1.66 2 2.32 2 3 2 C3 1.34 3 0.68 3 0 C4.32 0.33 5.64 0.66 7 1 C6.34 1.66 5.68 2.32 5 3 C4.53709779 5.66242821 4.53709779 5.66242821 4.375 8.625 C4.30023437 9.62789062 4.22546875 10.63078125 4.1484375 11.6640625 C4.09945312 12.43492188 4.05046875 13.20578125 4 14 C3.01 14 2.02 14 1 14 C1.33 15.98 1.66 17.96 2 20 C2.66 19.67 3.32 19.34 4 19 C3.68289063 19.95003906 3.36578125 20.90007812 3.0390625 21.87890625 C1.71134583 26.52591459 1.55047304 31.13026971 1.375 35.9375 C1.33632813 36.81212891 1.29765625 37.68675781 1.2578125 38.58789062 C1.1643893 40.72494631 1.08114602 42.86244294 1 45 C0.67 45 0.34 45 0 45 C0 30.15 0 15.3 0 0 Z " fill="#A881B4" transform="translate(577,51)"/>
<path d="M0 0 C1.32 0 2.64 0 4 0 C3.67 0.99 3.34 1.98 3 3 C2.34 2.67 1.68 2.34 1 2 C1.14176421 4.70860124 1.28828216 7.41680752 1.4375 10.125 C1.47681641 10.88554688 1.51613281 11.64609375 1.55664062 12.4296875 C1.74810512 15.84659234 2.01923783 19.1124093 2.59765625 22.4921875 C2.73042969 23.31976563 2.86320313 24.14734375 3 25 C2.67 25.33 2.34 25.66 2 26 C1.9008243 28.14394519 1.8702985 30.29126732 1.875 32.4375 C1.87242187 33.61183594 1.86984375 34.78617188 1.8671875 35.99609375 C1.79234454 38.9240809 1.79234454 38.9240809 3 41 C2.95875 39.906875 2.9175 38.81375 2.875 37.6875 C3 34 3 34 5 31 C5 35.62 5 40.24 5 45 C3.35 45 1.7 45 0 45 C0 30.15 0 15.3 0 0 Z " fill="#6C487E" transform="translate(663,62)"/>
<path d="M0 0 C0.99 0.33 1.98 0.66 3 1 C2.67 1.66 2.34 2.32 2 3 C1.71189119 5.56969778 1.48681013 8.11003425 1.3125 10.6875 C1.22258789 11.73067383 1.22258789 11.73067383 1.13085938 12.79492188 C0.80215384 17.61743738 1.45985804 21.35675722 3 26 C3.35236497 27.99673484 3.68834559 29.99650739 4 32 C4.31674575 33.33737094 4.64270064 34.67288808 5 36 C3.07421875 35.33984375 3.07421875 35.33984375 1 34 C0.20703125 31.56640625 0.20703125 31.56640625 -0.1875 28.5625 C-0.33316406 27.48484375 -0.47882813 26.4071875 -0.62890625 25.296875 C-0.75136719 24.20890625 -0.87382812 23.1209375 -1 22 C-1.11214844 21.03578125 -1.22429687 20.0715625 -1.33984375 19.078125 C-1.92826936 13.37120267 -2.27303878 7.73381433 -2 2 C-1.34 1.34 -0.68 0.68 0 0 Z " fill="#734688" transform="translate(339,197)"/>
<path d="M0 0 C0.33 0 0.66 0 1 0 C1.56394535 13.74355712 0.03706879 25.92850651 -7 38 C-7.66 37.34 -8.32 36.68 -9 36 C-7.68 33.36 -6.36 30.72 -5 28 C-5.66 27.67 -6.32 27.34 -7 27 C-5.68 26.67 -4.36 26.34 -3 26 C-2.83159521 22.91675903 -2.66558138 19.83339379 -2.5 16.75 C-2.42845703 15.44095703 -2.42845703 15.44095703 -2.35546875 14.10546875 C-2.31035156 13.26113281 -2.26523438 12.41679688 -2.21875 11.546875 C-2.17685547 10.77182617 -2.13496094 9.99677734 -2.09179688 9.19824219 C-2.00558463 7.13373418 -2 5.0663073 -2 3 C-1.34 3 -0.68 3 0 3 C0 2.01 0 1.02 0 0 Z " fill="#6E4485" transform="translate(226,111)"/>
<path d="M0 0 C0.66 0 1.32 0 2 0 C2.09377123 7.41834582 2.17402193 14.66236293 1 22 C-0.65 22 -2.3 22 -4 22 C-3.83242188 21.47277344 -3.66484375 20.94554687 -3.4921875 20.40234375 C-2.66459942 16.36292576 -3.09618422 12.29391225 -3.2578125 8.19140625 C-2.97032959 4.63271624 -2.17190511 2.80668898 0 0 Z " fill="#7E4897" transform="translate(675,144)"/>
<path d="M0 0 C0.33 1.65 0.66 3.3 1 5 C-0.2375 5.391875 -1.475 5.78375 -2.75 6.1875 C-6.70538366 7.64622305 -8.67149343 9.41021904 -11 13 C-11.33 11.68 -11.66 10.36 -12 9 C-12.66 9 -13.32 9 -14 9 C-12.50521886 5.19510255 -10.30557786 3.33809165 -7 1 C-4 0 -4 0 0 0 Z " fill="#7D548E" transform="translate(629,62)"/>
<path d="M0 0 C0.33 0 0.66 0 1 0 C1.08040527 1.07483643 1.16081055 2.14967285 1.24365234 3.25708008 C1.54423377 7.24411794 1.85631212 11.23018667 2.171875 15.21606445 C2.30685247 16.9414075 2.43870935 18.66699763 2.56738281 20.39282227 C2.75286388 22.8732748 2.94954446 25.35262262 3.1484375 27.83203125 C3.20373627 28.60400345 3.25903503 29.37597565 3.31600952 30.17134094 C3.62312374 33.86484243 3.90405055 35.85607582 6 39 C6 40.32 6 41.64 6 43 C5.34 43 4.68 43 4 43 C-0.22879867 32.39850007 -0.60844588 22.43499758 -0.88452148 11.1628418 C-1.01541771 8.71123584 -1.49878607 6.39932966 -2 4 C-1.0625 1.6875 -1.0625 1.6875 0 0 Z " fill="#744B8A" transform="translate(389,190)"/>
<path d="M0 0 C1.34384766 0.07250977 1.34384766 0.07250977 2.71484375 0.14648438 C3.65199219 0.20255859 4.58914063 0.25863281 5.5546875 0.31640625 C6.97201172 0.3947168 6.97201172 0.3947168 8.41796875 0.47460938 C10.7555294 0.60447386 13.09268295 0.73944495 15.4296875 0.87890625 C15.4296875 1.20890625 15.4296875 1.53890625 15.4296875 1.87890625 C13.87507812 2.04326172 13.87507812 2.04326172 12.2890625 2.2109375 C10.91919486 2.37044264 9.54940713 2.53063509 8.1796875 2.69140625 C7.49777344 2.76166016 6.81585937 2.83191406 6.11328125 2.90429688 C2.07113906 3.39484811 -0.57577348 4.06187856 -3.5703125 6.87890625 C-3.2403125 8.52890625 -2.9103125 10.17890625 -2.5703125 11.87890625 C-3.8903125 11.54890625 -5.2103125 11.21890625 -6.5703125 10.87890625 C-6.5703125 12.52890625 -6.5703125 14.17890625 -6.5703125 15.87890625 C-8.76429424 13.68492451 -9.225006 12.90033808 -9.5703125 9.87890625 C-8.6953125 7.37890625 -8.6953125 7.37890625 -7.5703125 4.87890625 C-7.4053125 4.13640625 -7.2403125 3.39390625 -7.0703125 2.62890625 C-6.9053125 2.05140625 -6.7403125 1.47390625 -6.5703125 0.87890625 C-4.11781157 -0.34734422 -2.72720815 -0.1553473 0 0 Z " fill="#855898" transform="translate(704.5703125,75.12109375)"/>
<path d="M0 0 C0.33 0 0.66 0 1 0 C1.02699725 2.27076842 1.04639453 4.54162821 1.0625 6.8125 C1.07410156 8.07707031 1.08570313 9.34164062 1.09765625 10.64453125 C1 14 1 14 0 17 C-1.65 17 -3.3 17 -5 17 C-5 13.04 -5 9.08 -5 5 C-3.68 4.34 -2.36 3.68 -1 3 C-0.67 2.01 -0.34 1.02 0 0 Z " fill="#9E9EA0" transform="translate(718,219)"/>
<path d="M0 0 C1.32 0.66 2.64 1.32 4 2 C3.45939743 5.89233849 2.37781856 7.92865102 0 11 C-0.165 11.66 -0.33 12.32 -0.5 13 C-1.12694532 15.5077813 -2.41952796 16.98237612 -4 19 C-4.44701413 11.43801103 -4.53574091 6.23664375 0 0 Z " fill="#744589" transform="translate(699,66)"/>
<path d="M0 0 C1.53237305 0.07250977 1.53237305 0.07250977 3.09570312 0.14648438 C4.67834961 0.2305957 4.67834961 0.2305957 6.29296875 0.31640625 C7.36740234 0.36861328 8.44183594 0.42082031 9.54882812 0.47460938 C12.19303179 0.60388155 14.83681902 0.73883061 17.48046875 0.87890625 C17.48046875 1.53890625 17.48046875 2.19890625 17.48046875 2.87890625 C7.91046875 3.20890625 -1.65953125 3.53890625 -11.51953125 3.87890625 C-11.18953125 2.88890625 -10.85953125 1.89890625 -10.51953125 0.87890625 C-6.8970245 0.0257068 -3.71223962 -0.18664892 0 0 Z " fill="#804E9C" transform="translate(246.51953125,230.12109375)"/>
<path d="M0 0 C3.04070379 1.74840468 4.60735135 3.49337988 6.5 6.4375 C6.5 7.7575 6.5 9.0775 6.5 10.4375 C4.25 10.8125 4.25 10.8125 1.5 10.4375 C-0.5625 7.625 -0.5625 7.625 -2.5 4.4375 C-4.60575643 2.60449091 -4.60575643 2.60449091 -6.5 1.4375 C-4.00866765 -0.22338823 -2.97431003 -0.66921976 0 0 Z " fill="#734887" transform="translate(777.5,134.5625)"/>
<path d="M0 0 C0.99 0.33 1.98 0.66 3 1 C2.67 1.33 2.34 1.66 2 2 C15.365 2.495 15.365 2.495 29 3 C29 2.34 29 1.68 29 1 C33.455 0.505 33.455 0.505 38 0 C38.495 1.485 38.495 1.485 39 3 C33.83279599 3.85675385 28.89219378 4.13467581 23.66015625 4.09765625 C22.89319931 4.0962413 22.12624237 4.09482635 21.33604431 4.09336853 C18.9114881 4.08781766 16.48702781 4.07527463 14.0625 4.0625 C12.40820447 4.05747864 10.75390747 4.05291685 9.09960938 4.04882812 C5.06636988 4.03786438 1.03320114 4.02063424 -3 4 C-2.67 3.01 -2.34 2.02 -2 1 C-1.34 0.67 -0.68 0.34 0 0 Z " fill="#754B88" transform="translate(139,175)"/>
<path d="M0 0 C0.33 0 0.66 0 1 0 C1 13.2 1 26.4 1 40 C-1.475 40.495 -1.475 40.495 -4 41 C-4.495 39.515 -4.495 39.515 -5 38 C-3.515 37.505 -3.515 37.505 -2 37 C-1.24834398 32.23059541 -0.82854676 27.57877082 -0.68359375 22.75390625 C-0.66281265 22.09792953 -0.64203156 21.44195282 -0.62062073 20.76609802 C-0.55594062 18.69832454 -0.49662534 16.63043899 -0.4375 14.5625 C-0.39423693 13.14907758 -0.35062035 11.73566593 -0.30664062 10.32226562 C-0.20034484 6.88162529 -0.09885528 3.44086308 0 0 Z " fill="#7D588D" transform="translate(677,128)"/>
<path d="M0 0 C17.85649203 -0.3690205 17.85649203 -0.3690205 26 2 C25.67 2.66 25.34 3.32 25 4 C23.54400391 3.75443359 23.54400391 3.75443359 22.05859375 3.50390625 C17.71723112 2.88371159 13.44002229 2.88873583 9.0625 2.9375 C8.28326172 2.94201172 7.50402344 2.94652344 6.70117188 2.95117188 C4.80074732 2.96283092 2.90036294 2.98076123 1 3 C0.67 2.01 0.34 1.02 0 0 Z " fill="#9576A6" transform="translate(319,53)"/>
<path d="M0 0 C2.94075922 0.1367795 5.19750694 0.33021897 7.51171875 2.26171875 C10.28594268 5.41749784 11 6.70970035 11 11 C9.35 11 7.7 11 6 11 C2.77734375 5.82421875 2.77734375 5.82421875 2 4 C2.33 3.01 2.66 2.02 3 1 C2.01 0.67 1.02 0.34 0 0 Z " fill="#6E4984" transform="translate(744,134)"/>
<path d="M0 0 C5.99291003 0.41330414 9.25036599 1.31903365 14 5 C13.34 6.32 12.68 7.64 12 9 C9.06778769 8.37166879 6.54452487 7.61153242 4 6 C2.875 4 2.875 4 2 2 C1.34 1.34 0.68 0.68 0 0 Z " fill="#7C518D" transform="translate(710,133)"/>
<path d="M0 0 C-0.66 0.66 -1.32 1.32 -2 2 C-1.01 2.99 -0.02 3.98 1 5 C-0.98567708 5.22786458 -2.97135417 5.45572917 -4.95703125 5.68359375 C-7.19396393 5.97170735 -7.19396393 5.97170735 -10 7 C-10.99 6.34 -11.98 5.68 -13 5 C-12 2 -12 2 -10.0390625 1.015625 C-9.24242187 0.76296875 -8.44578125 0.5103125 -7.625 0.25 C-6.83351563 -0.01296875 -6.04203125 -0.2759375 -5.2265625 -0.546875 C-3 -1 -3 -1 0 0 Z " fill="#805691" transform="translate(713,62)"/>
<path d="M0 0 C0.66 0.33 1.32 0.66 2 1 C2 1.66 2 2.32 2 3 C0.7934375 3.4021875 0.7934375 3.4021875 -0.4375 3.8125 C-1.283125 4.204375 -2.12875 4.59625 -3 5 C-3.33 5.99 -3.66 6.98 -4 8 C-6.475 7.505 -6.475 7.505 -9 7 C-7.68 7.66 -6.36 8.32 -5 9 C-6 10 -6 10 -9.59765625 10.09765625 C-11.08596867 10.0909822 -12.57426432 10.07902183 -14.0625 10.0625 C-15.20041992 10.05573242 -15.20041992 10.05573242 -16.36132812 10.04882812 C-18.24091871 10.0370068 -20.12046899 10.01907078 -22 10 C-21.67 9.34 -21.34 8.68 -21 8 C-17.65506316 7.00555932 -15.31044803 6.89651732 -12 8 C-11.67 7.01 -11.34 6.02 -11 5 C-9.00390625 4.375 -9.00390625 4.375 -6.5625 4 C-4.1571954 3.68428381 -4.1571954 3.68428381 -2 3 C-1.34 2.01 -0.68 1.02 0 0 Z " fill="#704582" transform="translate(607,138)"/>
<path d="M0 0 C0.99 0.33 1.98 0.66 3 1 C3 4.63 3 8.26 3 12 C1.35 12.33 -0.3 12.66 -2 13 C-2 9.04 -2 5.08 -2 1 C-1.34 0.67 -0.68 0.34 0 0 Z " fill="#8F9192" transform="translate(715,211)"/>
<path d="M0 0 C0.33 0.99 0.66 1.98 1 3 C1.99 3.33 2.98 3.66 4 4 C5.38576923 5.62332967 6.72641268 7.28724465 8 9 C7.01 10.485 7.01 10.485 6 12 C3.08482708 10.92598892 1.22189824 10.22189824 -1 8 C-1.40047444 5.67724823 -1.7397104 3.34260643 -2 1 C-1.34 0.67 -0.68 0.34 0 0 Z " fill="#724487" transform="translate(699,84)"/>
<path d="M0 0 C0.94696598 2.55680815 1.04509772 3.83600828 0.3125 6.5 C-1.13938597 9.26549708 -2.5848737 11.02398757 -5 13 C-5.99 13 -6.98 13 -8 13 C-7.34 11.35 -6.68 9.7 -6 8 C-5.34 8 -4.68 8 -4 8 C-4.66 6.35 -5.32 4.7 -6 3 C-4.02 2.01 -2.04 1.02 0 0 Z " fill="#7F5093" transform="translate(613,133)"/>
<path d="M0 0 C0 0.33 0 0.66 0 1 C-2.64 1.33 -5.28 1.66 -8 2 C-7.01 3.485 -7.01 3.485 -6 5 C-6.78375 5.309375 -7.5675 5.61875 -8.375 5.9375 C-10.92330128 6.92875038 -10.92330128 6.92875038 -13 8 C-13.66 7.67 -14.32 7.34 -15 7 C-15.625 4.9375 -15.625 4.9375 -16 3 C-10.20575649 -0.59058175 -6.69596042 -1.43484866 0 0 Z " fill="#805495" transform="translate(636,134)"/>
<path d="M0 0 C0.33 0 0.66 0 1 0 C1.70831642 9.61736294 0.46322126 17.37529639 -4 26 C-5.66796875 27.8671875 -5.66796875 27.8671875 -7 29 C-7.37005772 24.68265992 -6.35225203 22.57542309 -4 19 C-3.10869587 16.3260876 -2.52268466 13.76276177 -2 11 C-1.34 11 -0.68 11 0 11 C-0.33 10.01 -0.66 9.02 -1 8 C-0.83988879 5.29876894 -0.39559392 2.68124769 0 0 Z " fill="#724887" transform="translate(391,105)"/>
<path d="M0 0 C0.33 0 0.66 0 1 0 C1 3.3 1 6.6 1 10 C2.98 10 4.96 10 7 10 C6.67 11.65 6.34 13.3 6 15 C-0.75 15.125 -0.75 15.125 -3 14 C-2.68289063 13.44828125 -2.36578125 12.8965625 -2.0390625 12.328125 C-0.87290025 9.71522011 -0.59954289 7.59420998 -0.375 4.75 C-0.30023437 3.85796875 -0.22546875 2.9659375 -0.1484375 2.046875 C-0.09945312 1.37140625 -0.05046875 0.6959375 0 0 Z " fill="#744F86" transform="translate(756,82)"/>
<path d="M0 0 C0 0.66 0 1.32 0 2 C-2.97 2 -5.94 2 -9 2 C-9 2.33 -9 2.66 -9 3 C-12.63 3 -16.26 3 -20 3 C-20 2.01 -20 1.02 -20 0 C-4.57142857 -2.28571429 -4.57142857 -2.28571429 0 0 Z " fill="#76498C" transform="translate(723,78)"/>
<path d="M0 0 C0.66 0.99 1.32 1.98 2 3 C2.33 3.33 2.66 3.66 3 4 C3.66 3.34 4.32 2.68 5 2 C5 2.66 5 3.32 5 4 C5.66 4.33 6.32 4.66 7 5 C5.68 8.3 4.36 11.6 3 15 C1.68 14.01 0.36 13.02 -1 12 C-0.34 9.36 0.32 6.72 1 4 C0.01 3.67 -0.98 3.34 -2 3 C-1.34 2.67 -0.68 2.34 0 2 C0 1.34 0 0.68 0 0 Z " fill="#824E98" transform="translate(778,86)"/>
<path d="M0 0 C0 0.66 0 1.32 0 2 C0.66 2.33 1.32 2.66 2 3 C-0.3125 5.5 -0.3125 5.5 -3 8 C-4.66666667 8 -6.33333333 8 -8 8 C-8 7.34 -8 6.68 -8 6 C-8.99 5.67 -9.98 5.34 -11 5 C-9.54462432 4.16151196 -8.08559627 3.32936066 -6.625 2.5 C-5.81289063 2.0359375 -5.00078125 1.571875 -4.1640625 1.09375 C-2 0 -2 0 0 0 Z " fill="#835394" transform="translate(608,67)"/>
<path d="M0 0 C1.65 0 3.3 0 5 0 C7.09350689 3.4019487 7.17942163 6.05272412 7 10 C4.33246269 9.63206382 3.18001672 9.18001672 1.25 7.25 C-0.21079991 4.62056017 -0.24687966 2.9625559 0 0 Z " fill="#78468A" transform="translate(729,157)"/>
<path d="M0 0 C1.65 0 3.3 0 5 0 C6.85776765 3.13498292 7.20140476 5.37471432 7 9 C6.01 9.33 5.02 9.66 4 10 C0.06153846 5.69230769 0.06153846 5.69230769 -0.25 2.1875 C-0.1675 1.465625 -0.085 0.74375 0 0 Z " fill="#724A88" transform="translate(758,157)"/>
<path d="M0 0 C0.33 0 0.66 0 1 0 C1.33 3.96 1.66 7.92 2 12 C1.01 12 0.02 12 -1 12 C-0.67 13.32 -0.34 14.64 0 16 C-0.99 15.67 -1.98 15.34 -3 15 C-4.26237731 12.47524538 -4.09856404 10.68799534 -4.0625 7.875 C-4.05347656 6.96492187 -4.04445313 6.05484375 -4.03515625 5.1171875 C-4.02355469 4.41851562 -4.01195312 3.71984375 -4 3 C-3.01 3.33 -2.02 3.66 -1 4 C-0.67 2.68 -0.34 1.36 0 0 Z " fill="#724486" transform="translate(652,147)"/>
<path d="M0 0 C0.66 0.33 1.32 0.66 2 1 C3.53668865 1.22467831 5.07968054 1.40796805 6.625 1.5625 C7.44226563 1.64628906 8.25953125 1.73007813 9.1015625 1.81640625 C9.72804688 1.87699219 10.35453125 1.93757812 11 2 C10.67 2.99 10.34 3.98 10 5 C8.35 5 6.7 5 5 5 C6.32 5.66 7.64 6.32 9 7 C4.99799622 8.60080151 1.95443764 7.29279692 -2 6 C-1.34 4.02 -0.68 2.04 0 0 Z " fill="#7F5592" transform="translate(736,162)"/>
<path d="M0 0 C1.65 0 3.3 0 5 0 C4.38461538 5.53846154 4.38461538 5.53846154 2.4375 7.875 C1.7259375 8.431875 1.7259375 8.431875 1 9 C-1.475 8.01 -1.475 8.01 -4 7 C-2.68 4.69 -1.36 2.38 0 0 Z " fill="#764D88" transform="translate(640,157)"/>
<path d="M0 0 C0 1.65 0 3.3 0 5 C-5.625 7.125 -5.625 7.125 -9 6 C-8.625 3.5625 -8.625 3.5625 -8 1 C-5.29120665 -0.35439668 -2.99066732 -0.06501451 0 0 Z " fill="#7F5394" transform="translate(698,134)"/>
<path d="M0 0 C-0.99 0.66 -1.98 1.32 -3 2 C-2.01 2.99 -1.02 3.98 0 5 C-3.3 5.33 -6.6 5.66 -10 6 C-9.67 4.68 -9.34 3.36 -9 2 C-9.99 1.67 -10.98 1.34 -12 1 C-7.53763531 -0.80619523 -4.68965706 -1.11658501 0 0 Z " fill="#885A96" transform="translate(775,134)"/>
<path d="M0 0 C0.66 0 1.32 0 2 0 C2 5.94 2 11.88 2 18 C0.35 18.33 -1.3 18.66 -3 19 C-2.505 17.515 -2.505 17.515 -2 16 C-1.34 16 -0.68 16 0 16 C0 10.72 0 5.44 0 0 Z " fill="#744E85" transform="translate(685,150)"/>
<path d="M0 0 C0.99 0.33 1.98 0.66 3 1 C-6.78406809 10.14067132 -6.78406809 10.14067132 -13 13 C-13.99 12.67 -14.98 12.34 -16 12 C-15.030625 11.731875 -14.06125 11.46375 -13.0625 11.1875 C-12.051875 10.795625 -11.04125 10.40375 -10 10 C-9.67 9.01 -9.34 8.02 -9 7 C-8.360625 6.855625 -7.72125 6.71125 -7.0625 6.5625 C-6.381875 6.376875 -5.70125 6.19125 -5 6 C-3.90833725 4.06669397 -3.90833725 4.06669397 -3 2 C-2.01 1.34 -1.02 0.68 0 0 Z " fill="#704382" transform="translate(208,159)"/>
<path d="M0 0 C-0.99 1.485 -0.99 1.485 -2 3 C-2 2.34 -2 1.68 -2 1 C-2.99 1.495 -2.99 1.495 -4 2 C-4 2.99 -4 3.98 -4 5 C-5.48551921 7.18052998 -7.24174197 9.02195971 -9 11 C-9.66 9.68 -10.32 8.36 -11 7 C-10.01 6.67 -9.02 6.34 -8 6 C-7.87625 5.030625 -7.7525 4.06125 -7.625 3.0625 C-7.41875 2.051875 -7.2125 1.04125 -7 0 C-4.3333581 -1.33332095 -2.83319697 -0.67102033 0 0 Z " fill="#714286" transform="translate(662,135)"/>
<path d="M0 0 C0.33 0.99 0.66 1.98 1 3 C-1.78967152 7.64945253 -4.896238 9.3838087 -10 11 C-12.72498236 11.21952572 -15.25850531 11.14428919 -18 11 C-17.34 10.67 -16.68 10.34 -16 10 C-15.67 9.34 -15.34 8.68 -15 8 C-15 8.66 -15 9.32 -15 10 C-7.84293518 7.7227521 -4.60223844 5.88063801 0 0 Z " fill="#8D8D90" transform="translate(614,226)"/>
<path d="M0 0 C1.98 0 3.96 0 6 0 C5.67 3.3 5.34 6.6 5 10 C4.67 10 4.34 10 4 10 C3.34 7.69 2.68 5.38 2 3 C1.67 6.96 1.34 10.92 1 15 C0.67 15 0.34 15 0 15 C0 10.05 0 5.1 0 0 Z " fill="#704B87" transform="translate(672,122)"/>
<path d="M0 0 C1.875 0.625 1.875 0.625 4 2 C5.25 5.125 5.25 5.125 6 8 C4.35 8.33 2.7 8.66 1 9 C-0.61949011 6.42786866 -1.04408751 5.32330841 -0.625 2.25 C-0.41875 1.5075 -0.2125 0.765 0 0 Z " fill="#9C9C9C" transform="translate(642,205)"/>
<path d="M0 0 C0.66 0.33 1.32 0.66 2 1 C1.38003922 2.29409289 0.75383647 3.58519673 0.125 4.875 C-0.22304688 5.59429687 -0.57109375 6.31359375 -0.9296875 7.0546875 C-2 9 -2 9 -4 11 C-4.99 10.67 -5.98 10.34 -7 10 C-5.75 6.5625 -5.75 6.5625 -4 3 C-1.8125 2.0625 -1.8125 2.0625 0 2 C0 1.34 0 0.68 0 0 Z " fill="#815596" transform="translate(659,84)"/>
<path d="M0 0 C3 1 3 1 4.203125 3.14453125 C4.54859375 4.02496094 4.8940625 4.90539062 5.25 5.8125 C5.60578125 6.68519531 5.9615625 7.55789062 6.328125 8.45703125 C7.03604136 11.13641236 6.9337741 12.43212123 6 15 C2.67438548 11.35255181 1.52016624 8.88956266 1 4 C0.68325425 2.66262906 0.35729936 1.32711192 0 0 Z " fill="#9676A4" transform="translate(384,81)"/>
<path d="M0 0 C0.33 0 0.66 0 1 0 C1.28571429 8.57142857 1.28571429 8.57142857 -1 12 C-1.33 11.34 -1.66 10.68 -2 10 C-3.97536745 10.34786708 -3.97536745 10.34786708 -6 11 C-6.33 11.66 -6.66 12.32 -7 13 C-8.32 12.34 -9.64 11.68 -11 11 C-11 10.67 -11 10.34 -11 10 C-9.741875 9.835 -8.48375 9.67 -7.1875 9.5 C-4.41577045 8.84263405 -3.33451746 8.53392037 -1.80078125 6.0859375 C-1.07007471 4.06847456 -0.4673471 2.09332555 0 0 Z " fill="#754B87" transform="translate(672,154)"/>
<path d="M0 0 C0.99 0 1.98 0 3 0 C7.83823529 11.40441176 7.83823529 11.40441176 6 16 C5.34 16 4.68 16 4 16 C3.79503906 15.09636719 3.59007812 14.19273438 3.37890625 13.26171875 C3.10949219 12.08222656 2.84007812 10.90273437 2.5625 9.6875 C2.16224609 7.92986328 2.16224609 7.92986328 1.75390625 6.13671875 C1.04686031 2.99763029 1.04686031 2.99763029 0 0 Z " fill="#714488" transform="translate(334,101)"/>
<path d="M0 0 C0.33 0 0.66 0 1 0 C1.33 3.63 1.66 7.26 2 11 C2.33 11 2.66 11 3 11 C3 13.97 3 16.94 3 20 C1.68 19.67 0.36 19.34 -1 19 C-0.67 12.73 -0.34 6.46 0 0 Z " fill="#77498C" transform="translate(580,77)"/>
<path d="M0 0 C0.66 0.33 1.32 0.66 2 1 C1.67 1.66 1.34 2.32 1 3 C0.34 3 -0.32 3 -1 3 C-1.41809201 5.83151973 -1.41809201 5.83151973 -1 9 C1.38118166 11.22168366 1.38118166 11.22168366 4 13 C4.33 13.99 4.66 14.98 5 16 C-1.13680387 13.84382567 -1.13680387 13.84382567 -3 11 C-3.41857482 7.16306413 -3.54644269 4.88796936 -1.5 1.5625 C-1.005 1.046875 -0.51 0.53125 0 0 Z " fill="#6C487F" transform="translate(733,136)"/>
<path d="M0 0 C3.63 0 7.26 0 11 0 C11 0.66 11 1.32 11 2 C8.03 2 5.06 2 2 2 C1.67 5.96 1.34 9.92 1 14 C0.67 14 0.34 14 0 14 C0 9.38 0 4.76 0 0 Z " fill="#6F4881" transform="translate(579,122)"/>
<path d="M0 0 C1.9375 0.375 1.9375 0.375 4 1 C5.4783226 3.95664519 5.06032783 6.74229737 5 10 C3.35 9.67 1.7 9.34 0 9 C0 6 0 3 0 0 Z " fill="#6F4883" transform="translate(751,152)"/>
<path d="M0 0 C0.66 0 1.32 0 2 0 C2.66 0.66 3.32 1.32 4 2 C4.66 1.67 5.32 1.34 6 1 C8.3494053 1.60760482 10.68529088 2.27129528 13 3 C13 3.66 13 4.32 13 5 C8.07317325 6.20166506 4.74755815 5.76869813 0 4 C-0.33 3.34 -0.66 2.68 -1 2 C-0.67 1.34 -0.34 0.68 0 0 Z " fill="#7B5091" transform="translate(761,145)"/>
<path d="M0 0 C0.66 0 1.32 0 2 0 C3.31223496 3.93670488 2.24296256 6.12488144 1 10 C1.66 10 2.32 10 3 10 C3 10.99 3 11.98 3 13 C1.68 13.33 0.36 13.66 -1 14 C-1.027193 12.41676312 -1.04648306 10.83338938 -1.0625 9.25 C-1.07410156 8.36828125 -1.08570313 7.4865625 -1.09765625 6.578125 C-1.00826198 4.2181162 -0.66912821 2.25501476 0 0 Z " fill="#7B4690" transform="translate(684,137)"/>
<path d="M0 0 C0.33 0 0.66 0 1 0 C1 4.62 1 9.24 1 14 C0.01 14 -0.98 14 -2 14 C-2 10.33333333 -2 6.66666667 -2 3 C-1.34 3 -0.68 3 0 3 C0 2.01 0 1.02 0 0 Z " fill="#774C8C" transform="translate(226,111)"/>
<path d="M0 0 C1.32 1.32 2.64 2.64 4 4 C0.375 8.875 0.375 8.875 -3 10 C-2 7 -2 7 -1 5 C-1.66 4.67 -2.32 4.34 -3 4 C-2.01 2.68 -1.02 1.36 0 0 Z " fill="#714687" transform="translate(686,87)"/>
<path d="M0 0 C0.33 0.66 0.66 1.32 1 2 C3.01669827 3.13350534 3.01669827 3.13350534 5 4 C4.01 5.32 3.02 6.64 2 8 C0.02 7.34 -1.96 6.68 -4 6 C-3.67 5.34 -3.34 4.68 -3 4 C-2.34 4 -1.68 4 -1 4 C-0.67 2.68 -0.34 1.36 0 0 Z " fill="#9C9B9D" transform="translate(607,210)"/>
<path d="M0 0 C1.32 0 2.64 0 4 0 C4 0.66 4 1.32 4 2 C4.99 2 5.98 2 7 2 C6.67 3.32 6.34 4.64 6 6 C3.36 6 0.72 6 -2 6 C-2 5.34 -2 4.68 -2 4 C-0.68 4 0.64 4 2 4 C2 3.34 2 2.68 2 2 C1.34 2 0.68 2 0 2 C0 1.34 0 0.68 0 0 Z " fill="#875B9A" transform="translate(740,133)"/>
<path d="M0 0 C1.79133978 -0.05391993 3.58313899 -0.09275571 5.375 -0.125 C6.37273438 -0.14820313 7.37046875 -0.17140625 8.3984375 -0.1953125 C11 0 11 0 13 2 C11.35 1.67 9.7 1.34 8 1 C8.33 2.32 8.66 3.64 9 5 C6.03 4.01 3.06 3.02 0 2 C0 1.34 0 0.68 0 0 Z " fill="#784B8A" transform="translate(627,135)"/>
<path d="M0 0 C0.33 0.66 0.66 1.32 1 2 C0.67 2.99 0.34 3.98 0 5 C0.66 5.33 1.32 5.66 2 6 C0.68 7.65 -0.64 9.3 -2 11 C-2.33 9.68 -2.66 8.36 -3 7 C-3.66 7 -4.32 7 -5 7 C-3.70700306 4.11562221 -2.34058637 2.12780579 0 0 Z " fill="#86589B" transform="translate(620,64)"/>
<path d="M0 0 C3 1 3 1 4.1875 2.6875 C5.19313465 5.54969093 5.13689641 7.98827908 5 11 C4.01 11.495 4.01 11.495 3 12 C3.04125 11.21625 3.0825 10.4325 3.125 9.625 C3.28728734 6.83883881 3.28728734 6.83883881 1 5 C0.01 5.495 0.01 5.495 -1 6 C-1.33 4.68 -1.66 3.36 -2 2 C-1.34 2 -0.68 2 0 2 C0 1.34 0 0.68 0 0 Z " fill="#8F9190" transform="translate(785,206)"/>
<path d="M0 0 C1.65 0 3.3 0 5 0 C4.67 0.66 4.34 1.32 4 2 C3.34 1.67 2.68 1.34 2 1 C2 4.3 2 7.6 2 11 C1.01 11.495 1.01 11.495 0 12 C-1.1671568 8.49852959 -1.13357453 5.67329964 -1 2 C-0.67 1.34 -0.34 0.68 0 0 Z " fill="#774489" transform="translate(665,92)"/>
<path d="M0 0 C2.31 0 4.62 0 7 0 C7.33 0.99 7.66 1.98 8 3 C4.78372163 5.14418558 2.80909895 5.67582137 -1 6 C-1.66 5.34 -2.32 4.68 -3 4 C-1.35 4 0.3 4 2 4 C2 3.01 2 2.02 2 1 C1.34 0.67 0.68 0.34 0 0 Z " fill="#7D5493" transform="translate(632,164)"/>
<path d="M0 0 C0.33 0 0.66 0 1 0 C1.02686553 1.97909398 1.04633375 3.95828971 1.0625 5.9375 C1.07410156 7.03964844 1.08570313 8.14179688 1.09765625 9.27734375 C1 12 1 12 0 13 C-1.66617115 13.04063832 -3.33388095 13.042721 -5 13 C-5 12.34 -5 11.68 -5 11 C-4.34 10.67 -3.68 10.34 -3 10 C-2.34786708 7.97536745 -2.34786708 7.97536745 -2 6 C-1.67 6.33 -1.34 6.66 -1 7 C-0.67 4.69 -0.34 2.38 0 0 Z " fill="#7D548B" transform="translate(584,156)"/>
<path d="M0 0 C0.99 0.33 1.98 0.66 3 1 C1.69108934 3.91987762 0.29493021 5.796867 -2 8 C-3.01800576 9.31963709 -4.02248365 10.65009646 -5 12 C-4.58525633 6.71201818 -3.64775386 3.88309282 0 0 Z " fill="#784B89" transform="translate(653,136)"/>
<path d="M0 0 C1.65 0 3.3 0 5 0 C4.625 2.9375 4.625 2.9375 4 6 C3.01 6.495 3.01 6.495 2 7 C1.34 6.34 0.68 5.68 0 5 C-0.66 5 -1.32 5 -2 5 C-1.34 3.35 -0.68 1.7 0 0 Z " fill="#7B5A8A" transform="translate(720,85)"/>
<path d="M0 0 C3.24271506 0.5590888 4.93057424 1.4132178 7 4 C7 4.66 7 5.32 7 6 C6.34 6 5.68 6 5 6 C5 7.98 5 9.96 5 12 C3.4375 10.375 3.4375 10.375 2 8 C2.3125 4.75 2.3125 4.75 3 2 C2.01 1.67 1.02 1.34 0 1 C0 0.67 0 0.34 0 0 Z " fill="#704684" transform="translate(651,64)"/>
<path d="M0 0 C4.455 0.99 4.455 0.99 9 2 C9 2.66 9 3.32 9 4 C8.2575 4.144375 7.515 4.28875 6.75 4.4375 C5.09622716 4.77577172 3.44732994 5.14211516 1.8125 5.5625 C0 6 0 6 -2 6 C-2 5.34 -2 4.68 -2 4 C-1.34 4 -0.68 4 0 4 C0 2.68 0 1.36 0 0 Z " fill="#7E5093" transform="translate(765,162)"/>
<path d="M0 0 C1.7074998 1.28062485 3.37373596 2.61767557 5 4 C5 4.66 5 5.32 5 6 C5.99 6.33 6.98 6.66 8 7 C5.69 7.66 3.38 8.32 1 9 C0.67 6.03 0.34 3.06 0 0 Z " fill="#818384" transform="translate(402,112)"/>
<path d="M0 0 C0.66 1.32 1.32 2.64 2 4 C3.65 4 5.3 4 7 4 C7 4.33 7 4.66 7 5 C3.38026598 6.31626692 0.90432869 7 -3 7 C-2.25 2.25 -2.25 2.25 0 0 Z " fill="#804E97" transform="translate(755,58)"/>
<path d="M0 0 C1.4540625 0.0309375 1.4540625 0.0309375 2.9375 0.0625 C2.9375 1.3825 2.9375 2.7025 2.9375 4.0625 C0.6275 4.0625 -1.6825 4.0625 -4.0625 4.0625 C-4.0625 0.08290816 -4.0625 0.08290816 0 0 Z " fill="#754A88" transform="translate(760.0625,62.9375)"/>
<path d="M0 0 C0.66 0 1.32 0 2 0 C2.6875 2.25 2.6875 2.25 3 5 C1.5625 7.3125 1.5625 7.3125 0 9 C-0.66 8.67 -1.32 8.34 -2 8 C-2.125 5.125 -2.125 5.125 -2 2 C-1.34 1.34 -0.68 0.68 0 0 Z " fill="#909193" transform="translate(588,190)"/>
<path d="M0 0 C0.66 0 1.32 0 2 0 C3.45184478 4.53701494 4.23509196 8.18061476 4 13 C1.7522025 10.94766315 0.9977758 9.99332739 0 7 C0.33 6.34 0.66 5.68 1 5 C0.72057545 3.32345271 0.39171753 1.65391846 0 0 Z " fill="#714885" transform="translate(385,175)"/>
<path d="M0 0 C0.7425 0.0825 1.485 0.165 2.25 0.25 C2.58 1.24 2.91 2.23 3.25 3.25 C2.46625 3.20875 1.6825 3.1675 0.875 3.125 C-1.91116119 2.96271266 -1.91116119 2.96271266 -3.75 5.25 C-4.74 4.92 -5.73 4.59 -6.75 4.25 C-3.42692308 0.31153846 -3.42692308 0.31153846 0 0 Z " fill="#704584" transform="translate(709.75,133.75)"/>
<path d="M0 0 C1.98 0 3.96 0 6 0 C6 0.33 6 0.66 6 1 C4.35 1 2.7 1 1 1 C1 1.99 1 2.98 1 4 C2.98 4 4.96 4 7 4 C6.67 4.66 6.34 5.32 6 6 C3.36 5.67 0.72 5.34 -2 5 C-1.34 3.35 -0.68 1.7 0 0 Z " fill="#7F5893" transform="translate(707,92)"/>
<path d="M0 0 C1.32 1.65 2.64 3.3 4 5 C3.34 5 2.68 5 2 5 C1.67 5.66 1.34 6.32 1 7 C-0.32 6.67 -1.64 6.34 -3 6 C-1.125 1.125 -1.125 1.125 0 0 Z " fill="#7F5292" transform="translate(703,158)"/>
<path d="M0 0 C0.33 0 0.66 0 1 0 C1.0825 0.7425 1.165 1.485 1.25 2.25 C2.1396946 5.51221354 3.48503749 6.80954878 6 9 C5.01 9 4.02 9 3 9 C3 8.34 3 7.68 3 7 C2.34 7 1.68 7 1 7 C1 7.66 1 8.32 1 9 C0.34 9 -0.32 9 -1 9 C-1.125 2.25 -1.125 2.25 0 0 Z " fill="#6F4884" transform="translate(760,138)"/>
<path d="M0 0 C0.33 0.66 0.66 1.32 1 2 C1.99 1.67 2.98 1.34 4 1 C4.36923077 5.55384615 4.36923077 5.55384615 2.5 7.8125 C2.005 8.204375 1.51 8.59625 1 9 C0.34 8.67 -0.32 8.34 -1 8 C-1 4.88742431 -0.82638376 2.89234315 0 0 Z " fill="#6F4384" transform="translate(776,97)"/>
<path d="M0 0 C0.33 0.66 0.66 1.32 1 2 C1.66 2.33 2.32 2.66 3 3 C1.68 6.3 0.36 9.6 -1 13 C-1.33 13 -1.66 13 -2 13 C-2 10.03 -2 7.06 -2 4 C-1.34 4 -0.68 4 0 4 C-0.33 3.01 -0.66 2.02 -1 1 C-0.67 0.67 -0.34 0.34 0 0 Z " fill="#7A4F8E" transform="translate(782,88)"/>
<path d="M0 0 C1.65 0 3.3 0 5 0 C4.50168276 3.68754757 3.89932357 5.60490662 1 8 C1.33 6.35 1.66 4.7 2 3 C1.01 3 0.02 3 -1 3 C-0.67 2.01 -0.34 1.02 0 0 Z " fill="#724F85" transform="translate(722,157)"/>
<path d="M0 0 C0.99 0.33 1.98 0.66 3 1 C2.34 2.32 1.68 3.64 1 5 C2.65 5 4.3 5 6 5 C6 5.33 6 5.66 6 6 C3.03 5.67 0.06 5.34 -3 5 C-2.67 3.68 -2.34 2.36 -2 1 C-1.34 0.67 -0.68 0.34 0 0 Z " fill="#845C98" transform="translate(642,92)"/>
<path d="M0 0 C1.44096586 0.42594588 2.87768712 0.86626633 4.3125 1.3125 C5.11300781 1.55613281 5.91351563 1.79976562 6.73828125 2.05078125 C9.09964573 3.04182023 10.33879993 4.08074943 12 6 C7.39146203 5.27991594 3.32762591 3.68704061 -1 2 C-0.67 1.34 -0.34 0.68 0 0 Z " fill="#9576A3" transform="translate(186,58)"/>
<path d="M0 0 C3.3 0 6.6 0 10 0 C10 0.66 10 1.32 10 2 C6.37 2.33 2.74 2.66 -1 3 C-0.67 2.01 -0.34 1.02 0 0 Z " fill="#794C8C" transform="translate(309,53)"/>
<path d="M0 0 C1.9375 0.3125 1.9375 0.3125 4 1 C5.04449911 4.13349732 4.93423645 4.98968256 4 8 C4.66 8.33 5.32 8.66 6 9 C5.01 9.33 4.02 9.66 3 10 C0 3.375 0 3.375 0 0 Z " fill="#6F4483" transform="translate(601,51)"/>
<path d="M0 0 C0.33 0.66 0.66 1.32 1 2 C1.66 2 2.32 2 3 2 C3 1.34 3 0.68 3 0 C4.32 0.33 5.64 0.66 7 1 C5.68 2.32 4.36 3.64 3 5 C2.67 4.67 2.34 4.34 2 4 C1.67 6.31 1.34 8.62 1 11 C0.67 11 0.34 11 0 11 C0 7.37 0 3.74 0 0 Z " fill="#A782B5" transform="translate(577,51)"/>
<path d="M0 0 C1.32 0 2.64 0 4 0 C4 0.66 4 1.32 4 2 C3.34 2 2.68 2 2 2 C2 3.32 2 4.64 2 6 C2.99 6.33 3.98 6.66 5 7 C4.67 7.99 4.34 8.98 4 10 C0.06153846 5.69230769 0.06153846 5.69230769 -0.25 2.1875 C-0.1675 1.465625 -0.085 0.74375 0 0 Z " fill="#6F4C7D" transform="translate(729,157)"/>
<path d="M0 0 C0.89203125 0.01804688 1.7840625 0.03609375 2.703125 0.0546875 C3.71632813 0.08949219 3.71632813 0.08949219 4.75 0.125 C4.75 0.455 4.75 0.785 4.75 1.125 C2.11 1.455 -0.53 1.785 -3.25 2.125 C-2.92 3.115 -2.59 4.105 -2.25 5.125 C-3.24 5.125 -4.23 5.125 -5.25 5.125 C-5.25 4.465 -5.25 3.805 -5.25 3.125 C-6.57 2.795 -7.89 2.465 -9.25 2.125 C-6.03817851 0.21891902 -3.71117397 -0.09766247 0 0 Z " fill="#704781" transform="translate(645.25,61.875)"/>
<path d="M0 0 C0.33 0 0.66 0 1 0 C1 3.63 1 7.26 1 11 C-0.65 10.67 -2.3 10.34 -4 10 C-4 9.34 -4 8.68 -4 8 C-3.01 7.67 -2.02 7.34 -1 7 C-0.67 4.69 -0.34 2.38 0 0 Z " fill="#774B88" transform="translate(676,158)"/>
<path d="M0 0 C0.99 0.99 1.98 1.98 3 3 C2.01 4.485 2.01 4.485 1 6 C-1.475 5.01 -1.475 5.01 -4 4 C-2 1 -2 1 0 0 Z " fill="#855598" transform="translate(782,159)"/>
<path d="M0 0 C4.1666604 0.47348414 6.92884715 1.04696841 10 4 C10 4.66 10 5.32 10 6 C9.443125 5.690625 8.88625 5.38125 8.3125 5.0625 C5.87459567 3.94238179 3.63775814 3.43962636 1 3 C0.67 2.01 0.34 1.02 0 0 Z " fill="#704487" transform="translate(363,152)"/>
<path d="M0 0 C0.66 0.33 1.32 0.66 2 1 C1.6875 2.9375 1.6875 2.9375 1 5 C0.01 5.33 -0.98 5.66 -2 6 C-2 5.34 -2 4.68 -2 4 C-2.66 4 -3.32 4 -4 4 C-3.67 3.01 -3.34 2.02 -3 1 C-2.01 0.67 -1.02 0.34 0 0 Z " fill="#704481" transform="translate(720,89)"/>
<path d="M0 0 C2.97246802 2.54782974 4.41535288 5.45340883 6 9 C6 9.66 6 10.32 6 11 C5.34 11 4.68 11 4 11 C3.87625 10.360625 3.7525 9.72125 3.625 9.0625 C3.41875 8.381875 3.2125 7.70125 3 7 C2.34 6.67 1.68 6.34 1 6 C0.375 2.9375 0.375 2.9375 0 0 Z " fill="#91759F" transform="translate(216,81)"/>
<path d="M0 0 C0 0.66 0 1.32 0 2 C2.64 2 5.28 2 8 2 C8 2.33 8 2.66 8 3 C6.72125 3.144375 5.4425 3.28875 4.125 3.4375 C1.74307106 3.70642746 0.15547309 3.92226346 -2 5 C-2.66 4.67 -3.32 4.34 -4 4 C-4 3.01 -4 2.02 -4 1 C-2 0 -2 0 0 0 Z " fill="#7A4695" transform="translate(584,72)"/>
<path d="M0 0 C0.99 0.66 1.98 1.32 3 2 C2.67 2.66 2.34 3.32 2 4 C-0.06640625 4.4140625 -0.06640625 4.4140625 -2.5625 4.625 C-3.38878906 4.69976562 -4.21507812 4.77453125 -5.06640625 4.8515625 C-6.02353516 4.92503906 -6.02353516 4.92503906 -7 5 C-6 3 -6 3 -5 2 C-3.33382885 1.95936168 -1.66611905 1.957279 0 2 C0 1.34 0 0.68 0 0 Z " fill="#825693" transform="translate(683,62)"/>
<path d="M0 0 C1.65 0 3.3 0 5 0 C4.67 1.65 4.34 3.3 4 5 C1.525 4.01 1.525 4.01 -1 3 C-0.67 2.01 -0.34 1.02 0 0 Z " fill="#9A999C" transform="translate(705,225)"/>
<path d="M0 0 C1.5625 1.75 1.5625 1.75 3 4 C2.6875 6.25 2.6875 6.25 2 8 C1.67 7.34 1.34 6.68 1 6 C-0.32 6 -1.64 6 -3 6 C-3 5.01 -3 4.02 -3 3 C-2.34 3 -1.68 3 -1 3 C-0.67 2.01 -0.34 1.02 0 0 Z " fill="#7D7F7E" transform="translate(452,181)"/>
<path d="M0 0 C1.5 1.375 1.5 1.375 3 3 C3 3.66 3 4.32 3 5 C4.32 5.33 5.64 5.66 7 6 C5.68 6.99 4.36 7.98 3 9 C1.5 7.875 1.5 7.875 0 6 C-0.1875 2.8125 -0.1875 2.8125 0 0 Z " fill="#7E5790" transform="translate(667,62)"/>
<path d="M0 0 C0.33 0.99 0.66 1.98 1 3 C1.66 3 2.32 3 3 3 C3.33 2.34 3.66 1.68 4 1 C3.67 2.32 3.34 3.64 3 5 C1.68 5 0.36 5 -1 5 C-1.66 4.34 -2.32 3.68 -3 3 C-2.01 2.01 -1.02 1.02 0 0 Z " fill="#704483" transform="translate(639,160)"/>
<path d="M0 0 C1.32 0 2.64 0 4 0 C4 1.65 4 3.3 4 5 C3.01 5.33 2.02 5.66 1 6 C0.67 4.02 0.34 2.04 0 0 Z " fill="#76458B" transform="translate(609,161)"/>
<path d="M0 0 C0.33 0.66 0.66 1.32 1 2 C0.34 2 -0.32 2 -1 2 C-1.0825 2.78375 -1.165 3.5675 -1.25 4.375 C-2 7 -2 7 -4.0625 8.3125 C-4.701875 8.539375 -5.34125 8.76625 -6 9 C-6 8.01 -6 7.02 -6 6 C-5.01 5.34 -4.02 4.68 -3 4 C-2.67 3.01 -2.34 2.02 -2 1 C-1.34 0.67 -0.68 0.34 0 0 Z " fill="#704488" transform="translate(382,133)"/>
<path d="M0 0 C4.21912747 0.4794463 6.79663178 1.16625119 10 4 C7.125 4.625 7.125 4.625 4 5 C3.34 4.34 2.68 3.68 2 3 C1.34 2.67 0.68 2.34 0 2 C0 1.34 0 0.68 0 0 Z " fill="#835092" transform="translate(661,133)"/>
<path d="M0 0 C1.32 0.33 2.64 0.66 4 1 C3.67 1.33 3.34 1.66 3 2 C3.99 2.99 4.98 3.98 6 5 C5.01 5.66 4.02 6.32 3 7 C1.5 5.75 1.5 5.75 0 4 C0 2.68 0 1.36 0 0 Z " fill="#7D5094" transform="translate(649,63)"/>
<path d="M0 0 C1.67542976 0.28604898 3.34385343 0.61781233 5 1 C5.33 2.65 5.66 4.3 6 6 C5.38125 5.67 4.7625 5.34 4.125 5 C2.08981656 3.85806765 2.08981656 3.85806765 0 4 C-0.33 3.01 -0.66 2.02 -1 1 C-0.67 0.67 -0.34 0.34 0 0 Z " fill="#6F497F" transform="translate(765,62)"/>
<path d="M0 0 C6.625 -0.25 6.625 -0.25 10 2 C6.30458414 2.95024979 3.69541586 2.95024979 0 2 C0 1.34 0 0.68 0 0 Z " fill="#979999" transform="translate(630,201)"/>
<path d="M0 0 C0.33 0.99 0.66 1.98 1 3 C-2 5 -2 5 -4.1875 4.625 C-4.785625 4.41875 -5.38375 4.2125 -6 4 C-2.25 0 -2.25 0 0 0 Z " fill="#835794" transform="translate(670,164)"/>
<path d="M0 0 C4.875 4.625 4.875 4.625 6 8 C3.5625 7.375 3.5625 7.375 1 6 C0.1875 2.875 0.1875 2.875 0 0 Z " fill="#734784" transform="translate(377,160)"/>
<path d="M0 0 C0.66 0.33 1.32 0.66 2 1 C-0.97 4.96 -0.97 4.96 -4 9 C-4.33 7.68 -4.66 6.36 -5 5 C-2.5625 2.25 -2.5625 2.25 0 0 Z " fill="#6E4785" transform="translate(216,150)"/>
<path d="M0 0 C1.65 0 3.3 0 5 0 C4.34 1.98 3.68 3.96 3 6 C2.01 5.67 1.02 5.34 0 5 C0 3.35 0 1.7 0 0 Z " fill="#7C4E91" transform="translate(700,142)"/>
<path d="M0 0 C1.98 0 3.96 0 6 0 C6 1.65 6 3.3 6 5 C5.01 5 4.02 5 3 5 C2.67 4.01 2.34 3.02 2 2 C1.34 1.34 0.68 0.68 0 0 Z " fill="#825D90" transform="translate(692,134)"/>
<path d="M0 0 C0.66 0 1.32 0 2 0 C2 0.66 2 1.32 2 2 C2.66 2 3.32 2 4 2 C4.33 1.34 4.66 0.68 5 0 C5.33 1.32 5.66 2.64 6 4 C4.68 4.99 3.36 5.98 2 7 C1.34 4.69 0.68 2.38 0 0 Z " fill="#774A8E" transform="translate(687,70)"/>
<path d="M0 0 C1.67542976 0.28604898 3.34385343 0.61781233 5 1 C3.3545622 2.68762851 1.68711423 4.3540349 0 6 C-0.33 6 -0.66 6 -1 6 C-1.042721 4.33388095 -1.04063832 2.66617115 -1 1 C-0.67 0.67 -0.34 0.34 0 0 Z " fill="#714883" transform="translate(735,66)"/>
<path d="M0 0 C3.34373475 0.55728913 6.03312999 1.35173889 9 3 C9 3.66 9 4.32 9 5 C5.625 4.75 5.625 4.75 2 4 C0.5625 1.9375 0.5625 1.9375 0 0 Z " fill="#93769F" transform="translate(357,59)"/>
<path d="M0 0 C-0.33 0.99 -0.66 1.98 -1 3 C-2.9375 3.75 -2.9375 3.75 -5 4 C-5.66 3.67 -6.32 3.34 -7 3 C-6.67 2.01 -6.34 1.02 -6 0 C-3.42525708 -0.99667468 -2.51072708 -1.25536354 0 0 Z " fill="#9C9CA0" transform="translate(604,232)"/>
<path d="M0 0 C0.28875 0.598125 0.5775 1.19625 0.875 1.8125 C2.04742026 4.19327792 2.04742026 4.19327792 4 7 C4 8.32 4 9.64 4 11 C3.34 11 2.68 11 2 11 C0.19769832 7.17010894 -0.19622241 4.21878192 0 0 Z " fill="#6C4A7B" transform="translate(391,222)"/>
<path d="M0 0 C-0.33 1.32 -0.66 2.64 -1 4 C-2.9375 3.6875 -2.9375 3.6875 -5 3 C-5.33 2.01 -5.66 1.02 -6 0 C-3 -1 -3 -1 0 0 Z " fill="#774595" transform="translate(704,149)"/>
<path d="M0 0 C0.66 0.33 1.32 0.66 2 1 C1.67 1.66 1.34 2.32 1 3 C1.99 3 2.98 3 4 3 C3.67 3.99 3.34 4.98 3 6 C1.35 5.67 -0.3 5.34 -2 5 C-1.34 3.35 -0.68 1.7 0 0 Z " fill="#9F9FA1" transform="translate(778,201)"/>
<path d="M0 0 C2.29013653 3.4352048 2.17842973 4.985331 2 9 C1.01 8.67 0.02 8.34 -1 8 C-1.125 2.25 -1.125 2.25 0 0 Z " fill="#9A9C9E" transform="translate(556,170)"/>
<path d="M0 0 C-0.66 1.32 -1.32 2.64 -2 4 C-3.65 3.67 -5.3 3.34 -7 3 C-7 2.34 -7 1.68 -7 1 C-4.53721199 -0.231394 -2.7204945 -0.07159196 0 0 Z " fill="#724285" transform="translate(749,149)"/>
<path d="M0 0 C0.66 0.33 1.32 0.66 2 1 C1.34 3.31 0.68 5.62 0 8 C-1.65 8.33 -3.3 8.66 -5 9 C-4.360625 8.071875 -3.72125 7.14375 -3.0625 6.1875 C-0.91377907 3.15780057 -0.91377907 3.15780057 0 0 Z " fill="#9882A5" transform="translate(172,123)"/>
<path d="M0 0 C1.98 0 3.96 0 6 0 C5 3 5 3 3 5 C2.67 4.01 2.34 3.02 2 2 C1.34 2 0.68 2 0 2 C0 1.34 0 0.68 0 0 Z " fill="#7C4E96" transform="translate(679,92)"/>
<path d="M0 0 C2.34058637 2.12780579 3.70700306 4.11562221 5 7 C3.68 7 2.36 7 1 7 C1 6.01 1 5.02 1 4 C0.01 4.33 -0.98 4.66 -2 5 C-2 4.34 -2 3.68 -2 3 C-1.34 3 -0.68 3 0 3 C0 2.01 0 1.02 0 0 Z " fill="#804D95" transform="translate(631,80)"/>
<path d="M0 0 C0 0.66 0 1.32 0 2 C-2.31 2.66 -4.62 3.32 -7 4 C-6.67 3.01 -6.34 2.02 -6 1 C-4 0 -4 0 0 0 Z " fill="#724683" transform="translate(191,172)"/>
<path d="M0 0 C1.65 0 3.3 0 5 0 C5.33 1.65 5.66 3.3 6 5 C5.01 5.495 5.01 5.495 4 6 C3.71125 5.38125 3.4225 4.7625 3.125 4.125 C2.06279958 1.86674235 2.06279958 1.86674235 0 0 Z " fill="#865D9B" transform="translate(710,133)"/>
<path d="M0 0 C0 0.33 0 0.66 0 1 C-7.625 2.25 -7.625 2.25 -11 0 C-6.94952424 -1.35015859 -4.2079832 -0.62084998 0 0 Z " fill="#8B6397" transform="translate(636,134)"/>
<path d="M0 0 C0.66 0 1.32 0 2 0 C2 0.66 2 1.32 2 2 C2.66 2.33 3.32 2.66 4 3 C3.01 3.99 2.02 4.98 1 6 C-0.0625 4.125 -0.0625 4.125 -1 2 C-0.67 1.34 -0.34 0.68 0 0 Z " fill="#7D4793" transform="translate(606,67)"/>
<path d="" fill="#FDFCFF" transform="translate(0,0)"/>
<path d="" fill="#FDFCFF" transform="translate(0,0)"/>
<path d="" fill="#FEFBFF" transform="translate(0,0)"/>
<path d="" fill="#FFF9FF" transform="translate(0,0)"/>
<path d="" fill="#FFF9FF" transform="translate(0,0)"/>
<path d="" fill="#FFFFFF" transform="translate(0,0)"/>
</svg>
